<?xml version="1.0" encoding="UTF-8" standalone="no"?>
<svg width="83px" height="83px" viewBox="0 0 83 83" version="1.1" xmlns="http://www.w3.org/2000/svg" xmlns:xlink="http://www.w3.org/1999/xlink">
    <!-- Generator: Sketch 40 (33762) - http://www.bohemiancoding.com/sketch -->
    <title>Group 67 Copy</title>
    <desc>Created with Sketch.</desc>
    <defs>
        <path d="M0.529125699,40.9064085 C0.529125699,63.3546074 18.7047866,81.5471227 41.1211775,81.5471227 C63.5394996,81.5471227 81.7132293,63.3546074 81.7132293,40.9064085 C81.7132293,18.4582097 63.5394996,0.261827273 41.1211775,0.261827273 C18.7047866,0.261827273 0.529125699,18.4582097 0.529125699,40.9064085 L0.529125699,40.9064085 Z" id="path-1"></path>
        <path d="M0.551526641,7.30696641 C7.99732824,16.0582098 19.0846368,21.6079182 31.4655991,21.6079182 C44.2168761,21.6079182 55.5949425,15.7222753 63.036637,6.51556693 L63.036637,0.0930307386 L0.551526641,0.0930307386 L0.551526641,7.30696641 L0.551526641,7.30696641 Z" id="path-3"></path>
        <path d="M0.529125699,40.9064085 C0.529125699,63.3546074 18.7047866,81.5471227 41.1211775,81.5471227 L41.1211775,81.5471227 C63.5394996,81.5471227 81.7132293,63.3546074 81.7132293,40.9064085 L81.7132293,40.9064085 C81.7132293,18.4582097 63.5394996,0.261827273 41.1211775,0.261827273 L41.1211775,0.261827273 C18.7047866,0.261827273 0.529125699,18.4582097 0.529125699,40.9064085 L0.529125699,40.9064085 Z" id="path-5"></path>
        <polygon id="path-7" points="0.000466666666 20.7 20.489 20.7 20.489 0.506 0.000466666666 0.506"></polygon>
    </defs>
    <g id="Page-1" stroke="none" stroke-width="1" fill="none" fill-rule="evenodd">
        <g id="Artboard" transform="translate(-722.000000, -588.000000)">
            <g id="Group-67-Copy" transform="translate(722.000000, 588.000000)">
                <g id="boter-icon">
                    <path d="M81.7141949,41.5754074 C81.7141949,64.0236062 63.5404651,82.2180551 41.120212,82.2180551 C18.703821,82.2180551 0.530091257,64.0236062 0.530091257,41.5754074 C0.530091257,19.129142 18.703821,0.932759659 41.120212,0.932759659 C63.5404651,0.932759659 81.7141949,19.129142 81.7141949,41.5754074" id="Fill-1" fill="#FC6060"></path>
                    <g id="Group-47" transform="translate(0.000000, 0.670352)">
                        <g id="Group-5">
                            <mask id="mask-2" fill="white">
                                <use xlink:href="#path-1"></use>
                            </mask>
                            <g id="Clip-4"></g>
                            <polygon id="Fill-3" fill="#F2DF08" mask="url(#mask-2)" points="87.6187742 103.221526 -1.93092258 103.217659 -1.93092258 -1.70881909 87.6187742 -1.70881909"></polygon>
                        </g>
                        <g id="Group-8" transform="translate(9.655578, 59.939205)">
                            <mask id="mask-4" fill="white">
                                <use xlink:href="#path-3"></use>
                            </mask>
                            <g id="Clip-7"></g>
                            <path d="M63.036637,22.2666694 C63.036637,34.5078018 49.0495661,44.4306404 31.7911852,44.4306404 C14.5405287,44.4306404 0.551526641,34.5078018 0.551526641,22.2628023 C0.551526641,10.0236035 14.5405287,0.0930307386 31.7911852,0.0930307386 C49.0495661,0.0930307386 63.036637,10.0236035 63.036637,22.2666694" id="Fill-6" fill="#010101" mask="url(#mask-4)"></path>
                        </g>
                        <polygon id="Fill-9" fill="#FFFFFF" points="41.6943326 70.2157128 35.790912 76.1264918 24.9670085 68.2473866 28.4121189 64.3068673"></polygon>
                        <polygon id="Fill-11" fill="#FFFFFF" points="41.3662361 70.2157128 47.2696568 76.1264918 58.0935602 68.2473866 54.6542432 64.3068673"></polygon>
                        <path d="M72.6016462,39.2455125 C72.6016462,57.9175415 58.5759529,70.7097278 41.2808808,70.7097278 C23.9819464,70.7058608 9.95818428,57.9175415 9.95818428,39.2455125 C9.95818428,20.5792841 23.9819464,5.44366818 41.2808808,5.44366818 C58.5759529,5.44366818 72.6016462,20.5792841 72.6016462,39.2455125" id="Fill-13" fill="#0876F2"></path>
                        <path d="M36.7873677,43.9244441 C36.7873677,50.2721993 30.1308119,55.4173032 21.919708,55.4173032 C13.7047418,55.4173032 7.04818605,50.2721993 7.04818605,43.9244441 C7.04818605,37.576689 13.7047418,32.4296515 21.919708,32.4296515 C30.1308119,32.4296515 36.7873677,37.576689 36.7873677,43.9244441" id="Fill-15" fill="#0876F2"></path>
                        <path d="M21.9193218,33.3958328 C14.2508613,33.3958328 8.01335767,38.1174953 8.01335767,43.9238641 C8.01335767,49.7282993 14.2508613,54.4518953 21.9193218,54.4518953 C29.585851,54.4518953 35.8214236,49.7282993 35.8214236,43.9238641 C35.8214236,38.1174953 29.585851,33.3958328 21.9193218,33.3958328 M21.9193218,56.3854181 C13.1868166,56.3854181 6.08224198,50.7956039 6.08224198,43.9238641 C6.08224198,37.0540578 13.1868166,31.4623101 21.9193218,31.4623101 C30.6498958,31.4623101 37.7525393,37.0540578 37.7525393,43.9238641 C37.7525393,50.7956039 30.6498958,56.3854181 21.9193218,56.3854181" id="Fill-17" fill="#231F1F"></path>
                        <path d="M7.24361495,44.7438711 C7.24361495,40.2580984 13.7398881,36.6172751 21.7540183,36.6172751 C29.7720106,36.6172751 36.2663527,40.2580984 36.2663527,44.7438711" id="Fill-19" fill="#FFFFFF"></path>
                        <path d="M36.9345187,44.7438711 L35.6001178,44.7438711 C35.6001178,40.6312682 29.3877186,37.2862739 21.7540183,37.2862739 C14.122249,37.2862739 7.91178098,40.6312682 7.91178098,44.7438711 L6.57544893,44.7438711 C6.57544893,39.8114546 13.2416603,35.9482762 21.7540183,35.9482762 C30.2663762,35.9482762 36.9345187,39.8114546 36.9345187,44.7438711" id="Fill-21" fill="#231F1F"></path>
                        <path d="M75.8001531,43.9244441 C75.8001531,50.5061555 68.8925523,55.8465453 60.3724698,55.8465453 C51.8523874,55.8465453 44.9447866,50.5061555 44.9447866,43.9244441 C44.9447866,37.3388657 51.8523874,32.0004095 60.3724698,32.0004095 C68.8925523,32.0004095 75.8001531,37.3388657 75.8001531,43.9244441" id="Fill-23" fill="#0876F2"></path>
                        <path d="M60.3718905,32.9671709 C52.3983138,32.9671709 45.9116962,37.8821856 45.9116962,43.9244441 C45.9116962,49.9647691 52.3983138,54.8797839 60.3718905,54.8797839 C68.3473983,54.8797839 74.8340159,49.9647691 74.8340159,43.9244441 C74.8340159,37.8821856 68.3473983,32.9671709 60.3718905,32.9671709 M60.3718905,56.8133066 C51.3323379,56.8133066 43.9805805,51.0320737 43.9805805,43.9244441 C43.9805805,36.8168146 51.3323379,31.0336481 60.3718905,31.0336481 C69.411443,31.0336481 76.7651316,36.8168146 76.7651316,43.9244441 C76.7651316,51.0320737 69.411443,56.8133066 60.3718905,56.8133066" id="Fill-25" fill="#231F1F"></path>
                        <path d="M46.4334837,44.7438711 C46.4334837,40.2580984 53.0417616,36.6211421 61.1930009,36.6211421 C69.3442402,36.6211421 75.9486559,40.2580984 75.9486559,44.7438711" id="Fill-27" fill="#FFFFFF"></path>
                        <path d="M76.6224221,44.7438711 L75.2764345,44.7438711 C75.2764345,40.7066756 68.8265081,37.294008 61.1928078,37.294008 C53.5571763,37.294008 47.1072499,40.7066756 47.1072499,44.7438711 L45.7612623,44.7438711 C45.7612623,39.8114546 52.5375472,35.9463427 61.1928078,35.9463427 C69.8442061,35.9463427 76.6224221,39.8114546 76.6224221,44.7438711" id="Fill-29" fill="#231F1F"></path>
                        <polyline id="Fill-31" fill="#0876F2" points="45.1699547 25.5484375 46.2088949 55.3053523 36.060882 55.3053523 37.1017533 25.5484375"></polyline>
                        <polygon id="Fill-33" fill="#231F1F" points="47.2086335 56.2713402 35.0619158 56.2713402 36.1375472 25.5147942 38.0686629 25.5824675 37.0606205 54.3378175 45.2099288 54.3378175 44.2038175 25.5824675 46.1349332 25.5147942"></polygon>
                        <path d="M41.4342114,63.6051919 C31.8520153,63.6051919 31.2263338,59.7613488 31.1857804,59.3205056 L32.6534283,59.1658238 C32.6592217,59.1967601 33.2115208,62.1279806 41.4342114,62.1279806 C49.5700018,62.1279806 49.8789803,59.4249158 49.8809114,59.3978465 L51.3562838,59.4249158 C51.3562838,59.8541578 51.0782031,63.6051919 41.4342114,63.6051919" id="Fill-35" fill="#010101"></path>
                        <mask id="mask-6" fill="white">
                            <use xlink:href="#path-5"></use>
                        </mask>
                        <g id="Clip-38"></g>
                        <polygon id="Fill-37" fill="#0876F2" mask="url(#mask-6)" points="33.2480188 56.647217 35.3761083 56.647217 35.3761083 47.1246176 33.2480188 47.1246176"></polygon>
                        <polygon id="Fill-39" fill="#0876F2" mask="url(#mask-6)" points="46.8565911 56.647217 48.9885428 56.647217 48.9885428 47.1246176 46.8565911 47.1246176"></polygon>
                        <path d="M36.9080624,22.2459807 C30.774839,22.2459807 23.5582596,20.6759602 15.2988778,16.3680716 L15.9728372,15.0687443 C45.1481331,30.2836347 60.670441,10.277475 60.8249302,10.0744551 L61.9932552,10.954208 C61.8773883,11.1108233 53.24337,22.2459807 36.9080624,22.2459807" id="Fill-40" fill="#010101" mask="url(#mask-6)"></path>
                        <path d="M37.5190674,19.0964655 C32.2838128,19.0964655 26.127416,17.7584678 19.0788437,14.0809076 L19.7547342,12.7815803 C29.9877162,18.118103 39.799715,19.0887314 48.1344104,15.5755206 C54.4433653,12.9188604 57.7552287,8.60323767 57.7861266,8.56070017 L58.9563827,9.44238653 C58.8559647,9.5757996 51.4752405,19.0964655 37.5190674,19.0964655" id="Fill-41" fill="#010101" mask="url(#mask-6)"></path>
                        <path d="M38.1791228,15.6994594 C34.2898558,15.6994594 29.7169738,14.7036952 24.4875125,11.9754947 L25.163403,10.6761674 C43.2849926,20.1233594 52.8749132,7.75461455 52.9676067,7.62700205 L54.1378628,8.50675489 C54.0644804,8.60729807 48.5627318,15.6994594 38.1791228,15.6994594" id="Fill-42" fill="#010101" mask="url(#mask-6)"></path>
                        <path d="M38.8090527,12.4084104 C36.1808042,12.4084104 33.0929503,11.737478 29.566733,9.89676437 L30.2406924,8.5974371 C42.1498828,14.8079121 48.4260088,6.7083854 48.4897356,6.62717744 L49.6580606,7.50693028 C49.6078516,7.57460358 45.8595561,12.4084104 38.8090527,12.4084104" id="Fill-43" fill="#010101" mask="url(#mask-6)"></path>
                        <path d="M39.3729385,9.49671852 C37.6909367,9.49671852 35.7173365,9.06747648 33.4695178,7.89382818 L34.1454083,6.59450091 C41.3426765,10.345535 45.0484875,5.64514125 45.2049079,5.44018784 L46.3713017,6.32574125 C46.3384728,6.37021227 43.9129915,9.49671852 39.3729385,9.49671852" id="Fill-44" fill="#010101" mask="url(#mask-6)"></path>
                        <polygon id="Fill-45" fill="#010101" mask="url(#mask-6)" points="17.7797822 47.8129517 25.6510097 47.8129517 25.6510097 37.0277619 17.7797822 37.0277619"></polygon>
                        <polygon id="Fill-46" fill="#010101" mask="url(#mask-6)" points="56.0602885 47.8129517 63.931516 47.8129517 63.931516 37.0277619 56.0602885 37.0277619"></polygon>
                    </g>
                </g>
                <g id="Group-66" transform="translate(62.000000, 61.000000)">
                    <g id="live-icon">
                        <g id="Group-3" transform="translate(0.000000, 0.794667)">
                            <mask id="mask-8" fill="white">
                                <use xlink:href="#path-7"></use>
                            </mask>
                            <g id="Clip-2"></g>
                            <path d="M20.4894667,10.60369 C20.4894667,16.17889 15.9044667,20.70069 10.2438,20.70069 C4.5878,20.70069 0.000466666666,16.17889 0.000466666666,10.60369 C0.000466666666,5.02849 4.5878,0.50439 10.2438,0.50439 C15.9044667,0.50439 20.4894667,5.02849 20.4894667,10.60369" id="Fill-1" fill="#FFFFFF" mask="url(#mask-8)"></path>
                        </g>
                    </g>
                    <polyline id="Path-2" stroke="#0976F2" stroke-width="2" points="4 11 8 15 16 7"></polyline>
                </g>
            </g>
        </g>
    </g>
</svg>