<?xml version="1.0" encoding="UTF-8" standalone="no"?>
<svg width="455px" height="306px" viewBox="0 0 455 306" version="1.1" xmlns="http://www.w3.org/2000/svg" xmlns:xlink="http://www.w3.org/1999/xlink">
    <!-- Generator: Sketch 40 (33762) - http://www.bohemiancoding.com/sketch -->
    <title>Page 1</title>
    <desc>Created with Sketch.</desc>
    <defs>
        <polygon id="path-1" points="0 305.660768 454.904985 305.660768 454.904985 0.0426952464 0 0.0426952464"></polygon>
    </defs>
    <g id="Page-1" stroke="none" stroke-width="1" fill="none" fill-rule="evenodd">
        <g id="Artboard" transform="translate(-127.000000, -942.000000)">
            <g id="Page-1" transform="translate(127.000000, 942.000000)">
                <polygon id="Fill-1" fill="#FC6060" points="268.127485 146.584126 291.2455 146.584126 291.2455 113.316267 268.127485 113.316267"></polygon>
                <g id="Group-83" transform="translate(0.000000, 0.273203)">
                    <path d="M283.955597,142.779369 C283.955597,183.194708 249.738259,205.925491 207.528979,205.925491 C165.3197,205.925491 131.102362,183.194708 131.102362,142.779369 C131.102362,102.364029 165.3197,69.5997208 207.528979,69.5997208 C249.738259,69.5997208 283.955597,102.364029 283.955597,142.779369 L283.955597,142.779369 Z" id="Fill-2" fill="#FC6060"></path>
                    <path d="M279.863675,141.859852 L276.518087,141.859852 C276.518087,105.774249 246.833351,76.4156076 210.347704,76.4156076 L210.347704,73.0675279 C248.678778,73.0675279 279.863675,103.927448 279.863675,141.859852" id="Fill-4" fill="#FFFFFF"></path>
                    <mask id="mask-2" fill="white">
                        <use xlink:href="#path-1"></use>
                    </mask>
                    <g id="Clip-7"></g>
                    <polygon id="Fill-6" fill="#FC6060" mask="url(#mask-2)" points="124.462574 146.310923 147.580588 146.310923 147.580588 113.043064 124.462574 113.043064"></polygon>
                    <path d="M243.404525,246.386767 C243.404525,264.677996 228.587584,265.777505 210.308628,265.777505 C192.03101,265.777505 177.214069,264.677996 177.214069,246.386767 C177.214069,228.095538 192.03101,208.308387 210.308628,208.308387 C228.587584,208.308387 243.404525,228.095538 243.404525,246.386767" id="Fill-8" fill="#FC6060" mask="url(#mask-2)"></path>
                    <path d="M199.699099,227.069284 C199.699099,228.494227 198.544201,229.649984 197.120319,229.649984 C195.696437,229.649984 194.542878,228.494227 194.542878,227.069284 C194.542878,225.644342 195.696437,224.488584 197.120319,224.488584 C198.544201,224.488584 199.699099,225.644342 199.699099,227.069284" id="Fill-9" fill="#000000" mask="url(#mask-2)"></path>
                    <path d="M225.019447,227.069284 C225.019447,228.494227 223.86455,229.649984 222.440668,229.649984 C221.016785,229.649984 219.863226,228.494227 219.863226,227.069284 C219.863226,225.644342 221.016785,224.488584 222.440668,224.488584 C223.86455,224.488584 225.019447,225.644342 225.019447,227.069284" id="Fill-10" fill="#000000" mask="url(#mask-2)"></path>
                    <polygon id="Fill-11" fill="#000000" mask="url(#mask-2)" points="206.832294 120.524013 210.177882 120.524013 210.177882 73.4018002 206.832294 73.4018002"></polygon>
                    <polygon id="Fill-12" fill="#FFFFFF" mask="url(#mask-2)" points="206.417441 34.1154328 210.432147 34.1154328 210.432147 0.0426952464 206.417441 0.0426952464"></polygon>
                    <polygon id="Fill-13" fill="#FFFFFF" mask="url(#mask-2)" points="152.143301 51.8253014 130.574963 30.2409011 133.41336 27.4003903 154.981699 48.9847905"></polygon>
                    <polygon id="Fill-14" fill="#FFFFFF" mask="url(#mask-2)" points="265.216288 51.8253014 262.377891 48.9847905 283.946229 27.4003903 286.784626 30.2409011"></polygon>
                    <path d="M199.235534,140.662177 C199.235534,157.67444 185.455725,171.46451 168.456122,171.46451 C151.456519,171.46451 137.67671,157.67444 137.67671,140.662177 C137.67671,123.649914 151.456519,117.895235 168.456122,117.895235 C185.455725,117.895235 199.235534,123.649914 199.235534,140.662177" id="Fill-15" fill="#FFFFFF" mask="url(#mask-2)"></path>
                    <path d="M168.455587,120.573431 C149.807278,120.573431 140.352646,127.332534 140.352646,140.661909 C140.352646,156.170214 152.96016,168.785779 168.455587,168.785779 C183.951013,168.785779 196.558528,156.170214 196.558528,140.661909 C196.558528,127.332534 187.103896,120.573431 168.455587,120.573431 M168.455587,174.142706 C150.008013,174.142706 134.999704,159.123221 134.999704,140.661909 C134.999704,124.25364 146.881896,115.216503 168.455587,115.216503 C190.029278,115.216503 201.911469,124.25364 201.911469,140.661909 C201.911469,159.123221 186.90316,174.142706 168.455587,174.142706" id="Fill-16" fill="#000000" mask="url(#mask-2)"></path>
                    <path d="M278.191416,140.662177 C278.191416,157.67444 264.411607,171.46451 247.412004,171.46451 C230.412401,171.46451 216.632593,157.67444 216.632593,140.662177 C216.632593,123.649914 230.412401,117.895235 247.412004,117.895235 C264.411607,117.895235 278.191416,123.649914 278.191416,140.662177" id="Fill-17" fill="#FFFFFF" mask="url(#mask-2)"></path>
                    <path d="M247.411469,120.573431 C228.76316,120.573431 219.308528,127.332534 219.308528,140.661909 C219.308528,156.170214 231.916043,168.785779 247.411469,168.785779 C262.906896,168.785779 275.51441,156.170214 275.51441,140.661909 C275.51441,127.332534 266.059778,120.573431 247.411469,120.573431 M247.411469,174.142706 C228.963896,174.142706 213.955587,159.123221 213.955587,140.661909 C213.955587,124.25364 225.837778,115.216503 247.411469,115.216503 C268.98516,115.216503 280.867351,124.25364 280.867351,140.661909 C280.867351,159.123221 265.859043,174.142706 247.411469,174.142706" id="Fill-18" fill="#000000" mask="url(#mask-2)"></path>
                    <path d="M351.251435,131.394558 C349.365862,131.058411 347.492332,130.888329 345.687053,130.888329 L345.679024,130.888329 C345.138376,130.888329 344.5897,130.90306 344.032994,130.935202 L343.646244,124.251096 C344.338112,124.209579 344.968421,124.194848 345.688391,124.192169 C347.884435,124.192169 350.152744,124.397072 352.425068,124.80152 L351.251435,131.394558 Z M335.571332,133.006994 L332.735612,126.941612 C335.414759,125.686752 338.337465,124.851071 341.418082,124.457337 L342.265185,131.099927 C339.873759,131.405272 337.620171,132.046764 335.571332,133.006994 L335.571332,133.006994 Z M360.137318,134.093111 C358.639832,133.456976 357.644185,133.189129 357.636156,133.186451 L357.166435,133.025743 C357.158406,133.021725 355.5552,132.349431 353.046009,131.762847 L354.564906,125.242127 C357.122274,125.839425 358.943612,126.525111 359.568568,126.774208 C360.057024,126.914828 361.209244,127.273742 362.753568,127.931305 L360.137318,134.093111 Z M328.668715,138.188482 L323.694494,133.71009 C325.771435,131.399915 328.130744,129.476778 330.708185,127.996927 L334.039053,133.803837 C332.078538,134.93147 330.270582,136.405964 328.668715,138.188482 L328.668715,138.188482 Z M367.727788,138.828635 C365.978715,137.291196 363.975376,135.951965 361.773979,134.852455 L364.764935,128.862071 C367.481553,130.220052 369.963979,131.882039 372.143965,133.799819 L367.727788,138.828635 Z M373.067347,145.685502 C372.043597,143.636477 370.679935,141.737446 369.011156,140.041979 L373.779288,135.343953 C375.940538,137.541633 377.715038,140.013855 379.051935,142.693658 L373.067347,145.685502 Z M323.804229,145.75916 L317.732656,142.944094 C319.028068,140.146439 320.550979,137.617969 322.255891,135.428325 L327.532553,139.546463 C326.13945,141.334337 324.885524,143.423539 323.804229,145.75916 L323.804229,145.75916 Z M375.363759,154.089182 C375.157671,151.667851 374.625053,149.372407 373.779288,147.268474 L379.987362,144.770806 C381.0807,147.493465 381.768553,150.437097 382.030847,153.521348 L375.363759,154.089182 Z M320.769112,154.627553 L314.270641,153.027171 C314.983921,150.127734 315.859126,147.402397 316.873509,144.923479 L323.065524,147.458645 C322.175597,149.634897 321.403435,152.045514 320.769112,154.627553 L320.769112,154.627553 Z M319.104347,164.094583 L312.457332,163.320507 C312.794568,160.425088 313.246891,157.652878 313.799582,155.078874 L320.340876,156.489085 C319.831009,158.85283 319.416156,161.413441 319.104347,164.094583 L319.104347,164.094583 Z M381.367082,164.425374 L374.796347,163.163817 C375.240641,160.845607 375.465465,158.605072 375.464126,156.505156 C375.464126,156.294897 375.46145,156.088655 375.457435,155.885092 L382.145935,155.73108 C382.152626,155.986874 382.155303,156.244006 382.155303,156.502478 C382.156641,159.024251 381.891671,161.690662 381.367082,164.425374 L381.367082,164.425374 Z M378.381479,174.624964 L372.13995,172.211668 C373.100803,169.723375 373.862259,167.294008 374.405582,164.990529 L380.918774,166.525289 C380.305862,169.126078 379.452068,171.850075 378.381479,174.624964 L378.381479,174.624964 Z M374.012141,184.104047 L368.105171,180.96087 C369.371141,178.574358 370.488568,176.230703 371.422656,173.991507 L377.597274,176.572207 C376.582891,179.001573 375.375803,181.5354 374.012141,184.104047 L374.012141,184.104047 Z M368.000788,193.005921 L362.924862,188.644043 C364.561524,186.734298 366.000126,184.710719 367.193832,182.626874 L372.996421,185.962901 C371.592612,188.408338 369.911788,190.778779 368.000788,193.005921 L368.000788,193.005921 Z M360.275156,200.359644 L356.134656,195.099141 C358.170112,193.494741 360.034274,191.789899 361.680303,190.031487 L366.564862,194.606303 C364.691332,196.611133 362.574244,198.547663 360.275156,200.359644 L360.275156,200.359644 Z M351.531126,206.214765 L348.213641,200.39982 C350.5047,199.090052 352.663274,197.693233 354.626465,196.246862 L358.591656,201.642628 C356.421038,203.238992 354.045671,204.77777 351.531126,206.214765 L351.531126,206.214765 Z M342.206303,210.843151 L339.559274,204.693398 C342.004229,203.639422 344.350156,202.509111 346.531479,201.333265 L349.704435,207.228564 C347.351818,208.495477 344.829244,209.7115 342.206303,210.843151 L342.206303,210.843151 Z M332.549597,214.50595 L330.437862,208.151295 C332.985862,207.3049 335.449553,206.394222 337.7647,205.447385 L340.296641,211.645351 C337.844994,212.648435 335.238112,213.611343 332.549597,214.50595 L332.549597,214.50595 Z M322.698847,217.402708 L321.023376,210.919487 C323.628921,210.245853 326.171568,209.517311 328.577715,208.756627 L330.594435,215.140746 C328.075876,215.937589 325.419479,216.699612 322.698847,217.402708 L322.698847,217.402708 Z M312.726318,219.680742 L311.410832,213.115827 C314.056524,212.585491 316.648685,212.008282 319.112376,211.400271 L320.712906,217.903581 C318.1542,218.53302 315.467024,219.131657 312.726318,219.680742 L312.726318,219.680742 Z M302.678847,221.448528 L301.667141,214.830044 C304.328891,214.422918 306.954509,213.972936 309.470391,213.49483 L310.720303,220.073137 C308.124126,220.565974 305.419553,221.029348 302.678847,221.448528 L302.678847,221.448528 Z M292.588553,222.783742 L291.839141,216.129099 C294.508921,215.829111 297.15595,215.488946 299.706626,215.120657 L300.662126,221.748516 C298.0432,222.127519 295.326582,222.475719 292.588553,222.783742 L292.588553,222.783742 Z M282.471494,223.743971 L281.953597,217.066561 C284.624715,216.85898 287.286465,216.616579 289.867921,216.344715 L290.567818,223.004715 C287.927479,223.281936 285.202832,223.531034 282.471494,223.743971 L282.471494,223.743971 Z M272.3357,224.366714 L272.030582,217.677251 C274.693671,217.554042 277.364788,217.398691 279.970332,217.213877 L280.446744,223.892626 C277.784994,224.081458 275.054994,224.242166 272.3357,224.366714 L272.3357,224.366714 Z M250.016612,224.658667 C244.946038,224.552868 241.969803,224.365375 241.845347,224.35734 L242.270906,217.674573 C242.300347,217.675912 245.245803,217.862065 250.15445,217.963847 L250.016612,224.658667 Z M262.191876,224.680095 L262.084818,217.985274 C264.742553,217.942419 267.419024,217.867422 270.040626,217.761623 L270.31095,224.452425 C267.635818,224.559564 264.904479,224.637239 262.191876,224.680095 L262.191876,224.680095 Z M256.671656,224.725628 C255.012244,224.725628 253.465244,224.713575 252.045376,224.693487 L252.139053,217.998667 C254.464906,218.029469 257.137362,218.042861 260.0962,218.012059 L260.16445,224.708218 C258.950671,224.720272 257.785068,224.725628 256.671656,224.725628 L256.671656,224.725628 Z" id="Fill-19" fill="#000000" mask="url(#mask-2)"></path>
                    <path d="M321.364626,184.249086 L315.880538,172.221444 C316.714259,171.839763 317.35795,171.159433 317.689832,170.303664 C318.028406,169.433163 318.006994,168.482309 317.63095,167.6252 C317.254906,166.769431 316.567053,166.111868 315.695862,165.773043 C313.89995,165.072624 311.865832,165.968571 311.168612,167.768498 C310.701568,168.96845 311.018729,169.990284 311.246229,170.492496 L299.234229,175.990043 C297.340626,171.846459 297.205465,167.226109 298.855509,162.978066 C302.194406,154.386893 311.892597,150.113404 320.481391,153.45077 C324.640626,155.068562 327.921979,158.2104 329.720568,162.297736 C331.520494,166.386411 331.619524,170.930425 330.002935,175.094097 C328.417126,179.178754 325.348553,182.430409 321.364626,184.249086" id="Fill-20" fill="#FC6060" mask="url(#mask-2)"></path>
                    <polygon id="Fill-21" fill="#0876F2" mask="url(#mask-2)" points="132.264485 123.006681 129.870382 121.808069 137.577279 106.384135 139.971382 107.582748"></polygon>
                    <path d="M196.259299,184.120921 C196.259299,184.120921 196.710284,192.088012 209.348578,192.088012 C221.985534,192.088012 221.985534,184.482514 221.985534,184.482514" id="Fill-22" fill="#FC6060" mask="url(#mask-2)"></path>
                    <path d="M209.347507,194.732057 C197.376993,194.732057 193.825316,187.888582 193.621904,184.269978 L198.893213,183.919099 C198.948081,184.485594 199.717566,189.44477 209.347507,189.44477 C219.071125,189.44477 219.342787,184.532467 219.342787,184.482916 L224.627478,184.482916 C224.627478,184.586036 224.452169,194.732057 209.347507,194.732057" id="Fill-23" fill="#000000" mask="url(#mask-2)"></path>
                    <path d="M40.5469235,129.441289 C38.0658353,129.101124 35.6048206,128.991307 33.1705706,129.113177 L32.8279824,122.426392 C35.6784235,122.277737 38.5609824,122.408982 41.4569235,122.806734 L40.5469235,129.441289 Z M24.0893059,130.708202 L22.1863353,124.287924 L23.0133647,124.048202 C25.5238941,123.338409 28.0973206,122.846911 30.6640559,122.589778 L31.3304971,129.252457 C29.1531882,129.470752 26.9691882,129.887253 24.8373794,130.491247 L24.0893059,130.708202 Z M49.6281882,131.668431 C47.1939382,130.818019 44.7570118,130.167152 42.3896735,129.73592 L43.5860559,123.148238 C46.2973206,123.641075 49.0714824,124.381671 51.8349382,125.345918 L49.6281882,131.668431 Z M15.5968647,134.262524 L12.2191588,128.482399 C14.5302912,127.129775 17.1987324,125.936519 20.1535559,124.936113 L22.2987471,131.277376 C19.7734971,132.134484 17.5185706,133.138908 15.5968647,134.262524 L15.5968647,134.262524 Z M58.3200265,135.521401 C56.0022029,134.282612 53.6750118,133.20587 51.40135,132.321977 L53.8248941,126.081156 C56.3461294,127.061474 58.9195559,128.249372 61.4729088,129.61405 L58.3200265,135.521401 Z M9.25898235,139.906047 L3.73608529,136.125395 C5.39148235,133.704064 7.61027647,131.534508 10.3268941,129.679672 L14.0980412,135.212039 C12.0706147,136.595465 10.4419824,138.17442 9.25898235,139.906047 L9.25898235,139.906047 Z M66.5287618,140.57968 C64.3420853,139.058313 62.1473794,137.66819 60.0035265,136.44815 L63.3076294,130.626509 C65.6281294,131.945652 67.9994824,133.445592 70.3507618,135.083473 L66.5287618,140.57968 Z M74.2503794,146.513817 C72.2015412,144.794243 70.1353059,143.176451 68.1105559,141.705974 L72.0409529,136.286103 C74.1928353,137.848987 76.38085,139.563203 78.5487912,141.383219 L74.2503794,146.513817 Z M6.71232059,147.617344 L0.03185,147.224949 C0.224555882,143.946509 1.0556,140.897078 2.50624706,138.162367 L8.41589412,141.301526 C7.42024706,143.179129 6.84614412,145.30449 6.71232059,147.617344 L6.71232059,147.617344 Z M81.5250265,153.088106 C79.5832471,151.209164 77.6361147,149.425307 75.7384971,147.784748 L80.1131882,142.718434 C82.1044824,144.439347 84.1426147,146.307575 86.1753941,148.272228 L81.5250265,153.088106 Z M1.48651176,158.273612 C0.580526471,155.209449 0.0800264706,152.265818 -0.000267647059,149.525749 L6.68823235,149.331561 C6.75112941,151.493081 7.15929118,153.862182 7.90201176,156.373242 L1.48651176,158.273612 Z M88.4075706,160.14318 C86.5755265,158.158438 84.7327765,156.248693 82.93285,154.464836 L87.6394235,149.705206 C89.5102765,151.558703 91.4226147,153.542106 93.3215706,155.597827 L88.4075706,160.14318 Z M94.9408353,167.566542 C93.2118353,165.510821 91.4627618,163.503312 89.7404529,161.600264 L94.6986147,157.104463 C96.4771294,159.069116 98.2810706,161.138229 100.060924,163.255555 L94.9408353,167.566542 Z M5.55474706,168.141072 C4.16432059,165.455913 3.02012941,162.831018 2.15295294,160.338708 L8.46942353,158.134332 C9.23489412,160.327994 10.2506147,162.658257 11.4951735,165.060839 L5.55474706,168.141072 Z M101.171659,175.284535 C99.5149235,173.155157 97.8461441,171.069973 96.2108206,169.090588 L101.364365,164.821117 C103.045188,166.854071 104.756791,168.991485 106.453674,171.174433 L101.171659,175.284535 Z M10.9197324,177.101873 C9.2911,174.688577 7.81904118,172.298048 6.54637941,169.994569 L12.4011588,166.752289 C13.5788059,168.883007 14.9451441,171.103453 16.4640412,173.352024 L10.9197324,177.101873 Z M107.132159,183.231537 C105.547688,181.045911 103.951174,178.901801 102.382762,176.855454 L107.694218,172.781511 C109.296085,174.873391 110.930071,177.067053 112.547997,179.299553 L107.132159,183.231537 Z M17.0515265,185.409128 C15.2783647,183.190021 13.6095853,180.969575 12.0933647,178.808054 L17.5694235,174.960441 C19.00535,177.008127 20.5898206,179.114739 22.2773353,181.225368 L17.0515265,185.409128 Z M112.851776,191.375406 C111.331541,189.146925 109.796585,186.949245 108.291071,184.845312 L113.730997,180.946808 C115.264615,183.090918 116.829012,185.328774 118.37735,187.598773 L112.851776,191.375406 Z M23.7266441,193.21685 C21.8638206,191.171843 20.0545265,189.082641 18.3456,187.005493 L23.5125265,182.750753 C25.14785,184.740852 26.8835412,186.743003 28.6714235,188.703639 L23.7266441,193.21685 Z M118.359953,199.677305 C116.949453,197.491678 115.484085,195.268554 113.969203,193.022662 L119.516188,189.27683 C121.056497,191.56022 122.544615,193.820844 123.980541,196.04129 L118.359953,199.677305 Z M30.9290265,200.621463 C30.5034676,200.221033 28.2204382,198.048799 25.1184088,194.726165 L30.0083206,190.155366 C32.9698353,193.328007 35.1150265,195.368996 35.5164971,195.746659 L30.9290265,200.621463 Z M124.067526,208.201516 C122.788174,206.477924 121.514174,204.619071 120.280321,202.677184 L119.438571,201.354023 L125.076556,197.746133 L125.93035,199.088043 C127.074541,200.891988 128.256203,202.61424 129.439203,204.207926 L124.067526,208.201516 Z M130.925982,216.188695 C129.02435,214.297699 127.144129,212.172338 125.336174,209.86886 L130.600791,205.734651 C132.238791,207.821174 133.932997,209.740293 135.641924,211.4371 L130.925982,216.188695 Z M139.240438,222.951816 C136.931982,221.46259 134.652968,219.682751 132.466291,217.663189 L137.002909,212.741512 C138.908556,214.501263 140.881115,216.042719 142.865718,217.324363 L139.240438,222.951816 Z M172.970659,226.41373 L170.505629,220.18898 C174.373129,218.656899 176.741806,216.865007 176.765894,216.847597 L180.84885,222.152294 C180.725732,222.24738 177.772247,224.510682 172.970659,226.41373 L172.970659,226.41373 Z M149.13535,227.592254 C146.402674,226.764609 143.696762,225.584746 141.095232,224.084806 L144.435468,218.281914 C146.595379,219.5274 148.828894,220.5037 151.074453,221.18403 L149.13535,227.592254 Z M162.296894,228.966306 L161.721453,222.294253 C164.079424,222.092029 166.457468,221.593835 168.792688,220.814402 L170.909776,227.166379 C168.075394,228.111876 165.178115,228.717209 162.296894,228.966306 L162.296894,228.966306 Z M159.255085,229.09889 C156.573262,229.09889 153.888762,228.78551 151.27385,228.168124 L152.811482,221.651422 C155.144026,222.200507 157.574262,222.445586 159.925541,222.393356 L160.084791,229.088176 C159.810453,229.094872 159.533438,229.09889 159.255085,229.09889 L159.255085,229.09889 Z" id="Fill-24" fill="#000000" mask="url(#mask-2)"></path>
                    <path d="M322.79694,72.6330811 C320.302469,72.3518424 317.751793,72.2621138 315.296131,72.3652347 L315.019116,65.6744322 C317.80666,65.5592582 320.709293,65.6583614 323.54769,65.9784378 L322.79694,72.6330811 Z M305.995396,73.6455404 L304.467131,67.1261596 C307.247984,66.4726144 310.081028,66.0279894 312.887307,65.8029984 L313.419925,72.4777302 C310.948204,72.6759365 308.449719,73.0683314 305.995396,73.6455404 L305.995396,73.6455404 Z M332.020057,74.544165 C329.577778,73.8062482 327.103381,73.2464493 324.66244,72.8794997 L325.660763,66.2569981 C328.414851,66.6734992 331.205072,67.3042774 333.951131,68.1332619 L332.020057,74.544165 Z M297.027881,76.6105998 L294.395572,70.45549 C297.026543,69.3278568 299.72041,68.3850375 302.403572,67.6511384 L304.167366,74.1102538 C301.779954,74.7624598 299.377822,75.6048366 297.027881,76.6105998 L297.027881,76.6105998 Z M340.863116,78.0167932 C338.527896,76.8864815 336.159219,75.9128599 333.823999,75.1227131 L335.970528,68.7801109 C338.564028,69.658647 341.190984,70.7380679 343.775116,71.9875713 L340.863116,78.0167932 Z M288.596999,81.0340827 L285.056028,75.353061 C287.470204,73.8450859 289.963337,72.488444 292.465837,71.3192946 L295.293528,77.3873542 C293.037263,78.4413297 290.783675,79.6680661 288.596999,81.0340827 L288.596999,81.0340827 Z M349.194969,82.768388 C347.000263,81.3273744 344.772101,80.0162664 342.570704,78.8725624 L345.65266,72.9303905 C348.056131,74.1772154 350.482351,75.6048366 352.867087,77.1717379 L349.194969,82.768388 Z M280.849954,86.6642135 L276.558234,81.5282592 C278.712793,79.7243139 280.975749,78.0301856 283.286881,76.4940866 L286.989778,82.0706481 C284.883396,83.4728239 282.818499,85.0169583 280.849954,86.6642135 L280.849954,86.6642135 Z M357.244454,88.5337812 C355.998557,87.6405136 354.731249,86.7151043 353.446543,85.7548751 C352.557954,85.090616 351.674719,84.4544809 350.795499,83.8478089 L354.596087,78.3355304 C355.543557,78.9904148 356.495043,79.6747623 357.451881,80.3899121 C358.699116,81.3220175 359.928954,82.2206421 361.138719,83.0884644 L357.244454,88.5337812 Z M274.085175,93.2358244 L268.910219,88.9891201 C268.999881,88.8806423 271.12366,86.2999424 274.964396,82.9009719 L279.396631,87.9150561 C275.993499,90.9296671 274.10391,93.2130574 274.085175,93.2358244 L274.085175,93.2358244 Z M365.686043,94.2697114 C363.468587,92.8474471 361.188234,91.3140266 358.907881,89.7123053 L362.749954,84.2308292 C364.955366,85.7789812 367.158101,87.2601717 369.29794,88.6328844 L365.686043,94.2697114 Z M374.468881,99.5422673 C372.169793,98.2606224 369.794425,96.8557681 367.413704,95.3652031 L370.962704,89.6868599 C373.24841,91.1184988 375.522072,92.465766 377.723469,93.6925024 L374.468881,99.5422673 Z M383.647837,104.212169 C381.244366,103.11266 378.76194,101.87387 376.267469,100.53062 L379.440425,94.6353217 C381.806425,95.9089312 384.157704,97.0834376 386.42869,98.1226815 L383.647837,104.212169 Z M393.29116,108.055764 C390.779293,107.210709 388.169734,106.202267 385.536087,105.054546 L388.204528,98.9155068 C390.662866,99.9855531 393.090425,100.924355 395.421631,101.706466 L393.29116,108.055764 Z M403.461749,110.708783 C400.836131,110.237373 398.083381,109.559722 395.279778,108.695917 L397.248322,102.297067 C399.794984,103.080518 402.282763,103.693886 404.64341,104.117083 L403.461749,110.708783 Z M416.387763,111.352953 L415.694557,104.691614 C419.940778,104.249667 421.988278,103.051055 422.008351,103.039002 L425.460999,108.774932 C424.69419,109.238306 421.770146,110.791815 416.387763,111.352953 L416.387763,111.352953 Z M412.40116,111.552499 C410.22519,111.552499 407.924763,111.382416 405.565454,111.047608 L406.506234,104.417071 C409.12516,104.789378 411.705278,104.921962 413.891954,104.824198 L414.185028,111.513661 C413.61494,111.539107 413.020763,111.552499 412.40116,111.552499 L412.40116,111.552499 Z" id="Fill-25" fill="#000000" mask="url(#mask-2)"></path>
                    <path d="M417.185753,132.699104 C413.688944,132.699104 410.291165,131.602273 407.405929,129.506375 C403.863621,126.933711 401.500297,123.138328 400.7549,118.819305 L413.773253,116.569395 C413.928488,117.473377 414.423635,118.267541 415.165018,118.805913 C415.923797,119.357676 416.849856,119.579989 417.770562,119.431334 C418.692606,119.284018 419.5009,118.787163 420.050915,118.030497 C420.600929,117.272492 420.821738,116.348422 420.674532,115.424352 C420.528665,114.501621 420.030841,113.690047 419.276076,113.140962 C418.233591,112.384296 417.164341,112.42983 416.621018,112.524915 L414.363415,99.4982066 C418.855871,98.7201129 423.352341,99.766053 427.035165,102.443177 C430.647062,105.064054 433.021091,108.938452 433.720988,113.349882 C434.422224,117.761312 433.363679,122.180777 430.742076,125.795364 C428.12315,129.409951 424.251635,131.787087 419.84215,132.487506 C418.9549,132.629464 418.066312,132.699104 417.185753,132.699104" id="Fill-26" fill="#FC6060" mask="url(#mask-2)"></path>
                    <path d="M427.627601,45.1232493 C416.514896,45.1232493 407.47244,54.1710999 407.47244,65.2920815 C407.47244,76.4130631 416.514896,85.4609137 427.627601,85.4609137 C438.740307,85.4609137 447.782763,76.4130631 447.782763,65.2920815 C447.782763,54.1710999 438.740307,45.1232493 427.627601,45.1232493 M427.627601,92.589645 C412.587175,92.589645 400.350351,80.3437086 400.350351,65.2920815 C400.350351,50.2404543 412.587175,37.994518 427.627601,37.994518 C442.668028,37.994518 454.904851,50.2404543 454.904851,65.2920815 C454.904851,80.3437086 442.668028,92.589645 427.627601,92.589645" id="Fill-27" fill="#F2DF08" mask="url(#mask-2)"></path>
                    <path d="M444.418306,65.2922154 L440.855924,65.2922154 C440.855924,57.9934016 434.92085,52.0539082 427.627468,52.0539082 L427.627468,48.4902122 C436.885379,48.4902122 444.418306,56.0274092 444.418306,65.2922154" id="Fill-28" fill="#FFFFFF" mask="url(#mask-2)"></path>
                    <polygon id="Fill-29" fill="#F2DF08" mask="url(#mask-2)" points="420.593971 119.901806 410.143691 117.674663 416.466853 87.9705003 426.917132 90.1976429"></polygon>
                    <polygon id="Fill-30" fill="#F2DF08" mask="url(#mask-2)" points="304.752978 200.033407 294.452581 193.78589 321.217287 149.591238 331.517684 155.838754"></polygon>
                    <polygon id="Fill-31" fill="#000000" mask="url(#mask-2)" points="294.845085 193.561836 292.578115 208.628195 304.956791 199.885689"></polygon>
                    <polygon id="Fill-32" fill="#FFFFFF" mask="url(#mask-2)" points="257.669176 149.958991 272.416529 149.958991 272.416529 139.735295 257.669176 139.735295"></polygon>
                    <path d="M239.929663,246.045396 L236.584075,246.045396 C236.584075,231.311167 224.581443,214.182392 209.108766,214.182392 L209.108766,210.834312 C217.178325,210.834312 224.956149,214.860043 231.007649,222.168231 C236.677751,229.015724 239.929663,237.718053 239.929663,246.045396" id="Fill-33" fill="#FFFFFF" mask="url(#mask-2)"></path>
                    <path d="M89.6905368,222.304163 L61.3145956,228.511503 C55.5575074,229.77172 49.8700074,226.122313 48.6120662,220.359599 L33.7442721,152.302513 C32.4863309,146.541137 36.1330221,140.849402 41.8901103,139.590524 L70.2660515,133.381845 C76.0231397,132.122967 81.7106397,135.772374 82.9699191,141.533749 L97.836375,209.590835 C99.0943162,215.35355 95.447625,221.045285 89.6905368,222.304163" id="Fill-34" fill="#FFFFFF" mask="url(#mask-2)"></path>
                    <polygon id="Fill-35" fill="#0876F2" mask="url(#mask-2)" points="91.5037118 210.699719 54.8280353 218.723057 39.3138735 147.702251 75.98955 139.678913"></polygon>
                    <path d="M78.9201515,219.011126 C78.9201515,220.636953 77.6033279,221.954758 75.9787103,221.954758 C74.3540926,221.954758 73.0359309,220.636953 73.0359309,219.011126 C73.0359309,217.385298 74.3540926,216.067494 75.9787103,216.067494 C77.6033279,216.067494 78.9201515,217.385298 78.9201515,219.011126" id="Fill-36" fill="#0876F2" mask="url(#mask-2)"></path>
                    <polygon id="Fill-37" fill="#F2DF08" mask="url(#mask-2)" points="70.6105132 152.890703 44.9485132 158.504763 43.3680574 151.27425 69.0313956 145.66019"></polygon>
                    <polygon id="Fill-38" fill="#F2DF08" mask="url(#mask-2)" points="76.5765 180.428391 50.9145 186.042451 47.4176912 170.035952 73.0796912 164.421892"></polygon>
                    <polygon id="Fill-39" fill="#FC6060" mask="url(#mask-2)" points="77.4131647 161.149211 51.7511647 166.763271 50.1707088 159.532758 75.8340471 153.918698"></polygon>
                    <polygon id="Fill-40" fill="#FC6060" mask="url(#mask-2)" points="83.7697824 189.552176 58.1077824 195.166236 56.5273265 187.935723 82.1906647 182.321663"></polygon>
                    <polygon id="Fill-41" fill="#F2DF08" mask="url(#mask-2)" points="50.0144029 180.997966 46.6554324 178.505656 49.1458882 175.144184 52.5048588 177.636494"></polygon>
                    <polygon id="Fill-42" fill="#F2DF08" mask="url(#mask-2)" points="45.0796603 157.64511 41.7206897 155.1528 44.2111456 151.791328 47.5701162 154.283638"></polygon>
                    <polygon id="Fill-43" fill="#FC6060" mask="url(#mask-2)" points="76.5281897 160.490978 73.1692191 157.998668 75.659675 154.637196 79.0186456 157.129506"></polygon>
                    <polygon id="Fill-44" fill="#FC6060" mask="url(#mask-2)" points="83.0520868 189.11706 79.6931162 186.624749 82.1835721 183.263277 85.5425426 185.755588"></polygon>
                    <polygon id="Fill-45" fill="#0876F2" mask="url(#mask-2)" points="67.8172147 150.59901 46.8698176 155.181861 46.5218765 153.590854 67.4692735 149.008002"></polygon>
                    <polygon id="Fill-46" fill="#0876F2" mask="url(#mask-2)" points="74.6198662 158.522843 53.6724691 163.105695 53.3245279 161.514687 74.271925 156.931836"></polygon>
                    <polygon id="Fill-47" fill="#0876F2" mask="url(#mask-2)" points="71.8319206 170.017872 50.8845235 174.600724 50.5365824 173.009716 71.4839794 168.426865"></polygon>
                    <polygon id="Fill-48" fill="#0876F2" mask="url(#mask-2)" points="72.9470721 173.812318 51.999675 178.395169 51.6517338 176.804162 72.5991309 172.22131"></polygon>
                    <polygon id="Fill-49" fill="#0876F2" mask="url(#mask-2)" points="73.8392735 178.053263 52.8918765 182.636115 52.5439353 181.045107 73.4913324 176.462256"></polygon>
                    <polygon id="Fill-50" fill="#0876F2" mask="url(#mask-2)" points="80.9764838 187.204637 60.0290868 191.787488 59.6811456 190.196481 80.6285426 185.613629"></polygon>
                    <path d="M48.0692779,219.618334 C43.9903368,219.618334 40.1000868,218.146518 37.0181309,215.418503 C30.1181897,209.306248 29.4731603,198.718281 35.5795279,191.813201 C37.4276309,189.724 39.7856015,188.1196 42.3978368,187.174102 L46.8929691,199.606192 C46.3429544,199.805737 45.8665426,200.131171 45.4717632,200.575796 C44.1937485,202.020827 44.3289103,204.238595 45.7728662,205.5189 C46.471425,206.137626 47.3733956,206.451006 48.3048074,206.39074 C49.2375574,206.334493 50.0913515,205.917992 50.7109544,205.217573 C51.5634103,204.251987 51.6222926,203.184619 51.5808074,202.632856 L64.7543956,201.643163 C65.0956456,206.187177 63.6209103,210.569144 60.6018515,213.980167 C57.6456897,217.32289 53.5640721,219.314328 49.1077485,219.587531 C48.7624838,219.60762 48.4145426,219.618334 48.0692779,219.618334" id="Fill-51" fill="#FC6060" mask="url(#mask-2)"></path>
                    <polygon id="Fill-52" fill="#000000" mask="url(#mask-2)" points="239.358103 170.956808 257.424279 170.956808 257.424279 152.877177 239.358103 152.877177"></polygon>
                    <path d="M159.088074,170.125145 L177.15425,170.125145 L177.15425,152.045514 L159.088074,152.045514 L159.088074,170.125145 Z M165.77925,163.428985 L170.463074,163.428985 L170.463074,158.741674 L165.77925,158.741674 L165.77925,163.428985 Z" id="Fill-53" fill="#000000" mask="url(#mask-2)"></path>
                    <path d="M190.629209,255.622645 L188.454576,252.989716 C188.655312,252.82499 208.823856,236.517163 228.438371,252.99909 L226.242326,255.61461 C208.779694,240.944664 190.808532,255.473991 190.629209,255.622645" id="Fill-54" fill="#000000" mask="url(#mask-2)"></path>
                    <polygon id="Fill-55" fill="#F2DF08" mask="url(#mask-2)" points="76.0264853 291.948373 347.173029 291.948373 347.173029 245.786389 76.0264853 245.786389"></polygon>
                    <polygon id="Fill-56" fill="#0876F2" mask="url(#mask-2)" points="328.107191 251.645529 369.779838 251.645529 369.779838 248.967065 328.107191 248.967065"></polygon>
                    <polygon id="Fill-57" fill="#0876F2" mask="url(#mask-2)" points="328.107191 257.602432 369.779838 257.602432 369.779838 254.923968 328.107191 254.923968"></polygon>
                    <polygon id="Fill-58" fill="#0876F2" mask="url(#mask-2)" points="328.107191 263.559335 369.779838 263.559335 369.779838 260.880872 328.107191 260.880872"></polygon>
                    <polygon id="Fill-59" fill="#0876F2" mask="url(#mask-2)" points="328.107191 269.517578 369.779838 269.517578 369.779838 266.839114 328.107191 266.839114"></polygon>
                    <polygon id="Fill-60" fill="#0876F2" mask="url(#mask-2)" points="328.107191 275.474481 369.779838 275.474481 369.779838 272.796018 328.107191 272.796018"></polygon>
                    <polygon id="Fill-61" fill="#0876F2" mask="url(#mask-2)" points="328.107191 281.830476 369.779838 281.830476 369.779838 279.152012 328.107191 279.152012"></polygon>
                    <polygon id="Fill-62" fill="#0876F2" mask="url(#mask-2)" points="328.107191 287.787379 369.779838 287.787379 369.779838 285.108916 328.107191 285.108916"></polygon>
                    <polygon id="Fill-63" fill="#0876F2" mask="url(#mask-2)" points="328.107191 293.745622 369.779838 293.745622 369.779838 291.067158 328.107191 291.067158"></polygon>
                    <polygon id="Fill-64" fill="#0876F2" mask="url(#mask-2)" points="328.107191 299.702525 369.779838 299.702525 369.779838 297.024062 328.107191 297.024062"></polygon>
                    <polygon id="Fill-65" fill="#0876F2" mask="url(#mask-2)" points="328.107191 305.660768 369.779838 305.660768 369.779838 302.982304 328.107191 302.982304"></polygon>
                    <polygon id="Fill-66" fill="#0876F2" mask="url(#mask-2)" points="56.0720588 251.496874 97.7447059 251.496874 97.7447059 249.11438 56.0720588 249.11438"></polygon>
                    <polygon id="Fill-67" fill="#0876F2" mask="url(#mask-2)" points="56.0720588 257.455116 97.7447059 257.455116 97.7447059 255.072623 56.0720588 255.072623"></polygon>
                    <polygon id="Fill-68" fill="#0876F2" mask="url(#mask-2)" points="56.0720588 263.41202 97.7447059 263.41202 97.7447059 261.029526 56.0720588 261.029526"></polygon>
                    <polygon id="Fill-69" fill="#0876F2" mask="url(#mask-2)" points="56.0720588 269.370263 97.7447059 269.370263 97.7447059 266.987769 56.0720588 266.987769"></polygon>
                    <polygon id="Fill-70" fill="#0876F2" mask="url(#mask-2)" points="56.0720588 275.327166 97.7447059 275.327166 97.7447059 272.944672 56.0720588 272.944672"></polygon>
                    <polygon id="Fill-71" fill="#0876F2" mask="url(#mask-2)" points="56.0720588 281.681821 97.7447059 281.681821 97.7447059 279.299328 56.0720588 279.299328"></polygon>
                    <polygon id="Fill-72" fill="#0876F2" mask="url(#mask-2)" points="56.0720588 287.640064 97.7447059 287.640064 97.7447059 285.25757 56.0720588 285.25757"></polygon>
                    <polygon id="Fill-73" fill="#0876F2" mask="url(#mask-2)" points="56.0720588 293.596967 97.7447059 293.596967 97.7447059 291.214474 56.0720588 291.214474"></polygon>
                    <polygon id="Fill-74" fill="#0876F2" mask="url(#mask-2)" points="56.0720588 299.55521 97.7447059 299.55521 97.7447059 297.172716 56.0720588 297.172716"></polygon>
                    <polygon id="Fill-75" fill="#0876F2" mask="url(#mask-2)" points="56.0720588 305.513453 97.7447059 305.513453 97.7447059 303.130959 56.0720588 303.130959"></polygon>
                    <path d="M183.130675,235.443903 C170.048087,235.443903 159.39841,245.847056 158.978204,258.837606 L207.283146,258.837606 C206.86294,245.847056 196.213263,235.443903 183.130675,235.443903" id="Fill-76" fill="#FFFFFF" mask="url(#mask-2)"></path>
                    <polygon id="Fill-77" fill="#FFFFFF" mask="url(#mask-2)" points="158.977 279.769398 260.187735 279.769398 260.187735 256.344893 158.977 256.344893"></polygon>
                    <path d="M236.034863,235.443903 C222.952275,235.443903 212.302599,245.847056 211.882393,258.837606 L260.187334,258.837606 C259.767128,245.847056 249.117451,235.443903 236.034863,235.443903" id="Fill-78" fill="#FFFFFF" mask="url(#mask-2)"></path>
                    <path d="M207.283815,279.768728 C206.862271,266.778179 196.213932,256.375026 183.131344,256.375026 C170.047418,256.375026 159.399079,266.778179 158.977535,279.768728" id="Fill-79" fill="#F2DF08" mask="url(#mask-2)"></path>
                    <path d="M236.034863,256.375026 C222.952275,256.375026 212.302599,266.778179 211.882393,279.768728 L260.187334,279.768728 C259.767128,266.778179 249.117451,256.375026 236.034863,256.375026" id="Fill-80" fill="#F2DF08" mask="url(#mask-2)"></path>
                    <polygon id="Fill-81" fill="#000000" mask="url(#mask-2)" points="207.810544 279.422537 211.156132 279.422537 211.156132 256.331501 207.810544 256.331501"></polygon>
                    <polygon id="Fill-82" fill="#FFFFFF" mask="url(#mask-2)" points="40.7978426 185.352881 44.9798279 204.771743 49.1618132 199.917027 43.4743132 182.674417"></polygon>
                </g>
            </g>
        </g>
    </g>
</svg>