<?xml version="1.0" encoding="UTF-8" standalone="no"?>
<svg width="194px" height="209px" viewBox="0 0 194 209" version="1.1" xmlns="http://www.w3.org/2000/svg" xmlns:xlink="http://www.w3.org/1999/xlink">
    <!-- Generator: Sketch 40 (33762) - http://www.bohemiancoding.com/sketch -->
    <title>Page 1</title>
    <desc>Created with Sketch.</desc>
    <defs>
        <polygon id="path-1" points="0 208.858696 193.015165 208.858696 193.015165 0.867391304 0 0.867391304"></polygon>
    </defs>
    <g id="Page-1" stroke="none" stroke-width="1" fill="none" fill-rule="evenodd">
        <g id="Artboard" transform="translate(-930.000000, -513.000000)">
            <g id="Page-1" transform="translate(930.000000, 512.000000)">
                <polygon id="Fill-1" fill="#F2DF08" points="57.6190271 86.3534837 45.8135565 209.132723 142.616133 209.132723 130.811804 86.3534837"></polygon>
                <polygon id="Fill-2" fill="#FFFFFF" points="135.26068 197.196163 124.922762 92.567087 97.21728 92.567087 97.21728 89.66475 127.553174 89.66475 138.148998 196.910837"></polygon>
                <g id="Group-33" transform="translate(0.000000, 0.273913)">
                    <path d="M39.1484012,145.84888 C39.1484012,135.389967 50.1299424,126.912359 63.6768482,126.912359 C77.2248953,126.912359 88.2064365,135.389967 88.2064365,145.84888 L39.1484012,145.84888 L39.1484012,145.84888 Z" id="Fill-3" fill="#FFFFFF"></path>
                    <path d="M90.1329706,145.84888 L86.2792176,145.84888 C86.2792176,136.469641 76.1398647,128.840022 63.6770765,128.840022 C51.2142882,128.840022 41.0760765,136.469641 41.0760765,145.84888 L37.2223235,145.84888 C37.2223235,134.344533 49.0894176,124.985837 63.6770765,124.985837 C78.2658765,124.985837 90.1329706,134.344533 90.1329706,145.84888" id="Fill-5" fill="#000000"></path>
                    <path d="M102.988324,145.84888 C102.988324,134.9985 113.0535,126.202467 127.108229,126.202467 C141.162959,126.202467 152.556465,134.9985 152.556465,145.84888" id="Fill-7" fill="#FFFFFF"></path>
                    <path d="M154.483455,145.84888 L150.629702,145.84888 C150.629702,136.078174 140.078385,128.131272 127.108914,128.131272 C114.456691,128.131272 104.914173,135.747196 104.914173,145.84888 L101.06042,145.84888 C101.06042,133.550185 112.258785,124.275946 127.108914,124.275946 C142.203255,124.275946 154.483455,133.953065 154.483455,145.84888" id="Fill-9" fill="#000000"></path>
                    <path d="M43.9669047,151.631755 C43.9669047,141.172842 52.0578459,132.695234 65.6047518,132.695234 C79.1516576,132.695234 90.13434,141.172842 90.13434,151.631755" id="Fill-11" fill="#F2DF08"></path>
                    <path d="M91.5794118,151.631185 L88.6888118,151.631185 C88.6888118,141.987163 78.3337765,134.140696 65.6039529,134.140696 C53.7151765,134.140696 45.4119765,141.333196 45.4119765,151.631185 L42.5213765,151.631185 C42.5213765,139.63037 52.0125412,131.249772 65.6039529,131.249772 C79.9268588,131.249772 91.5794118,140.39162 91.5794118,151.631185" id="Fill-13" fill="#000000"></path>
                    <path d="M100.825338,151.631755 C100.825338,141.172842 111.806879,132.695234 125.353785,132.695234 C138.901832,132.695234 146.992773,141.172842 146.992773,151.631755" id="Fill-15" fill="#F2DF08"></path>
                    <path d="M148.437731,151.631185 L145.547131,151.631185 C145.547131,141.333196 137.242789,134.140696 125.354013,134.140696 C112.626472,134.140696 102.271436,141.987163 102.271436,151.631185 L99.3808365,151.631185 C99.3808365,140.39162 111.032248,131.249772 125.354013,131.249772 C138.946566,131.249772 148.437731,139.63037 148.437731,151.631185" id="Fill-17" fill="#000000"></path>
                    <mask id="mask-2" fill="white">
                        <use xlink:href="#path-1"></use>
                    </mask>
                    <g id="Clip-20"></g>
                    <polygon id="Fill-19" fill="#FFFFFF" mask="url(#mask-2)" points="90.4644824 30.7889674 94.8169294 30.7889674 94.8169294 0.867391304 90.4644824 0.867391304"></polygon>
                    <polygon id="Fill-21" fill="#FFFFFF" mask="url(#mask-2)" points="42.8922588 46.6323261 23.9407412 27.6786848 27.0184941 24.5994457 45.9700118 43.5542283"></polygon>
                    <polygon id="Fill-22" fill="#FFFFFF" mask="url(#mask-2)" points="142.835467 46.6323261 139.757714 43.5542283 158.709232 24.5994457 161.786985 27.6786848"></polygon>
                    <polygon id="Fill-23" fill="#000000" mask="url(#mask-2)" points="57.0999059 133.986848 71.0302471 133.986848 71.0302471 126.149511 57.0999059 126.149511"></polygon>
                    <polygon id="Fill-24" fill="#000000" mask="url(#mask-2)" points="117.031071 133.986848 130.961412 133.986848 130.961412 126.149511 117.031071 126.149511"></polygon>
                    <path d="M96.3592294,178.875375 C47.8774882,178.875375 44.7198529,163.135647 44.5201471,161.340375 L47.1208882,161.050484 L49.7067941,160.66244 C49.7330412,160.791408 52.7149353,173.641353 96.3592294,173.641353 C139.575582,173.641353 141.274794,161.739832 141.287347,161.619995 C141.278218,161.698745 141.282782,161.740973 141.282782,161.740973 L146.516218,161.740973 C146.516218,163.494016 145.109147,178.875375 96.3592294,178.875375" id="Fill-25" fill="#000000" mask="url(#mask-2)"></path>
                    <polygon id="Fill-26" fill="#000000" mask="url(#mask-2)" points="94.2976941 184.300109 97.1323765 184.300109 97.1323765 176.258478 94.2976941 176.258478"></polygon>
                    <polygon id="Fill-27" fill="#000000" mask="url(#mask-2)" points="69.5444353 182.882609 72.3791176 182.882609 72.3791176 175.085217 69.5444353 175.085217"></polygon>
                    <polygon id="Fill-28" fill="#000000" mask="url(#mask-2)" points="119.157082 182.882609 121.991765 182.882609 121.991765 176.502717 119.157082 176.502717"></polygon>
                    <polygon id="Fill-29" fill="#000000" mask="url(#mask-2)" points="64.0302706 97.5541304 125.063812 97.5541304 125.063812 93.7889674 64.0302706 93.7889674"></polygon>
                    <path d="M21.4484118,71.9227174 L17.2580118,78.7066304 L8.67864706,78.7066304 L4.48938824,71.9227174 L10.5239294,71.9227174 L12.6693412,76.3121739 L13.2684588,76.3121739 L15.4138706,71.9227174 L21.4484118,71.9227174 Z M12.9683294,112.030435 C14.2327529,112.030435 15.2700824,111.838696 16.0848824,111.455217 C16.9008235,111.07288 17.5318941,110.559293 17.9803765,109.909891 C18.43,109.260489 18.7381176,108.512935 18.9035882,107.666087 C19.0702,106.816957 19.1535059,105.942717 19.1535059,105.046793 L19.1535059,104.148587 L25.7380941,104.148587 L25.7380941,105.046793 C25.7380941,109.204565 24.6482706,112.4025 22.4697647,114.648587 C20.2912588,116.893533 17.1244941,118.016576 12.9683294,118.016576 C8.97877647,118.016576 5.81885882,116.80337 3.492,114.374674 C1.16285882,111.94712 0,108.404511 0,103.747989 L0,95.9677174 C0,93.7398913 0.298988235,91.7357609 0.898105882,89.9553261 C1.49608235,88.1783152 2.35995294,86.6797826 3.492,85.4665761 C4.62176471,84.2522283 5.98547059,83.3220652 7.58197647,82.672663 C9.17734118,82.0232609 10.9735529,81.7002717 12.9683294,81.7002717 C15.0292941,81.7002717 16.8597412,81.9992935 18.4551059,82.5984783 C20.0516118,83.1965217 21.3902118,84.0604891 22.4697647,85.1903804 C23.5504588,86.3225543 24.3664,87.686413 24.9141647,89.2830978 C25.4642118,90.8775 25.7380941,92.6750543 25.7380941,94.6700543 L25.7380941,95.5682609 L19.1535059,95.5682609 L19.1535059,94.6700543 C19.1535059,93.8380435 19.0542235,93.0071739 18.8545176,92.1763043 C18.6548118,91.3454348 18.3215882,90.5967391 17.8571294,89.9302174 C17.3903882,89.264837 16.7593176,88.7261413 15.9616353,88.3107065 C15.1639529,87.8952717 14.1654235,87.686413 12.9683294,87.686413 C11.8716588,87.686413 10.9244824,87.8952717 10.1245176,88.3107065 C9.32683529,88.7261413 8.66267059,89.2899457 8.12974118,90.0066848 C7.59795294,90.7211413 7.20767059,91.5520109 6.95775294,92.4992935 C6.70897647,93.4477174 6.58458824,94.4383696 6.58458824,95.4689674 L6.58458824,104.246739 C6.58458824,105.378913 6.69984706,106.4175 6.93264706,107.364783 C7.16430588,108.313207 7.53290588,109.137228 8.0316,109.835707 C8.53029412,110.534185 9.18532941,111.07288 10.0012706,111.455217 C10.8160706,111.838696 11.8043294,112.030435 12.9683294,112.030435 L12.9683294,112.030435 Z" id="Fill-30" fill="#000000" mask="url(#mask-2)"></path>
                    <path d="M91.1757776,14.359663 L86.9853776,21.147 L78.4014482,21.147 L74.2087659,14.359663 L80.2478718,14.359663 L82.3944247,18.7514022 L82.9924012,18.7514022 L85.1378129,14.359663 L91.1757776,14.359663 Z M70.0674365,24.8414022 L94.9188365,24.8414022 L94.9188365,35.6210217 L75.1570835,52.5899348 L75.1570835,53.4892826 L95.5190953,53.4892826 L95.5190953,59.7778696 L69.7684482,59.7778696 L69.7684482,48.9971087 L89.5313424,32.0281957 L89.5313424,31.1288478 L70.0674365,31.1288478 L70.0674365,24.8414022 Z" id="Fill-31" fill="#000000" mask="url(#mask-2)"></path>
                    <path d="M188.199514,54.8031522 L184.028514,61.5551087 L175.489091,61.5551087 L171.320373,54.8031522 L177.326385,54.8031522 L179.461526,59.1720652 L180.058361,59.1720652 L182.193502,54.8031522 L188.199514,54.8031522 Z M185.865808,75.8545109 C185.865808,74.4655435 185.327173,73.2557609 184.252185,72.2297283 C183.176055,71.2036957 181.662855,70.6923913 179.709161,70.6923913 C178.055596,70.6923913 176.747808,71.0313587 175.788079,71.7092935 C174.827208,72.3883696 174.349055,73.3071196 174.349055,74.4655435 C174.349055,75.060163 174.463173,75.5988587 174.695973,76.0770652 C174.925349,76.5586957 175.332749,76.9901087 175.911326,77.370163 C176.491044,77.7502174 177.253349,78.0891848 178.195961,78.3870652 C179.139714,78.6838043 180.337949,78.9657065 181.795232,79.2316304 C185.434444,79.893587 188.215491,81.0029348 190.134949,82.5585326 C192.053267,84.1141304 193.014138,86.415 193.014138,89.46 L193.014138,90.0546196 C193.014138,91.6775543 192.724279,93.1418478 192.144561,94.4497826 C191.565985,95.7577174 190.729502,96.873913 189.639679,97.8017935 C188.546432,98.7273913 187.222667,99.4395652 185.667244,99.9360326 C184.110679,100.4325 182.356691,100.681304 180.404138,100.681304 C178.120644,100.681304 176.111032,100.358315 174.374161,99.712337 C172.635008,99.0663587 171.185714,98.1727174 170.028561,97.0325543 C168.870267,95.8901087 167.993844,94.5479348 167.397008,93.0105978 C166.802455,91.469837 166.504608,89.7909783 166.504608,87.9694565 L166.504608,86.4800543 L173.057244,86.4800543 L173.057244,87.6715761 C173.057244,89.7578804 173.660926,91.4207609 174.869432,92.6613587 C176.076796,93.9019565 177.955173,94.5239674 180.50342,94.5239674 C182.490208,94.5239674 183.961185,94.094837 184.922055,93.2342935 C185.881785,92.3726087 186.36222,91.3465761 186.36222,90.1550543 C186.36222,89.5923913 186.264079,89.0559783 186.064373,88.54125 C185.865808,88.0265217 185.518891,87.5642935 185.021338,87.1511413 C184.524926,86.7368478 183.847067,86.3636413 182.98662,86.032663 C182.126173,85.7016848 181.032926,85.4220652 179.709161,85.1903804 C177.955173,84.8925 176.349538,84.5033152 174.894538,84.0228261 C173.437255,83.542337 172.171691,82.9054891 171.096702,82.1111413 C170.021714,81.3156522 169.185232,80.3227174 168.588396,79.1311957 C167.993844,77.9396739 167.695996,76.4845109 167.695996,74.7634239 L167.695996,74.4655435 C167.695996,73.0411957 167.984714,71.726413 168.563291,70.5177717 C169.143008,69.3102717 169.954385,68.2591304 170.996279,67.3654891 C172.039314,66.4707065 173.295749,65.7756522 174.769008,65.2791848 C176.242267,64.7827174 177.890126,64.5350543 179.709161,64.5350543 C181.762138,64.5350543 183.581173,64.826087 185.170832,65.4047283 C186.760491,65.9833696 188.092244,66.768587 189.167232,67.7603804 C190.24222,68.7555978 191.053596,69.8957609 191.599079,71.1877174 C192.144561,72.4785326 192.419585,73.8378261 192.419585,75.25875 L192.419585,77.0483152 L185.865808,77.0483152 L185.865808,75.8545109 Z" id="Fill-32" fill="#000000" mask="url(#mask-2)"></path>
                </g>
            </g>
        </g>
    </g>
</svg>