<?xml version="1.0" encoding="UTF-8" standalone="no"?>
<svg width="225px" height="225px" viewBox="0 0 225 225" version="1.1" xmlns="http://www.w3.org/2000/svg" xmlns:xlink="http://www.w3.org/1999/xlink">
    <!-- Generator: Sketch 40 (33762) - http://www.bohemiancoding.com/sketch -->
    <title>Page 1</title>
    <desc>Created with Sketch.</desc>
    <defs></defs>
    <g id="Page-1" stroke="none" stroke-width="1" fill="none" fill-rule="evenodd">
        <g id="Artboard" transform="translate(-1036.000000, -836.000000)">
            <g id="Page-1" transform="translate(1035.000000, 836.000000)">
                <polygon id="Fill-1" fill="#B5CE97" points="1 225 226 225 226 0 1 0"></polygon>
                <polygon id="Fill-2" fill="#B5CE97" points="0.999 225.001 226 225.001 226 0 0.999 0"></polygon>
                <polygon id="Fill-3" fill="#B5CE97" points="0.999 225.001 226.001 225.001 226.001 0 0.999 0"></polygon>
                <polygon id="Fill-4" fill="#231F1F" points="52.224 159.716 171.642 159.716 171.642 70.705 52.224 70.705"></polygon>
                <path d="M53.869,158.071 L169.997,158.071 L169.997,72.35 L53.869,72.35 L53.869,158.071 Z M50.579,161.361 L173.287,161.361 L173.287,69.06 L50.579,69.06 L50.579,161.361 Z" id="Fill-5" fill="#231F1F"></path>
                <g id="Group-22" transform="translate(50.000000, 28.000000)">
                    <path d="M118.9524,44.5759 C118.9524,66.4329 93.4624,84.1519 62.0184,84.1519 C30.5744,84.1519 5.0844,66.4329 5.0844,44.5759 C5.0844,22.7189 30.5744,4.9999 62.0184,4.9999 C93.4624,4.9999 118.9524,22.7189 118.9524,44.5759" id="Fill-6" fill="#FFFFFF"></path>
                    <path d="M62.0181,9.4009 C33.0511,9.4009 9.4851,25.1809 9.4851,44.5759 C9.4851,63.9719 33.0511,79.7509 62.0181,79.7509 C90.9851,79.7509 114.5511,63.9719 114.5511,44.5759 C114.5511,25.1809 90.9851,9.4009 62.0181,9.4009 M62.0181,88.5529 C28.1981,88.5529 0.6831,68.8249 0.6831,44.5759 C0.6831,20.3269 28.1981,0.5989 62.0181,0.5989 C95.8381,0.5989 123.3531,20.3269 123.3531,44.5759 C123.3531,68.8249 95.8381,88.5529 62.0181,88.5529" id="Fill-8" fill="#231F1F"></path>
                    <path d="M118.9524,128.1936 C118.9524,150.0506 93.4624,167.7696 62.0184,167.7696 C30.5744,167.7696 5.0844,150.0506 5.0844,128.1936 C5.0844,106.3366 30.5744,88.6176 62.0184,88.6176 C93.4624,88.6176 118.9524,106.3366 118.9524,128.1936" id="Fill-10" fill="#231F1F"></path>
                    <path d="M62.0181,93.0186 C33.0511,93.0186 9.4851,108.7976 9.4851,128.1936 C9.4851,147.5886 33.0511,163.3686 62.0181,163.3686 C90.9851,163.3686 114.5511,147.5886 114.5511,128.1936 C114.5511,108.7976 90.9851,93.0186 62.0181,93.0186 M62.0181,172.1706 C28.1981,172.1706 0.6831,152.4426 0.6831,128.1936 C0.6831,103.9446 28.1981,84.2166 62.0181,84.2166 C95.8381,84.2166 123.3531,103.9446 123.3531,128.1936 C123.3531,152.4426 95.8381,172.1706 62.0181,172.1706" id="Fill-12" fill="#231F1F"></path>
                    <path d="M60.9935,144.8865 C53.6245,144.8865 47.6315,139.8615 47.6315,133.6845 C47.6315,132.4125 48.6615,131.3825 49.9335,131.3825 C51.2055,131.3825 52.2355,132.4125 52.2355,133.6845 C52.2355,137.3225 56.1655,140.2825 60.9935,140.2825 C65.8215,140.2825 69.7505,137.3225 69.7505,133.6845 C69.7505,132.4125 70.7805,131.3825 72.0525,131.3825 C73.3245,131.3825 74.3545,132.4125 74.3545,133.6845 C74.3545,139.8615 68.3605,144.8865 60.9935,144.8865" id="Fill-14" fill="#FFFFFF"></path>
                    <path d="M41.1894,122.5151 C33.8204,122.5151 27.8274,117.4901 27.8274,111.3131 C27.8274,110.0411 28.8574,109.0111 30.1294,109.0111 C31.4014,109.0111 32.4314,110.0411 32.4314,111.3131 C32.4314,114.9511 36.3614,117.9111 41.1894,117.9111 C46.0174,117.9111 49.9464,114.9511 49.9464,111.3131 C49.9464,110.0411 50.9764,109.0111 52.2484,109.0111 C53.5204,109.0111 54.5504,110.0411 54.5504,111.3131 C54.5504,117.4901 48.5564,122.5151 41.1894,122.5151" id="Fill-16" fill="#FFFFFF"></path>
                    <path d="M82.2646,122.5151 C74.8956,122.5151 68.9026,117.4901 68.9026,111.3131 C68.9026,110.0411 69.9326,109.0111 71.2046,109.0111 C72.4766,109.0111 73.5066,110.0411 73.5066,111.3131 C73.5066,114.9511 77.4366,117.9111 82.2646,117.9111 C87.0926,117.9111 91.0216,114.9511 91.0216,111.3131 C91.0216,110.0411 92.0516,109.0111 93.3236,109.0111 C94.5956,109.0111 95.6256,110.0411 95.6256,111.3131 C95.6256,117.4901 89.6316,122.5151 82.2646,122.5151" id="Fill-18" fill="#FFFFFF"></path>
                    <path d="M64.8529,70.6526 C64.6829,70.6676 64.5119,70.6816 64.3419,70.6966 C64.1449,70.6006 63.9539,70.4936 63.7489,70.4096 C58.3999,68.2376 53.2219,65.8246 48.3969,62.9246 C42.5829,59.4296 37.3859,55.4276 33.7279,50.1856 C32.3319,48.1856 31.2769,46.0576 30.7609,43.7486 C30.6299,43.1596 30.4839,42.5746 30.3439,41.9876 C30.3079,41.5606 30.2709,41.1336 30.2339,40.7056 C30.2779,40.1396 30.3079,39.5716 30.3679,39.0056 C30.8149,34.7816 32.9139,31.2256 36.8689,28.4716 C40.5209,25.9286 44.6989,24.7446 49.3849,24.9616 C53.7819,25.1656 57.4759,26.4956 60.2049,29.4096 C60.5059,29.7316 60.7749,30.0756 61.0589,30.4096 C61.6209,29.6006 62.0909,28.8026 62.6909,28.0806 C65.3689,24.8606 69.2109,23.3036 73.6419,22.6916 C77.1149,22.2116 80.4489,22.6346 83.5619,23.8976 C89.0849,26.1366 92.2499,29.8936 93.1289,34.9856 C93.8219,38.9936 92.7579,42.8436 90.7849,46.5576 C88.3779,51.0866 84.9299,55.0436 80.9459,58.6976 C76.2809,62.9756 71.0369,66.7036 65.5059,70.1566 C65.2719,70.3026 65.0699,70.4866 64.8529,70.6526" id="Fill-20" fill="#F0643E"></path>
                </g>
            </g>
        </g>
    </g>
</svg>