<?xml version="1.0" encoding="UTF-8" standalone="no"?>
<svg width="395px" height="314px" viewBox="0 0 395 314" version="1.1" xmlns="http://www.w3.org/2000/svg" xmlns:xlink="http://www.w3.org/1999/xlink">
    <!-- Generator: Sketch 40 (33762) - http://www.bohemiancoding.com/sketch -->
    <title>Page 1</title>
    <desc>Created with Sketch.</desc>
    <defs>
        <polygon id="path-1" points="0 313.871429 394.607257 313.871429 394.607257 0.0507 0 0.0507"></polygon>
    </defs>
    <g id="Page-1" stroke="none" stroke-width="1" fill="none" fill-rule="evenodd">
        <g id="Artboard" transform="translate(-1181.000000, -380.000000)">
            <g id="Page-1" transform="translate(1181.000000, 380.000000)">
                <polygon id="Fill-1" fill="#FC6060" points="242.346043 111.7409 260.000286 111.7409 260.000286 86.3548143 242.346043 86.3548143"></polygon>
                <g id="Group-152" transform="translate(0.000000, 0.077871)">
                    <path d="M254.432591,108.968226 C254.432591,139.808697 228.302777,157.153711 196.070777,157.153711 C163.837649,157.153711 137.707834,139.808697 137.707834,108.968226 C137.707834,78.1277543 163.837649,53.12764 196.070777,53.12764 C228.302777,53.12764 254.432591,78.1277543 254.432591,108.968226 L254.432591,108.968226 Z" id="Fill-2" fill="#FC6060"></path>
                    <path d="M251.30769,108.26648 L248.752604,108.26648 C248.752604,80.7304657 226.084119,58.3271943 198.221947,58.3271943 L198.221947,55.7721086 C227.492576,55.7721086 251.30769,79.3220086 251.30769,108.26648" id="Fill-4" fill="#FFFFFF"></path>
                    <mask id="mask-2" fill="white">
                        <use xlink:href="#path-1"></use>
                    </mask>
                    <g id="Clip-7"></g>
                    <polygon id="Fill-6" fill="#FC6060" mask="url(#mask-2)" points="131.509043 111.663029 149.163286 111.663029 149.163286 86.2769429 131.509043 86.2769429"></polygon>
                    <polygon id="Fill-8" fill="#FFFFFF" mask="url(#mask-2)" points="199.682657 220.9742 259.976586 220.9742 259.976586 183.162543 199.682657 183.162543"></polygon>
                    <polygon id="Fill-9" fill="#000000" mask="url(#mask-2)" points="258.991681 222.204794 229.335081 198.479966 200.686296 222.187866 198.678567 219.761437 229.301224 194.417109 260.95991 219.744509"></polygon>
                    <polyline id="Fill-10" fill="#FFFFFF" mask="url(#mask-2)" points="199.682431 184.184916 229.318717 209.733516 259.97636 183.16243"></polyline>
                    <polygon id="Fill-11" fill="#000000" mask="url(#mask-2)" points="229.32041 211.815053 198.653739 185.378267 200.709996 182.991339 229.315896 207.651753 258.944281 181.973367 261.00731 184.353524"></polygon>
                    <polygon id="Fill-12" fill="#F2DF08" mask="url(#mask-2)" points="14.0112143 313.871429 380.883829 313.871429 380.883829 265.637414 14.0112143 265.637414"></polygon>
                    <polygon id="Fill-13" fill="#0876F2" mask="url(#mask-2)" points="0 269.612243 31.8223286 269.612243 31.8223286 267.794114 0 267.794114"></polygon>
                    <polygon id="Fill-14" fill="#0876F2" mask="url(#mask-2)" points="0 274.159257 31.8223286 274.159257 31.8223286 272.341129 0 272.341129"></polygon>
                    <polygon id="Fill-15" fill="#0876F2" mask="url(#mask-2)" points="0 278.704014 31.8223286 278.704014 31.8223286 276.885886 0 276.885886"></polygon>
                    <polygon id="Fill-16" fill="#0876F2" mask="url(#mask-2)" points="0 283.2499 31.8223286 283.2499 31.8223286 281.431771 0 281.431771"></polygon>
                    <polygon id="Fill-17" fill="#0876F2" mask="url(#mask-2)" points="0 287.796914 31.8223286 287.796914 31.8223286 285.978786 0 285.978786"></polygon>
                    <polygon id="Fill-18" fill="#0876F2" mask="url(#mask-2)" points="0 292.645257 31.8223286 292.645257 31.8223286 290.827129 0 290.827129"></polygon>
                    <polygon id="Fill-19" fill="#0876F2" mask="url(#mask-2)" points="0 297.192271 31.8223286 297.192271 31.8223286 295.374143 0 295.374143"></polygon>
                    <polygon id="Fill-20" fill="#0876F2" mask="url(#mask-2)" points="0 301.738157 31.8223286 301.738157 31.8223286 299.920029 0 299.920029"></polygon>
                    <polygon id="Fill-21" fill="#0876F2" mask="url(#mask-2)" points="0 306.284043 31.8223286 306.284043 31.8223286 304.465914 0 304.465914"></polygon>
                    <polygon id="Fill-22" fill="#0876F2" mask="url(#mask-2)" points="0 310.829929 31.8223286 310.829929 31.8223286 309.0118 0 309.0118"></polygon>
                    <polygon id="Fill-23" fill="#0876F2" mask="url(#mask-2)" points="362.784929 269.612243 394.607257 269.612243 394.607257 267.794114 362.784929 267.794114"></polygon>
                    <polygon id="Fill-24" fill="#0876F2" mask="url(#mask-2)" points="362.784929 274.159257 394.607257 274.159257 394.607257 272.341129 362.784929 272.341129"></polygon>
                    <polygon id="Fill-25" fill="#0876F2" mask="url(#mask-2)" points="362.784929 278.704014 394.607257 278.704014 394.607257 276.885886 362.784929 276.885886"></polygon>
                    <polygon id="Fill-26" fill="#0876F2" mask="url(#mask-2)" points="362.784929 283.2499 394.607257 283.2499 394.607257 281.431771 362.784929 281.431771"></polygon>
                    <polygon id="Fill-27" fill="#0876F2" mask="url(#mask-2)" points="362.784929 287.796914 394.607257 287.796914 394.607257 285.978786 362.784929 285.978786"></polygon>
                    <polygon id="Fill-28" fill="#0876F2" mask="url(#mask-2)" points="362.784929 292.645257 394.607257 292.645257 394.607257 290.827129 362.784929 290.827129"></polygon>
                    <polygon id="Fill-29" fill="#0876F2" mask="url(#mask-2)" points="362.784929 297.192271 394.607257 297.192271 394.607257 295.374143 362.784929 295.374143"></polygon>
                    <polygon id="Fill-30" fill="#0876F2" mask="url(#mask-2)" points="362.784929 301.738157 394.607257 301.738157 394.607257 299.920029 362.784929 299.920029"></polygon>
                    <polygon id="Fill-31" fill="#0876F2" mask="url(#mask-2)" points="362.784929 306.284043 394.607257 306.284043 394.607257 304.465914 362.784929 304.465914"></polygon>
                    <polygon id="Fill-32" fill="#0876F2" mask="url(#mask-2)" points="362.784929 310.829929 394.607257 310.829929 394.607257 309.0118 362.784929 309.0118"></polygon>
                    <polygon id="Fill-33" fill="#FFFFFF" mask="url(#mask-2)" points="144.054243 222.120829 181.8659 222.120829 181.8659 161.8269 144.054243 161.8269"></polygon>
                    <polygon id="Fill-34" fill="#000000" mask="url(#mask-2)" points="180.651896 223.125031 155.307567 192.501246 180.634967 160.84256 183.095253 162.811917 159.370424 192.468517 183.078324 221.117303"></polygon>
                    <polyline id="Fill-35" fill="#FFFFFF" mask="url(#mask-2)" points="145.075826 222.120716 170.624426 192.48443 145.075826 161.826787"></polyline>
                    <polygon id="Fill-36" fill="#000000" mask="url(#mask-2)" points="146.269064 223.149296 143.882136 221.093039 168.55835 192.466824 143.865207 162.836181 146.285993 160.819424 172.688921 192.502939"></polygon>
                    <path d="M223.466171,189.050074 C223.466171,203.008246 212.151114,203.846774 198.192943,203.846774 C184.234771,203.846774 172.919714,203.008246 172.919714,189.050074 C172.919714,175.091903 184.234771,159.993874 198.192943,159.993874 C212.151114,159.993874 223.466171,175.091903 223.466171,189.050074" id="Fill-37" fill="#FC6060" mask="url(#mask-2)"></path>
                    <path d="M190.090929,174.309351 C190.090929,175.397294 189.209514,176.278709 188.121571,176.278709 C187.034757,176.278709 186.153343,175.397294 186.153343,174.309351 C186.153343,173.221409 187.034757,172.339994 188.121571,172.339994 C189.209514,172.339994 190.090929,173.221409 190.090929,174.309351" id="Fill-38" fill="#000000" mask="url(#mask-2)"></path>
                    <path d="M209.42663,174.309351 C209.42663,175.397294 208.545216,176.278709 207.457273,176.278709 C206.370459,176.278709 205.489044,175.397294 205.489044,174.309351 C205.489044,173.221409 206.370459,172.339994 207.457273,172.339994 C208.545216,172.339994 209.42663,173.221409 209.42663,174.309351" id="Fill-39" fill="#000000" mask="url(#mask-2)"></path>
                    <polygon id="Fill-40" fill="#000000" mask="url(#mask-2)" points="195.239471 94.2435286 198.389314 94.2435286 198.389314 65.6681 195.239471 65.6681"></polygon>
                    <polygon id="Fill-41" fill="#F2DF08" mask="url(#mask-2)" points="195.221414 26.0496 198.287743 26.0496 198.287743 0.0507 195.221414 0.0507"></polygon>
                    <polygon id="Fill-42" fill="#F2DF08" mask="url(#mask-2)" points="153.775531 39.5635657 137.30516 23.0931943 139.472017 20.9263371 155.942389 37.3967086"></polygon>
                    <polygon id="Fill-43" fill="#F2DF08" mask="url(#mask-2)" points="240.122306 39.5635657 237.955449 37.3967086 254.42582 20.9263371 256.592677 23.0931943"></polygon>
                    <path d="M188.821737,107.352676 C188.821737,120.333504 178.298937,130.857433 165.31698,130.857433 C152.336151,130.857433 141.813351,120.333504 141.813351,107.352676 C141.813351,94.3718471 152.336151,88.95809 165.31698,88.95809 C178.298937,88.95809 188.821737,94.3718471 188.821737,107.352676" id="Fill-44" fill="#FFFFFF" mask="url(#mask-2)"></path>
                    <path d="M165.31698,91.0017071 C158.863809,91.0017071 143.856066,92.59525 143.856066,107.35245 C143.856066,119.18665 153.483909,128.813364 165.31698,128.813364 C177.150051,128.813364 186.779023,119.18665 186.779023,107.35245 C186.779023,92.59525 171.770151,91.0017071 165.31698,91.0017071 M165.31698,132.899921 C151.230151,132.899921 139.769509,121.440407 139.769509,107.35245 C139.769509,94.55445 149.31948,86.91515 165.31698,86.91515 C181.315609,86.91515 190.86558,94.55445 190.86558,107.35245 C190.86558,121.440407 179.403809,132.899921 165.31698,132.899921" id="Fill-45" fill="#000000" mask="url(#mask-2)"></path>
                    <path d="M249.817637,107.352676 C249.817637,120.333504 239.294837,130.857433 226.31288,130.857433 C213.332051,130.857433 202.809251,120.333504 202.809251,107.352676 C202.809251,94.3718471 213.332051,88.95809 226.31288,88.95809 C239.294837,88.95809 249.817637,94.3718471 249.817637,107.352676" id="Fill-46" fill="#FFFFFF" mask="url(#mask-2)"></path>
                    <path d="M226.312767,91.0017071 C219.859596,91.0017071 204.851853,92.59525 204.851853,107.35245 C204.851853,119.18665 214.479696,128.813364 226.312767,128.813364 C238.145839,128.813364 247.77481,119.18665 247.77481,107.35245 C247.77481,92.59525 232.765939,91.0017071 226.312767,91.0017071 M226.312767,132.899921 C212.225939,132.899921 200.765296,121.440407 200.765296,107.35245 C200.765296,94.55445 210.315267,86.91515 226.312767,86.91515 C242.311396,86.91515 251.861367,94.55445 251.861367,107.35245 C251.861367,121.440407 240.399596,132.899921 226.312767,132.899921" id="Fill-47" fill="#000000" mask="url(#mask-2)"></path>
                    <polygon id="Fill-48" fill="#0876F2" mask="url(#mask-2)" points="138.595004 93.8804671 136.767847 92.9651957 142.652219 81.1964529 144.479376 82.1105957"></polygon>
                    <path d="M187.464179,140.514844 C187.464179,140.514844 187.808393,146.594459 197.458807,146.594459 C207.109221,146.594459 207.109221,140.791344 207.109221,140.791344" id="Fill-49" fill="#FC6060" mask="url(#mask-2)"></path>
                    <path d="M197.459259,148.612909 C188.31783,148.612909 185.607001,143.38988 185.449001,140.629394 L189.475744,140.360794 C189.51863,140.791909 190.104359,144.577137 197.459259,144.577137 C204.88413,144.577137 205.091787,140.829151 205.091787,140.79078 L209.127559,140.79078 C209.127559,140.86978 208.993259,148.612909 197.459259,148.612909" id="Fill-50" fill="#000000" mask="url(#mask-2)"></path>
                    <path d="M318.422479,114.193624 C317.993621,114.042396 317.72615,113.96791 317.681007,113.955496 L318.972093,109.011224 C318.972093,109.011224 319.397564,109.119567 320.11985,109.373496 L318.422479,114.193624 Z M324.423093,117.465353 C322.644464,116.09301 320.868093,115.199181 319.690993,114.691324 L321.714521,109.998724 C323.819307,110.907224 325.781893,112.058367 327.546979,113.42281 L324.423093,117.465353 Z M328.88095,122.423167 C327.989379,120.928939 326.840493,119.550953 325.46815,118.330967 L328.86515,114.51301 C330.62685,116.080596 332.108664,117.861481 333.268836,119.804881 L328.88095,122.423167 Z M331.074893,128.667553 C330.805164,126.857324 330.27925,125.147539 329.511821,123.587853 L334.099464,121.335224 C335.095993,123.367781 335.779907,125.58091 336.128636,127.91141 L331.074893,128.667553 Z M336.059793,136.29331 L331.004921,135.543939 C331.199036,134.237053 331.297221,132.95951 331.297221,131.748553 C331.297221,131.16621 331.27465,130.58161 331.229507,130.010553 L336.32275,129.606524 C336.37805,130.311881 336.407393,131.03191 336.407393,131.748553 C336.407393,133.210053 336.290021,134.738139 336.059793,136.29331 L336.059793,136.29331 Z M334.040779,144.18541 L329.226293,142.475624 C329.904564,140.563824 330.423707,138.701681 330.766793,136.939981 L335.782164,137.918453 C335.389421,139.928439 334.804821,142.03661 334.040779,144.18541 L334.040779,144.18541 Z M330.862721,151.512096 L326.306679,149.200781 C327.236621,147.36911 328.045807,145.566781 328.716179,143.842324 L333.479879,145.690924 C332.748564,147.573381 331.868279,149.531453 330.862721,151.512096 L330.862721,151.512096 Z M326.430821,158.450553 L322.531607,155.148353 C323.591336,153.895639 324.519021,152.545867 325.28645,151.138539 L325.623893,150.514439 L330.131407,152.918296 L329.772521,153.58641 C328.839193,155.296196 327.715136,156.932624 326.430821,158.450553 L326.430821,158.450553 Z M320.326379,164.026824 L317.349207,159.87481 C318.935979,158.73721 320.365879,157.49691 321.599407,156.188896 L325.315793,159.695367 C323.857679,161.24151 322.179493,162.698496 320.326379,164.026824 L320.326379,164.026824 Z M313.304407,168.100967 L311.133036,163.473824 C312.950036,162.621753 314.64515,161.681653 316.174364,160.679481 L318.975479,164.952253 C317.246507,166.085339 315.339221,167.145067 313.304407,168.100967 L313.304407,168.100967 Z M305.845679,170.986724 L304.302921,166.11581 C306.253093,165.498481 308.102821,164.811181 309.801321,164.071967 L311.838393,168.758924 C309.978507,169.565853 307.96175,170.316353 305.845679,170.986724 L305.845679,170.986724 Z M227.066879,172.142381 C223.238764,171.529567 221.009836,171.086039 220.917293,171.067981 L221.917207,166.057124 C221.939779,166.061639 224.154036,166.501781 227.873807,167.096539 L227.066879,172.142381 Z M298.192836,172.992196 L297.128593,167.994881 C299.135193,167.567153 301.07295,167.07961 302.887693,166.548053 L304.32775,171.449439 C302.388864,172.019367 300.324707,172.537381 298.192836,172.992196 L298.192836,172.992196 Z M234.726493,173.258539 C232.44565,172.95721 230.386007,172.658139 228.597221,172.382767 L229.375936,167.33241 C231.133121,167.603267 233.155521,167.896696 235.396864,168.19351 L234.726493,173.258539 Z M242.408679,174.17381 C240.238436,173.943581 238.179921,173.702067 236.260221,173.459424 L236.904636,168.388753 C238.790479,168.62801 240.812879,168.867267 242.945879,169.09411 L242.408679,174.17381 Z M290.456479,174.33181 L289.761279,169.269039 C291.803993,168.989153 293.791407,168.660739 295.667093,168.291696 L296.652336,173.305939 C294.680721,173.693039 292.595121,174.037253 290.456479,174.33181 L290.456479,174.33181 Z M250.114564,174.888196 C247.983821,174.721167 245.924179,174.533824 243.94805,174.334067 L244.459293,169.250981 C246.400436,169.446224 248.425093,169.629053 250.515207,169.794953 L250.114564,174.888196 Z M282.686264,175.160181 L282.28675,170.06581 C284.339621,169.904424 286.354121,169.70241 288.272693,169.464281 L288.903564,174.533824 C286.907121,174.78211 284.817007,174.992024 282.686264,175.160181 L282.686264,175.160181 Z M257.839636,175.383639 C255.732593,175.27981 253.667307,175.152281 251.656193,175.005567 L252.028621,169.908939 C254.000236,170.053396 256.026021,170.178667 258.091307,170.280239 L257.839636,175.383639 Z M274.901379,175.578881 L274.745636,170.470967 C276.803021,170.408896 278.83445,170.309581 280.780107,170.175281 L281.127707,175.274167 C279.117721,175.410724 277.023093,175.513424 274.901379,175.578881 L274.901379,175.578881 Z M265.590664,175.639824 C263.584064,175.608224 261.498464,175.546153 259.389164,175.455867 L259.608107,170.351339 C261.670007,170.439367 263.710464,170.50031 265.671921,170.530781 L265.590664,175.639824 Z M268.976379,175.668039 C268.360179,175.66691 267.747364,175.664653 267.137936,175.65901 L267.184207,170.549967 C269.189679,170.568024 271.206436,170.556739 273.235607,170.510467 L273.348464,175.620639 C271.886964,175.652239 270.42885,175.668039 268.976379,175.668039 L268.976379,175.668039 Z" id="Fill-51" fill="#000000" mask="url(#mask-2)"></path>
                    <polygon id="Fill-52" fill="#FFFFFF" mask="url(#mask-2)" points="234.358014 114.447214 245.620029 114.447214 245.620029 106.6454 234.358014 106.6454"></polygon>
                    <path d="M182.820897,279.116056 L180.667583,269.26137 C181.34924,269.11127 181.939483,268.706113 182.326583,268.120384 C183.135769,266.893627 182.796069,265.23237 181.567054,264.420927 C180.97004,264.028184 180.25904,263.891627 179.558197,264.034956 C178.859611,264.178284 178.258083,264.583441 177.86534,265.178199 C177.324754,265.999799 177.394726,266.814627 177.485011,267.227684 L167.632583,269.38777 C166.886597,265.989641 167.531011,262.521541 169.446197,259.622241 C171.323011,256.778241 174.194097,254.834841 177.53354,254.150927 C180.878626,253.468141 184.279011,254.12497 187.123011,256.001784 C192.994969,259.87617 194.618983,267.806641 190.744597,273.678599 C188.900511,276.471813 186.086983,278.40167 182.820897,279.116056" id="Fill-53" fill="#FC6060" mask="url(#mask-2)"></path>
                    <polygon id="Fill-54" fill="#000000" mask="url(#mask-2)" points="228.170057 112.669714 241.965714 112.669714 241.965714 98.8740571 228.170057 98.8740571"></polygon>
                    <path d="M167.193343,112.035457 L180.989,112.035457 L180.989,98.2398 L167.193343,98.2398 L167.193343,112.035457 Z M172.302386,106.926414 L175.878829,106.926414 L175.878829,103.349971 L172.302386,103.349971 L172.302386,106.926414 Z" id="Fill-55" fill="#000000" mask="url(#mask-2)"></path>
                    <path d="M184.145614,199.375487 L179.062529,198.861987 C179.447371,195.055316 179.765629,192.76093 179.779171,192.66613 L184.839686,193.371487 C184.8363,193.394059 184.5203,195.67603 184.145614,199.375487 L184.145614,199.375487 Z M183.492171,206.942559 L178.395543,206.574644 C178.560314,204.298316 178.738629,202.219487 178.910171,200.403616 L183.997771,200.886644 C183.828486,202.668659 183.653557,204.709116 183.492171,206.942559 L183.492171,206.942559 Z M183.059929,214.523173 L177.9554,214.308744 C178.038914,212.287473 178.151771,210.206387 178.290586,208.121916 L183.388343,208.459359 C183.261943,210.368901 183.147957,212.402587 183.059929,214.523173 L183.059929,214.523173 Z M182.8692,222.102659 L177.760157,222.063159 C177.774829,220.037373 177.8211,217.949516 177.895586,215.859401 L183.002371,216.041101 C182.930143,218.083816 182.885,220.124273 182.8692,222.102659 L182.8692,222.102659 Z M177.8527,229.829987 C177.786114,227.859501 177.753386,225.786316 177.753386,223.667987 L182.862429,223.613816 L182.862429,223.667987 C182.862429,225.729887 182.896286,227.745516 182.959486,229.658444 L177.8527,229.829987 Z M178.308643,237.620516 C178.1371,235.641001 178.003929,233.542987 177.912514,231.385159 L183.017043,231.169601 C183.105071,233.252944 183.233729,235.275344 183.3985,237.179244 L178.308643,237.620516 Z M179.246486,245.411044 C178.933871,243.445073 178.6664,241.347059 178.451971,239.179073 L183.537314,238.67573 C183.741586,240.74553 183.995514,242.741973 184.292329,244.60863 L179.246486,245.411044 Z M180.8863,253.18013 C180.3649,251.266073 179.902186,249.175959 179.510571,246.97073 L184.540614,246.075773 C184.906271,248.130901 185.336257,250.069787 185.817029,251.83713 L180.8863,253.18013 Z M183.0272,259.427901 C182.409871,257.988973 181.838814,256.404459 181.329829,254.721759 L186.221057,253.242201 C186.674743,254.745459 187.180343,256.149401 187.724314,257.415659 L183.0272,259.427901 Z" id="Fill-56" fill="#000000" mask="url(#mask-2)"></path>
                    <path d="M212.194564,199.375487 C211.819879,195.67603 211.503879,193.394059 211.500493,193.371487 L216.561007,192.66613 C216.57455,192.76093 216.892807,195.055316 217.27765,198.861987 L212.194564,199.375487 Z M212.848007,206.942559 C212.68775,204.710244 212.511693,202.669787 212.342407,200.887773 L217.430007,200.404744 C217.60155,202.220616 217.780993,204.299444 217.944636,206.576901 L212.848007,206.942559 Z M213.28025,214.523173 C213.192221,212.402587 213.078236,210.368901 212.951836,208.459359 L218.049593,208.121916 C218.188407,210.206387 218.301264,212.287473 218.384779,214.308744 L213.28025,214.523173 Z M213.472107,222.102659 C213.456307,220.124273 213.411164,218.083816 213.338936,216.039973 L218.445721,215.858273 C218.519079,217.949516 218.566479,220.037373 218.58115,222.063159 L213.472107,222.102659 Z M218.488607,229.831116 L213.381821,229.659573 C213.445021,227.747773 213.478879,225.732144 213.478879,223.672501 L218.587921,223.616073 L218.587921,223.672501 C218.587921,225.789701 218.555193,227.861759 218.488607,229.831116 L218.488607,229.831116 Z M218.032664,237.620516 L212.942807,237.179244 C213.107579,235.275344 213.236236,233.252944 213.324264,231.169601 L218.428793,231.385159 C218.337379,233.542987 218.204207,235.641001 218.032664,237.620516 L218.032664,237.620516 Z M217.094821,245.413301 L212.048979,244.610887 C212.345793,242.74423 212.599721,240.747787 212.803993,238.677987 L217.889336,239.18133 C217.674907,241.349316 217.407436,243.44733 217.094821,245.413301 L217.094821,245.413301 Z M215.455007,253.18013 L210.524279,251.83713 C211.00505,250.069787 211.435036,248.130901 211.800693,246.075773 L216.830736,246.97073 C216.439121,249.175959 215.976407,251.266073 215.455007,253.18013 L215.455007,253.18013 Z M213.314107,259.426773 L208.616993,257.416787 C209.162093,256.14263 209.668821,254.738687 210.12025,253.242201 L215.011479,254.724016 C214.50475,256.397687 213.933693,257.979944 213.314107,259.426773 L213.314107,259.426773 Z" id="Fill-57" fill="#000000" mask="url(#mask-2)"></path>
                    <polygon id="Fill-58" fill="#FFFFFF" mask="url(#mask-2)" points="61.5082714 291.230029 121.8022 291.230029 121.8022 253.418371 61.5082714 253.418371"></polygon>
                    <polygon id="Fill-59" fill="#000000" mask="url(#mask-2)" points="120.817747 292.459381 91.1611471 268.735681 62.5123614 292.442453 60.5046329 290.016024 91.12729 264.672824 122.785976 289.999096"></polygon>
                    <polyline id="Fill-60" fill="#FFFFFF" mask="url(#mask-2)" points="61.5084971 253.418484 91.1447829 279.988441 121.802426 254.44097"></polyline>
                    <polygon id="Fill-61" fill="#000000" mask="url(#mask-2)" points="91.10675 282.070881 60.4570071 254.590167 62.5595357 252.244996 91.1812357 277.907581 120.793821 253.230239 122.810579 255.651024"></polygon>
                    <path d="M90.0653043,172.070379 C89.2662757,170.040079 88.5394757,167.833721 87.9074757,165.511121 L93.4442471,164.002221 C94.0243329,166.122807 94.6834186,168.131664 95.4057043,169.96785 L90.0653043,172.070379 Z M93.9329186,179.81125 C92.7264757,177.903964 91.6182186,175.770964 90.6386186,173.473193 L95.9192043,171.222821 C96.7780471,173.23845 97.7429757,175.097207 98.7846471,176.74605 L93.9329186,179.81125 Z M99.6164043,186.645879 C97.8682471,185.077164 96.2442329,183.213893 94.7872471,181.104593 L99.5103186,177.841893 C100.711119,179.581021 102.036061,181.105721 103.449033,182.371979 L99.6164043,186.645879 Z M107.399033,191.434407 C105.082076,190.560893 102.87459,189.298021 100.839776,187.678521 L104.412833,183.186807 C105.980419,184.43275 107.665376,185.401064 109.422561,186.062407 L107.399033,191.434407 Z M114.86679,192.842864 C113.535076,192.842864 111.43029,192.690507 108.956461,191.958064 L110.586119,186.454021 C113.690819,187.373807 115.936676,187.045393 115.945704,187.045393 L116.866619,192.710821 C116.733447,192.733393 116.01229,192.842864 114.86679,192.842864 L114.86679,192.842864 Z" id="Fill-62" fill="#000000" mask="url(#mask-2)"></path>
                    <polygon id="Fill-63" fill="#FFFFFF" mask="url(#mask-2)" points="99.8526143 223.951371 160.146543 223.951371 160.146543 186.139714 99.8526143 186.139714"></polygon>
                    <polygon id="Fill-64" fill="#000000" mask="url(#mask-2)" points="159.162767 225.181627 129.506167 201.456799 100.857381 225.164699 98.8496529 222.73827 129.47231 197.393941 161.130996 222.721341"></polygon>
                    <polyline id="Fill-65" fill="#FFFFFF" mask="url(#mask-2)" points="99.8531786 186.139827 129.489464 212.709784 160.147107 187.162313"></polyline>
                    <polygon id="Fill-66" fill="#000000" mask="url(#mask-2)" points="129.45177 214.791886 98.8020271 187.3123 100.904556 184.967129 129.526256 210.628586 159.138841 185.951243 161.155599 188.372029"></polygon>
                    <polygon id="Fill-67" fill="#FFFFFF" mask="url(#mask-2)" points="113.840129 260.465171 174.134057 260.465171 174.134057 222.653514 113.840129 222.653514"></polygon>
                    <polygon id="Fill-68" fill="#000000" mask="url(#mask-2)" points="173.149717 261.694863 143.493117 237.971163 114.844331 261.677934 112.836603 259.251506 143.45926 233.908306 175.117946 259.234577"></polygon>
                    <polyline id="Fill-69" fill="#FFFFFF" mask="url(#mask-2)" points="113.840241 223.675774 143.476527 249.224374 174.13417 223.675774"></polyline>
                    <polygon id="Fill-70" fill="#000000" mask="url(#mask-2)" points="143.458583 251.289773 112.812226 224.869916 114.868483 222.482987 143.493569 247.159201 173.12534 222.466059 175.142097 224.885716"></polygon>
                    <polygon id="Fill-71" fill="#FFFFFF" mask="url(#mask-2)" points="163.132743 213.243486 223.426671 213.243486 223.426671 175.431829 163.132743 175.431829"></polygon>
                    <polygon id="Fill-72" fill="#000000" mask="url(#mask-2)" points="222.443234 214.473403 192.785506 190.748574 164.13672 214.456474 162.128991 212.030046 192.751649 186.685717 224.411463 212.013117"></polygon>
                    <polyline id="Fill-73" fill="#FFFFFF" mask="url(#mask-2)" points="163.132969 176.45375 192.769254 202.00235 223.426897 175.431264"></polyline>
                    <polygon id="Fill-74" fill="#000000" mask="url(#mask-2)" points="192.770834 204.083661 162.104163 177.646876 164.16042 175.259947 192.76632 199.920361 222.395834 174.241976 224.458863 176.622133"></polygon>
                    <polygon id="Fill-75" fill="#FFFFFF" mask="url(#mask-2)" points="157.783314 239.004257 218.077243 239.004257 218.077243 201.1926 157.783314 201.1926"></polygon>
                    <polygon id="Fill-76" fill="#000000" mask="url(#mask-2)" points="217.093467 240.2344 187.435739 216.5107 158.786953 240.217471 156.779224 237.791043 187.401881 212.447843 219.061696 237.774114"></polygon>
                    <polyline id="Fill-77" fill="#FFFFFF" mask="url(#mask-2)" points="157.783314 202.215311 187.4196 227.763911 218.077243 202.215311"></polyline>
                    <polygon id="Fill-78" fill="#000000" mask="url(#mask-2)" points="187.401317 229.829197 156.75496 203.40934 158.811217 201.022411 187.436303 225.698626 217.069203 201.005483 219.08596 203.42514"></polygon>
                    <polygon id="Fill-79" fill="#FFFFFF" mask="url(#mask-2)" points="275.242771 273.750714 313.054429 273.750714 313.054429 213.456786 275.242771 213.456786"></polygon>
                    <polygon id="Fill-80" fill="#000000" mask="url(#mask-2)" points="311.84065 274.754917 286.49745 244.131131 311.823721 212.471317 314.284007 214.440674 290.560307 244.098403 314.267079 272.747189"></polygon>
                    <polyline id="Fill-81" fill="#FFFFFF" mask="url(#mask-2)" points="276.265031 273.750376 301.813631 244.11409 276.265031 213.456447"></polyline>
                    <polygon id="Fill-82" fill="#000000" mask="url(#mask-2)" points="277.458834 274.779181 275.071906 272.722924 299.74812 244.09671 275.054977 214.464939 277.475763 212.448181 303.878691 244.132824"></polygon>
                    <polygon id="Fill-83" fill="#FFFFFF" mask="url(#mask-2)" points="268.258043 291.230029 328.551971 291.230029 328.551971 253.418371 268.258043 253.418371"></polygon>
                    <polygon id="Fill-84" fill="#000000" mask="url(#mask-2)" points="327.567857 292.459381 297.911257 268.735681 269.262471 292.442453 267.254743 290.016024 297.8774 264.672824 329.536086 289.999096"></polygon>
                    <polyline id="Fill-85" fill="#FFFFFF" mask="url(#mask-2)" points="268.258381 254.440406 297.894667 279.989006 328.55231 253.41792"></polyline>
                    <polygon id="Fill-86" fill="#000000" mask="url(#mask-2)" points="297.897714 282.070881 267.229914 255.634096 269.286171 253.247167 297.890943 277.907581 327.520457 252.228067 329.583486 254.608224"></polygon>
                    <polygon id="Fill-87" fill="#FFFFFF" mask="url(#mask-2)" points="223.186286 231.851371 283.480214 231.851371 283.480214 194.039714 223.186286 194.039714"></polygon>
                    <polygon id="Fill-88" fill="#000000" mask="url(#mask-2)" points="282.496664 233.081627 252.840064 209.356799 224.191279 233.064699 222.18355 230.63827 252.806207 205.293941 284.464893 230.621341"></polygon>
                    <polyline id="Fill-89" fill="#FFFFFF" mask="url(#mask-2)" points="223.18685 195.061749 252.823136 220.610349 283.480779 194.039263"></polyline>
                    <polygon id="Fill-90" fill="#000000" mask="url(#mask-2)" points="252.825393 222.691886 222.158721 196.2551 224.214979 193.868171 252.820879 218.528586 282.449264 192.8502 284.512293 195.230357"></polygon>
                    <polygon id="Fill-91" fill="#FFFFFF" mask="url(#mask-2)" points="338.969137 80.5836386 296.335094 123.217681 269.598109 96.4806957 312.232151 53.8466529"></polygon>
                    <polygon id="Fill-92" fill="#FFFFFF" mask="url(#mask-2)" points="209.305986 291.230029 269.599914 291.230029 269.599914 253.418371 209.305986 253.418371"></polygon>
                    <polygon id="Fill-93" fill="#000000" mask="url(#mask-2)" points="269.274547 292.871649 238.961119 268.732634 210.310076 292.442791 208.302347 290.016363 238.922747 264.67542 271.236004 290.406849"></polygon>
                    <polyline id="Fill-94" fill="#FFFFFF" mask="url(#mask-2)" points="209.306324 254.440406 238.94261 279.989006 269.600253 254.440406"></polyline>
                    <polygon id="Fill-95" fill="#000000" mask="url(#mask-2)" points="238.924327 282.054291 208.27797 255.634434 210.334227 253.247506 238.959313 277.92372 268.592213 253.230577 270.60897 255.650234"></polygon>
                    <polygon id="Fill-96" fill="#FFFFFF" mask="url(#mask-2)" points="165.958686 268.640543 226.252614 268.640543 226.252614 230.828886 165.958686 230.828886"></polygon>
                    <polygon id="Fill-97" fill="#000000" mask="url(#mask-2)" points="225.267936 269.870347 195.611336 246.146647 166.96255 269.853419 164.954821 267.42699 195.577479 242.08379 227.236164 267.410061"></polygon>
                    <polyline id="Fill-98" fill="#FFFFFF" mask="url(#mask-2)" points="165.958686 231.851259 195.594971 257.399859 226.252614 231.851259"></polyline>
                    <polygon id="Fill-99" fill="#000000" mask="url(#mask-2)" points="195.576801 259.465257 164.930444 233.0454 166.986701 230.658471 195.611787 255.334686 225.243559 230.641543 227.260316 233.0612"></polygon>
                    <polygon id="Fill-100" fill="#FFFFFF" mask="url(#mask-2)" points="151.651786 291.230029 189.463443 291.230029 189.463443 230.9361 151.651786 230.9361"></polygon>
                    <polygon id="Fill-101" fill="#000000" mask="url(#mask-2)" points="188.24989 292.233441 162.905561 261.609656 188.232961 229.95097 190.693247 231.920327 166.968419 261.576927 190.676319 290.225713"></polygon>
                    <polyline id="Fill-102" fill="#FFFFFF" mask="url(#mask-2)" points="152.673594 291.229916 178.222194 261.59363 152.673594 230.935987"></polyline>
                    <polygon id="Fill-103" fill="#000000" mask="url(#mask-2)" points="153.867059 292.257706 151.48013 290.201449 176.156344 261.575234 151.463201 231.944591 153.883987 229.927834 180.286916 261.611349"></polygon>
                    <polygon id="Fill-104" fill="#FFFFFF" mask="url(#mask-2)" points="159.4062 255.356129 219.700129 255.356129 219.700129 217.544471 159.4062 217.544471"></polygon>
                    <polygon id="Fill-105" fill="#000000" mask="url(#mask-2)" points="218.716917 256.585369 189.059189 232.86054 160.410403 256.56844 158.402674 254.142011 189.025331 228.797683 220.685146 254.125083"></polygon>
                    <polyline id="Fill-106" fill="#FFFFFF" mask="url(#mask-2)" points="159.406764 218.566167 189.04305 244.114767 219.700693 218.566167"></polyline>
                    <polygon id="Fill-107" fill="#000000" mask="url(#mask-2)" points="189.024654 246.180279 158.378297 219.760421 160.434554 217.373493 189.05964 242.049707 218.69254 217.356564 220.709297 219.776221"></polygon>
                    <polygon id="Fill-108" fill="#FFFFFF" mask="url(#mask-2)" points="78.7302714 268.534457 139.0242 268.534457 139.0242 230.7228 78.7302714 230.7228"></polygon>
                    <polygon id="Fill-109" fill="#000000" mask="url(#mask-2)" points="138.039521 269.7646 108.382921 246.039771 79.7341357 269.747671 77.7264071 267.321243 108.349064 241.976914 140.00775 267.304314"></polygon>
                    <polyline id="Fill-110" fill="#FFFFFF" mask="url(#mask-2)" points="78.7302714 230.722687 108.366557 257.292644 139.0242 231.745173"></polyline>
                    <polygon id="Fill-111" fill="#000000" mask="url(#mask-2)" points="108.328524 259.374859 77.6787814 231.895273 79.78131 229.550101 108.40301 255.211559 138.015596 230.534216 140.032353 232.955001"></polygon>
                    <polygon id="Fill-112" fill="#FFFFFF" mask="url(#mask-2)" points="100.2352 292.083229 160.529129 292.083229 160.529129 254.271571 100.2352 254.271571"></polygon>
                    <polygon id="Fill-113" fill="#000000" mask="url(#mask-2)" points="159.545127 293.312469 129.888527 269.588769 101.239741 293.29554 99.2320129 290.869111 129.85467 265.525911 161.513356 290.852183"></polygon>
                    <polyline id="Fill-114" fill="#FFFFFF" mask="url(#mask-2)" points="100.235313 255.293493 129.871599 280.842093 160.529241 254.271007"></polyline>
                    <polygon id="Fill-115" fill="#000000" mask="url(#mask-2)" points="129.873856 282.923856 99.2071843 256.48707 101.263441 254.100141 129.869341 278.760556 159.497727 253.08217 161.560756 255.462327"></polygon>
                    <polygon id="Fill-116" fill="#FFFFFF" mask="url(#mask-2)" points="85.2263286 254.333643 145.520257 254.333643 145.520257 216.521986 85.2263286 216.521986"></polygon>
                    <polygon id="Fill-117" fill="#000000" mask="url(#mask-2)" points="144.535353 255.563786 114.878753 231.838957 86.2299671 255.546857 84.2222386 253.120429 114.844896 227.7761 146.503581 253.1035"></polygon>
                    <polyline id="Fill-118" fill="#FFFFFF" mask="url(#mask-2)" points="85.2262157 216.522324 114.862501 243.092281 145.520144 217.54481"></polyline>
                    <polygon id="Fill-119" fill="#000000" mask="url(#mask-2)" points="114.824469 245.174044 84.1747257 217.694459 86.2772543 215.349287 114.898954 241.010744 144.51154 216.333401 146.528297 218.754187"></polygon>
                    <polygon id="Fill-120" fill="#FFFFFF" mask="url(#mask-2)" points="198.660171 248.202114 258.9541 248.202114 258.9541 210.390457 198.660171 210.390457"></polygon>
                    <polygon id="Fill-121" fill="#000000" mask="url(#mask-2)" points="257.970099 249.432596 228.313499 225.707767 199.664713 249.415667 197.656984 246.989239 228.279641 221.64491 259.938327 246.97231"></polygon>
                    <polyline id="Fill-122" fill="#FFFFFF" mask="url(#mask-2)" points="198.66051 211.412604 228.296796 236.961204 258.954439 211.412604"></polyline>
                    <polygon id="Fill-123" fill="#000000" mask="url(#mask-2)" points="228.278964 239.026377 197.632607 212.60652 199.688864 210.219591 228.31395 234.895806 257.945721 210.202663 259.962479 212.62232"></polygon>
                    <polygon id="Fill-124" fill="#FFFFFF" mask="url(#mask-2)" points="170.472971 223.782086 230.7669 223.782086 230.7669 185.970429 170.472971 185.970429"></polygon>
                    <polygon id="Fill-125" fill="#000000" mask="url(#mask-2)" points="229.782221 225.012906 200.125621 201.288077 171.476836 224.995977 169.469107 222.569549 200.091764 197.22522 231.75045 222.55262"></polygon>
                    <polyline id="Fill-126" fill="#FFFFFF" mask="url(#mask-2)" points="170.472971 186.992914 200.109257 212.541514 230.7669 186.992914"></polyline>
                    <polygon id="Fill-127" fill="#000000" mask="url(#mask-2)" points="200.091087 214.606687 169.44473 188.18683 171.500987 185.799901 200.126073 210.476116 229.757844 185.782973 231.774601 188.20263"></polygon>
                    <polygon id="Fill-128" fill="#FFFFFF" mask="url(#mask-2)" points="216.158671 269.342514 276.4526 269.342514 276.4526 231.530857 216.158671 231.530857"></polygon>
                    <polygon id="Fill-129" fill="#000000" mask="url(#mask-2)" points="275.468373 270.572431 245.811773 246.848731 217.162987 270.555503 215.155259 268.129074 245.777916 242.785874 277.436601 268.112146"></polygon>
                    <polyline id="Fill-130" fill="#FFFFFF" mask="url(#mask-2)" points="216.158897 232.55323 245.795183 258.10183 276.452826 232.55323"></polyline>
                    <polygon id="Fill-131" fill="#000000" mask="url(#mask-2)" points="245.777239 260.167341 215.130881 233.747484 217.187139 231.360556 245.812224 256.03677 275.443996 231.343627 277.460753 233.763284"></polygon>
                    <polygon id="Fill-132" fill="#FFFFFF" mask="url(#mask-2)" points="187.576471 292.158843 247.8704 292.158843 247.8704 254.347186 187.576471 254.347186"></polygon>
                    <polygon id="Fill-133" fill="#000000" mask="url(#mask-2)" points="246.88606 293.389663 217.22946 269.664834 188.580674 293.372734 186.572946 290.946306 217.195603 265.601977 248.854289 290.929377"></polygon>
                    <polyline id="Fill-134" fill="#FFFFFF" mask="url(#mask-2)" points="187.576584 255.369784 217.21287 280.918384 247.870513 255.369784"></polyline>
                    <polygon id="Fill-135" fill="#000000" mask="url(#mask-2)" points="217.194926 282.983444 186.548569 256.563587 188.604826 254.176659 217.229911 278.852873 246.861683 254.15973 248.87844 256.579387"></polygon>
                    <polygon id="Fill-136" fill="#FFFFFF" mask="url(#mask-2)" points="187.4196 253.312286 247.713529 253.312286 247.713529 215.500629 187.4196 215.500629"></polygon>
                    <polygon id="Fill-137" fill="#000000" mask="url(#mask-2)" points="246.728399 254.54209 217.071799 230.817261 188.423013 254.525161 186.415284 252.098733 217.037941 226.754404 248.696627 252.081804"></polygon>
                    <polyline id="Fill-138" fill="#FFFFFF" mask="url(#mask-2)" points="187.419261 216.522324 217.055547 242.070924 247.71319 216.522324"></polyline>
                    <polygon id="Fill-139" fill="#000000" mask="url(#mask-2)" points="217.037264 244.135871 186.390907 217.716014 188.447164 215.329086 217.07225 240.0053 246.704021 215.312157 248.720779 217.731814"></polygon>
                    <polygon id="Fill-140" fill="#FFFFFF" mask="url(#mask-2)" points="208.862457 266.855143 269.156386 266.855143 269.156386 229.043486 208.862457 229.043486"></polygon>
                    <polygon id="Fill-141" fill="#000000" mask="url(#mask-2)" points="268.171256 268.084947 238.514656 244.360119 209.86587 268.068019 207.858141 265.64159 238.480799 240.297261 270.139484 265.624661"></polygon>
                    <polyline id="Fill-142" fill="#FFFFFF" mask="url(#mask-2)" points="208.862119 230.065181 238.498404 255.613781 269.156047 230.065181"></polyline>
                    <polygon id="Fill-143" fill="#000000" mask="url(#mask-2)" points="238.480121 257.678729 207.833764 231.258871 209.890021 228.871943 238.515107 253.548157 268.146879 228.855014 270.163636 231.274671"></polygon>
                    <path d="M308.949701,120.254166 C308.665301,120.254166 308.38203,120.245137 308.096501,120.22708 C304.758187,120.008137 301.687344,118.519551 299.449387,116.035566 L306.946487,109.283323 C307.413716,109.802466 308.055873,110.11508 308.755587,110.160223 C309.46433,110.21778 310.155016,109.974009 310.691087,109.503394 C311.228287,109.03278 311.548801,108.381594 311.595073,107.670594 C311.641344,106.957337 311.408859,106.268909 310.938244,105.733966 C310.46763,105.196766 309.816444,104.875123 309.104316,104.828851 C308.128101,104.760009 307.452087,105.229494 307.138344,105.512766 L300.381587,98.0213086 C302.961501,95.6930657 306.278373,94.5306371 309.762273,94.7619943 C313.163787,94.9843229 316.27413,96.51918 318.521116,99.0810371 C320.770359,101.644023 321.884259,104.928166 321.66193,108.328551 C321.438473,111.727809 319.905873,114.83928 317.342887,117.086266 C314.996587,119.145909 312.043116,120.254166 308.949701,120.254166" id="Fill-144" fill="#FC6060" mask="url(#mask-2)"></path>
                    <polygon id="Fill-145" fill="#000000" mask="url(#mask-2)" points="87.4745557 175.762613 75.2227843 183.833027 55.6161129 154.068084 67.8690129 145.99767"></polygon>
                    <path d="M101.9021,153.606837 C101.9021,159.959566 96.7524286,165.110366 90.3985714,165.110366 C84.0458429,165.110366 78.8961714,159.959566 78.8961714,153.606837 C78.8961714,147.254109 84.0458429,142.103309 90.3985714,142.103309 C96.7524286,142.103309 101.9021,147.254109 101.9021,153.606837" id="Fill-146" fill="#000000" mask="url(#mask-2)"></path>
                    <path d="M88.5278514,166.923529 C86.9343086,166.923529 85.3396371,166.621071 83.81268,166.0139 C80.6470371,164.755543 78.1585371,162.339271 76.8087657,159.208614 C75.4601229,156.080214 75.4093371,152.610986 76.6688229,149.444214 C77.92718,146.277443 80.34458,143.790071 83.4741086,142.4403 C86.5449514,141.117614 89.9554943,141.044257 93.07938,142.238286 L89.4803657,151.661857 C88.8246657,151.412443 88.1125371,151.425986 87.4692514,151.704743 C86.8124229,151.986886 86.3068229,152.508286 86.0438657,153.169629 C85.77978,153.833229 85.7899371,154.5589 86.0732086,155.2146 C86.3553514,155.8703 86.8767514,156.3759 87.5392229,156.639986 C88.2028229,156.902943 88.9284943,156.893914 89.5841943,156.609514 C90.25118,156.321729 90.7624229,155.789043 91.0219943,155.108514 L100.448951,158.699629 C99.2120371,161.948786 96.7720657,164.4971 93.5793371,165.872829 C91.9564514,166.572543 90.24328,166.923529 88.5278514,166.923529" id="Fill-147" fill="#FC6060" mask="url(#mask-2)"></path>
                    <polygon id="Fill-148" fill="#F2DF08" mask="url(#mask-2)" points="77.6124214 182.258783 75.2221071 183.83314 55.6165643 154.068197 58.0068786 152.49384"></polygon>
                    <path d="M301.970954,76.1889814 C301.020697,77.1392386 301.036497,78.7124671 302.003683,79.6796529 C302.798197,80.4741671 304.371426,80.8025814 305.477426,79.6954529 C306.502169,78.6718386 306.371254,77.4100957 305.904026,75.77931 C304.25744,75.2635529 303.036326,75.12361 301.970954,76.1889814 M307.026954,74.6563814 C308.600183,75.2138957 309.796469,75.3775386 310.88554,74.2884671 C311.852726,73.3212814 311.737611,72.0753386 311.197026,70.48631 C309.607997,69.9457243 308.386883,69.7730529 307.379069,70.7808671 C306.329497,71.82931 306.48524,73.0673529 307.026954,74.6563814 M312.319954,69.3633814 C313.991369,69.8712386 315.212483,69.9615243 316.277854,68.8961529 C317.211183,67.9628243 317.228111,66.3895957 316.260926,65.42241 C315.253111,64.4145957 313.687783,64.4721529 312.770254,65.3896814 C311.721811,66.4381243 311.860626,67.6919671 312.319954,69.3633814 M317.309369,69.9287957 C315.876083,71.36321 314.262226,71.3056529 312.827811,70.9535386 C313.237483,72.3619957 313.262311,73.9769814 311.918183,75.3199814 C310.500697,76.7374671 308.854111,76.6810386 307.493054,76.2871671 C307.829369,77.7046529 307.886926,79.3512386 306.510069,80.7280957 C304.978597,82.2606957 302.430283,82.2358671 300.938311,80.7450243 C299.40684,79.2124243 299.40684,76.6889386 300.938311,75.1563386 C302.355797,73.7388529 303.978683,73.8212386 305.420997,74.1654529 C305.011326,72.7558671 304.953769,71.14201 306.346426,69.7482243 C307.723283,68.3724957 309.354069,68.4458529 310.729797,68.8555243 C310.42734,67.42111 310.344954,65.7496957 311.737611,64.3570386 C313.270211,62.8244386 315.793697,62.8244386 317.326297,64.3570386 C318.841969,65.87271 318.841969,68.3961957 317.309369,69.9287957" id="Fill-149" fill="#000000" mask="url(#mask-2)"></path>
                    <path d="M312.734366,68.9593529 C314.339194,69.4107814 315.163051,69.2956671 315.920323,68.5395243 C316.662923,67.7957957 316.656151,66.5317957 315.904523,65.7801671 C315.523066,65.39871 315.02198,65.1887957 314.493809,65.1887957 L314.48478,65.1887957 C313.974666,65.1910529 313.479223,65.3953243 313.128237,65.74631 C312.32808,66.5464671 312.349523,67.4741529 312.734366,68.9593529 M314.28728,70.2323814 C313.638351,70.2323814 312.937509,70.0800243 312.173466,69.8475386 L311.907123,69.7662814 L311.832637,69.49881 C311.408294,67.9560529 311.104709,66.3410671 312.413851,65.0330529 C312.958951,64.4856957 313.693651,64.18211 314.479137,64.1787243 L314.493809,64.1787243 C315.292837,64.1787243 316.046723,64.4924671 316.61778,65.0657814 C317.777951,66.2236957 317.784723,68.1027671 316.634709,69.25391 C315.925966,69.9626529 315.152894,70.2323814 314.28728,70.2323814 M307.427823,74.2602529 C308.774209,74.7116814 309.686094,74.7703671 310.529137,73.93071 C311.196123,73.2625957 311.276251,72.39811 310.796609,70.8858243 C309.210966,70.3779671 308.42548,70.4490671 307.735923,71.1386243 C307.014766,71.8597814 306.926737,72.6926671 307.427823,74.2602529 M309.004437,75.5964814 C308.271994,75.5964814 307.539551,75.3752814 306.857894,75.1326386 L306.626537,75.0502529 L306.548666,74.8188957 C306.066766,73.4036671 305.664994,71.7796529 307.021537,70.4242386 C308.323909,69.1218671 309.943409,69.5258957 311.359766,70.0077957 L311.594509,70.0867957 L311.675766,70.3226671 C312.163309,71.75821 312.49398,73.3946386 311.243523,74.6450957 C310.533651,75.3549671 309.76848,75.5964814 309.004437,75.5964814 M303.902166,75.8944243 C303.297251,75.8944243 302.79278,76.0817671 302.327809,76.5467386 C301.970051,76.9044957 301.77368,77.3863957 301.77368,77.90441 C301.77368,78.4393529 301.982466,78.9438243 302.361666,79.3230243 C302.921437,79.8816671 304.18318,80.2732814 305.121023,79.3388243 C305.901994,78.5567243 305.86588,77.5782529 305.491194,76.1810814 C304.884023,76.0027671 304.362623,75.8944243 303.902166,75.8944243 M303.78818,80.9109243 C302.97448,80.9109243 302.185609,80.5757386 301.64728,80.0362814 C301.076223,79.46861 300.76248,78.71021 300.76248,77.90441 C300.76248,77.1166671 301.064937,76.37971 301.613423,75.8323529 C302.965451,74.4780671 304.549966,74.8267957 306.054351,75.2962814 L306.315051,75.3775386 L306.389537,75.6404957 C306.804851,77.09071 307.138909,78.7485814 305.835409,80.05321 C305.23388,80.6547386 304.501437,80.9109243 303.78818,80.9109243 M303.828809,74.4554957 C302.978994,74.4554957 302.104351,74.7060386 301.295166,75.5140957 C299.952166,76.8570957 299.952166,79.0442671 301.295166,80.3872671 C302.608823,81.6997957 304.833237,81.6907671 306.153666,80.3714671 C307.15358,79.3715529 307.415409,78.1481814 307.002351,76.4045386 L306.801466,75.5614957 L307.633223,75.8007529 C309.244823,76.2679814 310.529137,75.99261 311.560651,74.9633529 C312.553794,73.9690814 312.808851,72.7039529 312.342751,71.09461 L312.09898,70.2526957 L312.948794,70.46261 C314.11348,70.7492671 315.618994,70.9038814 316.951837,69.5721671 C318.272266,68.25061 318.280166,66.0261957 316.968766,64.7136671 C315.624637,63.3717957 313.439723,63.3717957 312.095594,64.7136671 C310.840623,65.9697671 310.951223,67.4594814 311.224337,68.7505671 L311.399266,69.5834529 L310.585566,69.34081 C308.97058,68.8566529 307.699809,69.11171 306.70328,70.1059814 C305.679666,71.1307243 305.425737,72.37441 305.90538,74.0232529 L306.149151,74.8583957 L305.303851,74.6563814 C304.834366,74.5446529 304.336666,74.4554957 303.828809,74.4554957 M303.70918,82.3712957 C302.567066,82.3724243 301.427209,81.94921 300.58078,81.1016529 C298.84278,79.3647814 298.84278,76.5365814 300.58078,74.79971 C301.944094,73.4352671 303.501523,73.3393386 304.750851,73.5187814 C304.458551,71.86881 304.867094,70.5122671 305.988894,69.3915957 C307.084737,68.2946243 308.46498,67.8894671 310.101409,68.1851529 C309.937766,66.9143814 310.04498,65.3343814 311.381209,63.9992814 C313.11808,62.2601529 315.94628,62.2601529 317.683151,63.9992814 C319.412123,65.7282529 319.404223,68.5485529 317.666223,70.2865529 C316.273566,71.67921 314.72968,71.7875529 313.496151,71.6024671 C313.771523,73.2219671 313.36298,74.5897957 312.275037,75.6777386 C311.155494,76.7995386 309.770737,77.2295243 308.13318,76.9518957 C308.365666,78.6481386 307.949223,80.00581 306.868051,81.0858529 C306.011466,81.9424386 304.858066,82.3712957 303.70918,82.3712957" id="Fill-150" fill="#000000" mask="url(#mask-2)"></path>
                    <polygon id="Fill-151" fill="#FFFFFF" mask="url(#mask-2)" points="299.03396 120.096617 311.448246 108.246617 303.266103 107.964474 296.776817 113.889474"></polygon>
                </g>
            </g>
        </g>
    </g>
</svg>