<?xml version="1.0" encoding="UTF-8" standalone="no"?>
<svg width="317px" height="321px" viewBox="0 0 317 321" version="1.1" xmlns="http://www.w3.org/2000/svg" xmlns:xlink="http://www.w3.org/1999/xlink">
    <!-- Generator: Sketch 40 (33762) - http://www.bohemiancoding.com/sketch -->
    <title>Page 1</title>
    <desc>Created with Sketch.</desc>
    <defs>
        <polygon id="path-1" points="0 320.940789 316.05006 320.940789 316.05006 0.855842105 0 0.855842105"></polygon>
    </defs>
    <g id="Page-1" stroke="none" stroke-width="1" fill="none" fill-rule="evenodd">
        <g id="Artboard" transform="translate(-206.000000, -177.000000)">
            <g id="Page-1" transform="translate(206.000000, 176.000000)">
                <polygon id="Fill-1" fill="#F2DF08" points="174.750756 320.195105 293.717993 320.195105 293.717993 9.55090132 174.750756 9.55090132"></polygon>
                <g id="Group-130" transform="translate(0.000000, 0.203368)">
                    <path d="M76.6000284,207.736605 C75.6702324,203.828118 75.2302492,201.319908 75.2111656,201.215046 L80.6701388,200.263875 C80.6743796,200.287178 81.1037609,202.727599 81.9900886,206.458138 L76.6000284,207.736605 L76.6000284,207.736605 Z M78.6462157,215.476257 C78.0397809,213.401263 77.4630318,211.259539 76.9318712,209.109342 L82.3123896,207.782151 C82.8244666,209.858204 83.3810719,211.924724 83.9652425,213.925572 L78.6462157,215.476257 L78.6462157,215.476257 Z M81.1037609,223.10575 C80.3891856,221.092191 79.6979348,218.980125 79.0480318,216.827809 L84.3522157,215.23052 C84.9766739,217.298099 85.6403595,219.324368 86.3263094,221.25425 L81.1037609,223.10575 L81.1037609,223.10575 Z M84.0649013,230.599664 C83.2114398,228.658132 82.3781221,226.586316 81.5872124,224.439296 L86.7864365,222.527421 C87.5381187,224.56852 88.3290284,226.536533 89.1379615,228.375322 L84.0649013,230.599664 L84.0649013,230.599664 Z M87.70351,237.885974 C86.657092,236.051421 85.6318779,234.03998 84.6533127,231.907789 L89.6913863,229.601888 C90.6010385,231.586849 91.5530987,233.453178 92.5178813,235.146855 L87.70351,237.885974 L87.70351,237.885974 Z M92.3281054,244.764487 C90.9943729,243.112118 89.6839649,241.21825 88.4339883,239.136901 L93.1847475,236.287625 C94.3043194,238.151836 95.4673595,239.834921 96.6410017,241.289217 L92.3281054,244.764487 L92.3281054,244.764487 Z M98.5207375,250.709836 C96.7194565,249.440901 94.957403,247.824546 93.2844064,245.906316 L97.4637174,242.270046 C98.8440987,243.854625 100.274309,245.172283 101.713002,246.185947 L98.5207375,250.709836 L98.5207375,250.709836 Z M117.34354,252.745638 L115.232681,247.627533 C115.641918,247.459118 116.055396,247.272697 116.472055,247.06827 L118.915818,252.035967 C118.386778,252.295474 117.861978,252.532737 117.34354,252.745638 L117.34354,252.745638 Z M106.839072,254.177691 C104.434537,253.808026 102.076651,252.931 99.8343261,251.570974 L102.710651,246.83948 C104.326396,247.820309 105.998333,248.448421 107.679811,248.705809 L106.839072,254.177691 L106.839072,254.177691 Z M109.527741,254.382118 C109.171513,254.382118 108.818467,254.370467 108.469661,254.350342 L108.798323,248.824441 C110.492523,248.926125 112.281082,248.665559 114.103567,248.050158 L115.878343,253.294309 C113.740978,254.015632 111.605734,254.382118 109.527741,254.382118 L109.527741,254.382118 Z" id="Fill-2" fill="#000000"></path>
                    <mask id="mask-2" fill="white">
                        <use xlink:href="#path-1"></use>
                    </mask>
                    <g id="Clip-5"></g>
                    <polygon id="Fill-4" fill="#F2DF08" mask="url(#mask-2)" points="105.580084 263.703171 120.481204 263.703171 120.481204 203.686184 105.580084 203.686184"></polygon>
                    <path d="M120.536228,264.060337 C120.536228,268.384034 117.183874,271.887903 113.048031,271.887903 C108.912188,271.887903 105.559834,268.384034 105.559834,264.060337 C105.559834,259.736639 108.912188,256.232771 113.048031,256.232771 C117.183874,256.232771 120.536228,259.736639 120.536228,264.060337" id="Fill-6" fill="#F2DF08" mask="url(#mask-2)"></path>
                    <polygon id="Fill-7" fill="#FFFFFF" mask="url(#mask-2)" points="108.700254 264.052711 117.375876 264.052711 117.375876 240.045704 108.700254 240.045704"></polygon>
                    <path d="M117.40747,264.260739 C117.40747,266.777424 115.455641,268.818522 113.047925,268.818522 C110.640209,268.818522 108.68838,266.777424 108.68838,264.260739 C108.68838,261.744055 110.640209,259.702957 113.047925,259.702957 C115.455641,259.702957 117.40747,261.744055 117.40747,264.260739" id="Fill-8" fill="#FFFFFF" mask="url(#mask-2)"></path>
                    <path d="M118.2005,258.458278 C114.966888,258.458278 111.749179,257.130028 109.442183,254.527548 C107.330263,252.142206 106.299748,249.082147 106.539353,245.909811 L115.753557,246.605713 C115.703728,247.268778 115.920009,247.909601 116.362112,248.409548 C117.255862,249.416857 118.804815,249.510068 119.814126,248.618213 C120.825557,247.724239 120.919915,246.176732 120.026166,245.166245 C119.601025,244.688541 119.014734,244.397259 118.374373,244.349594 L119.061383,235.142936 C122.113701,235.370666 124.914751,236.757173 126.945035,239.047186 C131.216584,243.870831 130.764938,251.26412 125.939965,255.53062 C123.719905,257.493338 120.954902,258.458278 118.2005,258.458278" id="Fill-9" fill="#FC6060" mask="url(#mask-2)"></path>
                    <polygon id="Fill-10" fill="#FC6060" mask="url(#mask-2)" points="126.416631 94.1201763 63.2085278 179.132413 0.000424080268 94.1201763"></polygon>
                    <polygon id="Fill-11" fill="#FFFFFF" mask="url(#mask-2)" points="83.5223967 146.78656 81.6522027 145.409586 115.211795 99.9249678 60.2213064 99.9249678 60.2213064 97.6031783 119.810945 97.6031783"></polygon>
                    <polygon id="Fill-12" fill="#FFFFFF" mask="url(#mask-2)" points="60.3551037 42.3673618 63.8399833 42.3673618 63.8399833 18.4419145 60.3551037 18.4419145"></polygon>
                    <polygon id="Fill-13" fill="#FFFFFF" mask="url(#mask-2)" points="22.2761943 55.0365789 7.10578294 39.8803355 9.5707495 37.4187303 24.7401007 52.5749737"></polygon>
                    <polygon id="Fill-14" fill="#FFFFFF" mask="url(#mask-2)" points="102.277877 55.0365789 99.8139702 52.5749737 114.984382 37.4187303 117.449348 39.8803355"></polygon>
                    <path d="M85.278195,209.030113 C85.278195,222.003324 74.7514625,226.718929 61.7650645,226.718929 C48.7797268,226.718929 38.2529943,222.003324 38.2529943,209.030113 C38.2529943,196.056903 48.7797268,185.538942 61.7650645,185.538942 C74.7514625,185.538942 85.278195,196.056903 85.278195,209.030113" id="Fill-15" fill="#FFFFFF" mask="url(#mask-2)"></path>
                    <path d="M84.5729495,316.699287 C84.5729495,318.490412 72.8015415,319.942589 58.2810331,319.942589 C43.7605247,319.942589 31.9901769,318.490412 31.9901769,316.699287 C31.9901769,314.908162 43.7605247,313.455984 58.2810331,313.455984 C72.8015415,313.455984 84.5729495,314.908162 84.5729495,316.699287" id="Fill-16" fill="#000000" mask="url(#mask-2)"></path>
                    <path d="M42.8673057,288.388178 L42.4262622,279.695238 C42.7909712,279.677231 43.4843425,279.551185 44.0451886,278.914599 C44.8827472,277.960251 44.7883893,276.500659 43.8331485,275.661764 C42.8747271,274.823928 41.4169512,274.919257 40.5772722,275.873606 C40.1786368,276.326948 39.9750783,276.910573 40.0068843,277.512205 L31.3058174,277.959191 C31.1573893,275.079198 32.1253525,272.29877 34.0315933,270.130566 C38.0380916,265.570665 45.0131518,265.116264 49.5815565,269.122198 C54.1467806,273.128132 54.5984261,280.096678 50.5898074,284.658698 C48.6082923,286.911639 45.8655532,288.236711 42.8673057,288.388178" id="Fill-17" fill="#FC6060" mask="url(#mask-2)"></path>
                    <path d="M66.4835936,287.228131 L66.0446706,278.53519 C66.6723094,278.503414 67.2469381,278.225901 67.6625368,277.753493 C68.5000953,276.800203 68.4057375,275.340611 67.4494365,274.501716 C66.4941957,273.662822 65.0332391,273.758151 64.1946204,274.712499 C63.7959849,275.166901 63.5924264,275.748407 63.6242324,276.350039 L54.925286,276.802322 C54.7747375,273.921269 55.7416405,271.139782 57.6489415,268.96946 C61.6543796,264.410618 68.6305,263.956216 73.1989047,267.962151 C77.7641288,271.968085 78.2157742,278.936631 74.2071555,283.497591 C72.2245803,285.752651 69.4818411,287.076664 66.4835936,287.228131" id="Fill-18" fill="#FC6060" mask="url(#mask-2)"></path>
                    <path d="M49.0203923,244.394716 C48.0556097,240.787045 46.9805662,238.304256 46.9699642,238.279894 L52.384409,235.916795 C52.4352987,236.032249 53.6396866,238.803144 54.7274525,242.871572 L49.0203923,244.394716 Z M50.4315194,252.11742 C50.2502251,250.094328 49.8908171,247.951545 49.3638973,245.750506 L55.1101849,244.377769 C55.7038973,246.856322 56.108894,249.282973 56.3166933,251.589934 L50.4315194,252.11742 Z M55.9933321,260.719269 L50.1834324,259.655822 C50.440001,258.253427 50.5704057,256.726045 50.5704057,255.116045 C50.5704057,254.566315 50.5545027,254.018703 50.5279977,253.475328 L56.4269542,253.17769 C56.4608806,253.819572 56.4778438,254.46569 56.4778438,255.116045 C56.4778438,257.08194 56.3156331,258.967335 55.9933321,260.719269 L55.9933321,260.719269 Z M52.3621448,269.583802 L47.5562552,266.15196 C48.6206967,264.663769 49.4126666,262.901243 49.9109609,260.912045 L55.6424057,262.346216 C54.9617569,265.055677 53.8591482,267.490802 52.3621448,269.583802 L52.3621448,269.583802 Z M47.4735595,274.348131 L44.1381682,269.476822 C45.1474793,268.787276 46.0454692,267.987572 46.8109341,267.102072 L51.2871013,270.95442 C50.1876732,272.227591 48.9048304,273.36942 47.4735595,274.348131 L47.4735595,274.348131 Z" id="Fill-19" fill="#000000" mask="url(#mask-2)"></path>
                    <path d="M74.9610642,244.395246 C73.9952214,240.787575 72.9201779,238.304786 72.9095759,238.280424 L78.3240207,235.917325 C78.3749104,236.032779 79.5782381,238.802614 80.6681244,242.871042 L74.9610642,244.395246 Z M76.3721913,252.11795 C76.190897,250.093799 75.831489,247.951016 75.3045692,245.749976 L81.0508569,244.377239 C81.6445692,246.856851 82.0495659,249.282443 82.2573652,251.589404 L76.3721913,252.11795 Z M81.934004,260.719799 L76.1241043,259.656351 C76.3806729,258.253957 76.5110776,256.726575 76.5110776,255.116575 C76.5121378,254.563667 76.4962348,254.017114 76.4697298,253.474799 L82.3686863,253.177161 C82.4026127,253.821161 82.4195759,254.470457 82.4185157,255.120812 C82.4185157,257.08247 82.256305,258.967864 81.934004,260.719799 L81.934004,260.719799 Z M78.3028167,269.584332 L73.4969271,266.152489 C74.5613686,264.664299 75.3533385,262.901772 75.8516328,260.912575 L81.5830776,262.346746 C80.9024288,265.056207 79.7998201,267.491332 78.3028167,269.584332 L78.3028167,269.584332 Z M73.4142314,274.348661 L70.0788401,269.476292 C71.087091,268.787805 71.9861411,267.988101 72.751606,267.101542 L77.2277732,270.953891 C76.1283452,272.228121 74.8455023,273.36995 73.4142314,274.348661 L73.4142314,274.348661 Z" id="Fill-20" fill="#000000" mask="url(#mask-2)"></path>
                    <polygon id="Fill-21" fill="#FFFFFF" mask="url(#mask-2)" points="85.278195 245.410711 37.0910144 245.410711 38.2529943 209.030007 85.278195 209.030007"></polygon>
                    <polygon id="Fill-22" fill="#FFFFFF" mask="url(#mask-2)" points="171.553933 81.9182829 154.733849 43.3142961 196.607535 48.0637961"></polygon>
                    <path d="M172.81642,70.8080118 L186.34564,52.5260382 L163.733681,49.9616895 L172.81642,70.8080118 Z M201.106814,51.3873868 L176.053212,85.2418737 C174.864727,86.8486961 172.908657,87.6992421 170.922901,87.4736303 C168.936085,87.2480184 167.220681,85.9812026 166.422349,84.1498276 L149.603326,45.5458408 C148.804995,43.7144658 149.045661,41.5971039 150.234145,39.9902816 C151.42263,38.3845184 153.378701,37.5339724 155.365517,37.7595842 L197.238142,42.508025 C199.224958,42.7336368 200.940363,44.0004526 201.738694,45.8318276 C202.537025,47.6632026 202.295299,49.7816237 201.106814,51.3873868 L201.106814,51.3873868 Z" id="Fill-23" fill="#FFFFFF" mask="url(#mask-2)"></path>
                    <polygon id="Fill-24" fill="#FFFFFF" mask="url(#mask-2)" points="174.921448 47.928323 165.356318 60.8528099 134.151431 37.8033296 143.716562 24.8788428"></polygon>
                    <polygon id="Fill-25" fill="#0876F2" mask="url(#mask-2)" points="171.553933 81.9182829 162.07998 61.7392632 186.476257 61.7392632"></polygon>
                    <path d="M152.7306,59.6948809 C152.430563,58.6610914 152.114623,57.6209467 151.783841,56.5744467 L157.418807,54.7981507 C157.763373,55.8891375 158.092035,56.9737691 158.404794,58.049927 L152.7306,59.6948809 Z M154.756643,67.609302 C154.282734,65.4654599 153.73355,63.2697164 153.124995,61.0824467 L158.817212,59.5021046 C159.453332,61.7899993 160.027961,64.0884862 160.526256,66.3340125 L154.756643,67.609302 Z M156.234563,75.6222296 C155.916503,73.4624993 155.521048,71.2392164 155.058801,69.0148743 L160.842195,67.8147888 C161.328827,70.1524664 161.744426,72.4901441 162.079449,74.7642691 L156.234563,75.6222296 Z M157.102868,83.7008283 C156.9555,81.5029664 156.730737,79.2637954 156.432821,77.0458086 L162.289369,76.2619928 C162.604249,78.6092033 162.841734,80.9797164 162.998643,83.306802 L157.102868,83.7008283 Z M163.207503,91.9150059 L157.302185,91.8037888 C157.311727,91.2222822 157.318088,90.6365388 157.318088,90.0497362 C157.318088,88.4217296 157.27462,86.7672428 157.188744,85.1318217 L163.088761,84.8225322 C163.178878,86.5606967 163.225526,88.3189862 163.225526,90.0497362 C163.225526,90.6746704 163.220225,91.296427 163.207503,91.9150059 L163.207503,91.9150059 Z M162.648777,100.520032 L156.778446,99.8643809 C157.022292,97.6866441 157.184503,95.4548875 157.262958,93.2316046 L163.167215,93.4381507 C163.08452,95.8107822 162.910647,98.1940059 162.648777,100.520032 L162.648777,100.520032 Z M161.281118,109.036085 L155.499844,107.819052 C155.95255,105.676269 156.32574,103.476289 156.607754,101.279486 L162.468543,102.033644 C162.164266,104.384032 161.76457,106.740776 161.281118,109.036085 L161.281118,109.036085 Z M159.085443,117.385841 L153.453657,115.606368 C154.117342,113.509131 154.702573,111.356815 155.194506,109.209795 L160.953516,110.525335 C160.426597,112.829118 159.797898,115.137138 159.085443,117.385841 L159.085443,117.385841 Z M156.079774,125.479269 L150.648366,123.15748 C151.519851,121.124855 152.315001,119.039269 153.013674,116.960039 L158.614714,118.835901 C157.866212,121.065539 157.012751,123.301532 156.079774,125.479269 L156.079774,125.479269 Z M152.304399,133.241164 L147.118958,130.413072 C148.18446,128.463065 149.177868,126.461157 150.073737,124.463486 L155.465918,126.875309 C154.507496,129.013855 153.443055,131.155578 152.304399,133.241164 L152.304399,133.241164 Z M147.832473,140.607973 L142.922684,137.32442 C144.166299,135.469743 145.344182,133.564223 146.425587,131.658703 L151.564379,134.570473 C150.410881,136.602039 149.155603,138.632545 147.832473,140.607973 L147.832473,140.607973 Z M142.741389,147.546861 L138.126336,143.861868 C139.527921,142.108874 140.871195,140.307157 142.117991,138.507559 L146.975831,141.865256 C145.6527,143.776072 144.227791,145.687947 142.741389,147.546861 L142.741389,147.546861 Z M137.118085,154.038763 L132.800948,150.010585 C134.338239,148.365631 135.8257,146.671953 137.220924,144.976157 L141.785088,148.724703 C140.310349,150.515828 138.741252,152.303776 137.118085,154.038763 L137.118085,154.038763 Z M131.045256,160.087914 L127.021794,155.766335 C128.677827,154.22942 130.288272,152.643782 131.812841,151.054966 L136.078028,155.138223 C134.476065,156.808598 132.782924,158.473677 131.045256,160.087914 L131.045256,160.087914 Z M124.591814,165.705966 L120.852486,161.136532 C122.610299,159.701302 124.328884,158.222644 125.960533,156.741868 L129.932045,161.110052 C128.225122,162.659677 126.428082,164.206124 124.591814,165.705966 L124.591814,165.705966 Z M117.819252,170.913045 L114.351336,166.134947 C116.192904,164.800341 118.001607,163.424427 119.728674,162.044276 L123.419232,166.65396 C121.620072,168.091309 119.736095,169.52442 117.819252,170.913045 L117.819252,170.913045 Z M110.7827,175.731394 L107.570292,170.777466 C109.482894,169.540309 111.367931,168.261841 113.174513,166.979138 L116.597901,171.790072 C114.721346,173.121499 112.765276,174.447631 110.7827,175.731394 L110.7827,175.731394 Z M103.520326,180.183256 L100.550704,175.082098 C102.526918,173.933914 104.477687,172.748657 106.348941,171.560223 L109.516821,176.54169 C107.581955,177.771434 105.564393,178.995881 103.520326,180.183256 L103.520326,180.183256 Z M96.0692355,184.294052 L93.3275565,179.06473 C95.3408776,178.011874 97.3478375,176.914532 99.2901251,175.807657 L102.21946,180.932118 C100.21568,182.076065 98.1461686,183.206243 96.0692355,184.294052 L96.0692355,184.294052 Z M88.4569946,188.07967 L85.9326569,182.743368 C88.0032288,181.764657 90.0578977,180.753111 92.0362321,179.73521 L94.7386836,184.983598 C92.7020381,186.030098 90.5890582,187.072361 88.4569946,188.07967 L88.4569946,188.07967 Z M80.7048074,191.557059 L78.3893291,186.127545 C80.4789846,185.237809 82.5728809,184.306762 84.6148274,183.359828 L87.1020582,188.714137 C85.0028609,189.686493 82.8517137,190.64296 80.7048074,191.557059 L80.7048074,191.557059 Z M72.8264562,194.737868 L70.7145365,189.225736 C72.8275164,188.417559 74.9574595,187.565953 77.0449946,186.693164 L79.3254863,192.138565 C77.1807003,193.034657 74.9956268,193.908506 72.8264562,194.737868 L72.8264562,194.737868 Z M64.8336033,197.627394 L62.9263023,192.040059 C65.0626067,191.312381 67.2243559,190.539157 69.348998,189.742631 L71.4259311,195.268532 C69.2440381,196.086243 67.0260983,196.879591 64.8336033,197.627394 L64.8336033,197.627394 Z M56.7230682,200.215045 L55.0394696,194.556743 C57.1704729,193.924394 59.3587271,193.234848 61.5416803,192.50717 L63.4118742,198.105098 C61.1674294,198.85396 58.9166234,199.563631 56.7230682,200.215045 L56.7230682,200.215045 Z M48.3856502,202.459513 L47.0964462,196.699526 C47.1208308,196.69317 49.5635331,196.14344 53.6410649,194.966657 L55.2811953,200.63767 C51.0096468,201.870591 48.4916702,202.435151 48.3856502,202.459513 L48.3856502,202.459513 Z" id="Fill-26" fill="#000000" mask="url(#mask-2)"></path>
                    <polygon id="Fill-27" fill="#000000" mask="url(#mask-2)" points="72.3300702 244.835454 74.6635719 244.835454 74.6635719 208.862546 72.3300702 208.862546"></polygon>
                    <path d="M70.6042756,213.945591 C70.6042756,215.665749 69.2090515,217.05967 67.4872856,217.05967 C65.7655197,217.05967 64.3702957,215.665749 64.3702957,213.945591 C64.3702957,212.225434 65.7655197,210.831512 67.4872856,210.831512 C69.2090515,210.831512 70.6042756,212.225434 70.6042756,213.945591" id="Fill-28" fill="#000000" mask="url(#mask-2)"></path>
                    <path d="M70.6042756,227.796676 C70.6042756,229.516834 69.2090515,230.910755 67.4872856,230.910755 C65.7655197,230.910755 64.3702957,229.516834 64.3702957,227.796676 C64.3702957,226.076518 65.7655197,224.682597 67.4872856,224.682597 C69.2090515,224.682597 70.6042756,226.076518 70.6042756,227.796676" id="Fill-29" fill="#000000" mask="url(#mask-2)"></path>
                    <polygon id="Fill-30" fill="#0876F2" mask="url(#mask-2)" points="102.332689 218.146526 111.625348 218.146526 111.625348 215.825796 102.332689 215.825796"></polygon>
                    <polygon id="Fill-31" fill="#0876F2" mask="url(#mask-2)" points="102.332689 225.108717 111.625348 225.108717 111.625348 222.787987 102.332689 222.787987"></polygon>
                    <polygon id="Fill-32" fill="#0876F2" mask="url(#mask-2)" points="102.332689 232.070908 111.625348 232.070908 111.625348 229.750178 102.332689 229.750178"></polygon>
                    <polygon id="Fill-33" fill="#FFFFFF" mask="url(#mask-2)" points="199.241391 234.405408 210.709582 234.405408 210.709582 183.751842 199.241391 183.751842"></polygon>
                    <path d="M210.752414,234.680591 C210.752414,238.007571 208.171886,240.70538 204.989163,240.70538 C201.806441,240.70538 199.226973,238.007571 199.226973,234.680591 C199.226973,231.353611 201.806441,228.655801 204.989163,228.655801 C208.171886,228.655801 210.752414,231.353611 210.752414,234.680591" id="Fill-34" fill="#FFFFFF" mask="url(#mask-2)"></path>
                    <polygon id="Fill-35" fill="#F2DF08" mask="url(#mask-2)" points="197.637308 198.950454 204.788361 198.950454 204.788361 197.163566 197.637308 197.163566"></polygon>
                    <polygon id="Fill-36" fill="#F2DF08" mask="url(#mask-2)" points="197.637308 204.704086 204.788361 204.704086 204.788361 202.917197 197.637308 202.917197"></polygon>
                    <polygon id="Fill-37" fill="#F2DF08" mask="url(#mask-2)" points="197.637308 210.456658 204.788361 210.456658 204.788361 208.66977 197.637308 208.66977"></polygon>
                    <polygon id="Fill-38" fill="#FFFFFF" mask="url(#mask-2)" points="239.894786 157.817072 251.362977 157.817072 251.362977 107.163507 239.894786 107.163507"></polygon>
                    <path d="M251.405385,158.092255 C251.405385,161.419236 248.824856,164.117045 245.642134,164.117045 C242.459411,164.117045 239.879943,161.419236 239.879943,158.092255 C239.879943,154.765275 242.459411,152.067466 245.642134,152.067466 C248.824856,152.067466 251.405385,154.765275 251.405385,158.092255" id="Fill-39" fill="#FFFFFF" mask="url(#mask-2)"></path>
                    <polygon id="Fill-40" fill="#F2DF08" mask="url(#mask-2)" points="238.289642 122.362118 245.440696 122.362118 245.440696 120.57523 238.289642 120.57523"></polygon>
                    <polygon id="Fill-41" fill="#F2DF08" mask="url(#mask-2)" points="238.289642 128.11575 245.440696 128.11575 245.440696 126.328862 238.289642 126.328862"></polygon>
                    <polygon id="Fill-42" fill="#F2DF08" mask="url(#mask-2)" points="238.289642 133.868322 245.440696 133.868322 245.440696 132.081434 238.289642 132.081434"></polygon>
                    <polygon id="Fill-43" fill="#000000" mask="url(#mask-2)" points="242.29614 158.086112 248.972224 158.086112 248.972224 146.672059 242.29614 146.672059"></polygon>
                    <path d="M248.997457,158.246476 C248.997457,160.183772 247.495153,161.753522 245.641922,161.753522 C243.789751,161.753522 242.287447,160.183772 242.287447,158.246476 C242.287447,156.30918 243.789751,154.73943 245.641922,154.73943 C247.495153,154.73943 248.997457,156.30918 248.997457,158.246476" id="Fill-44" fill="#000000" mask="url(#mask-2)"></path>
                    <path d="M53.6009893,153.715809 C53.6009893,153.715809 53.9434341,159.756487 63.5414308,159.756487 C73.1383672,159.756487 73.1383672,153.990145 73.1383672,153.990145" id="Fill-45" fill="#FC6060" mask="url(#mask-2)"></path>
                    <path d="M63.5412187,161.761361 C54.449998,161.761361 51.7539077,156.573347 51.596998,153.828933 L55.6013759,153.563071 C55.6437839,153.992051 56.2279545,157.752249 63.5412187,157.752249 C70.7325599,157.752249 71.1142321,154.334176 71.1333157,153.944387 L75.1451151,153.990992 C75.1451151,154.068314 75.01259,161.761361 63.5412187,161.761361" id="Fill-46" fill="#000000" mask="url(#mask-2)"></path>
                    <path d="M85.4908712,122.687826 C85.4908712,135.505332 75.0903027,145.896187 62.2608144,145.896187 C49.4313261,145.896187 39.0307575,135.505332 39.0307575,122.687826 C39.0307575,109.870319 49.4313261,104.524484 62.2608144,104.524484 C75.0903027,104.524484 85.4908712,109.870319 85.4908712,122.687826" id="Fill-47" fill="#FFFFFF" mask="url(#mask-2)"></path>
                    <path d="M62.2603903,106.542703 C55.8822231,106.542703 41.0500157,108.115631 41.0500157,122.688249 C41.0500157,134.372401 50.5653167,143.878815 62.2603903,143.878815 C73.9554639,143.878815 83.4707649,134.372401 83.4707649,122.688249 C83.4707649,108.115631 68.6385575,106.542703 62.2603903,106.542703 M62.2603903,147.914407 C48.3367749,147.914407 37.0106512,136.597802 37.0106512,122.688249 C37.0106512,110.050809 46.4496177,102.506052 62.2603903,102.506052 C78.0711629,102.506052 87.5101294,110.050809 87.5101294,122.688249 C87.5101294,136.597802 76.1840057,147.914407 62.2603903,147.914407" id="Fill-48" fill="#000000" mask="url(#mask-2)"></path>
                    <path d="M63.3713746,127.329816 L77.0066154,127.329816 L77.0066154,113.707309 L63.3713746,113.707309 L63.3713746,127.329816 Z M69.1791538,121.527461 L71.1988361,121.527461 L71.1988361,119.509664 L69.1791538,119.509664 L69.1791538,121.527461 Z" id="Fill-49" fill="#000000" mask="url(#mask-2)"></path>
                    <polygon id="Fill-50" fill="#0876F2" mask="url(#mask-2)" points="275.396666 3.75701974 316.05006 3.75701974 316.05006 0.855842105 275.396666 0.855842105"></polygon>
                    <polygon id="Fill-51" fill="#0876F2" mask="url(#mask-2)" points="275.396666 9.559375 316.05006 9.559375 316.05006 6.65819737 275.396666 6.65819737"></polygon>
                    <polygon id="Fill-52" fill="#0876F2" mask="url(#mask-2)" points="275.396666 15.3606711 316.05006 15.3606711 316.05006 12.4594934 275.396666 12.4594934"></polygon>
                    <polygon id="Fill-53" fill="#0876F2" mask="url(#mask-2)" points="275.396666 21.1630263 316.05006 21.1630263 316.05006 18.2618487 275.396666 18.2618487"></polygon>
                    <polygon id="Fill-54" fill="#0876F2" mask="url(#mask-2)" points="275.396666 26.9653816 316.05006 26.9653816 316.05006 24.0642039 275.396666 24.0642039"></polygon>
                    <polygon id="Fill-55" fill="#0876F2" mask="url(#mask-2)" points="275.396666 33.1543487 316.05006 33.1543487 316.05006 30.2531711 275.396666 30.2531711"></polygon>
                    <polygon id="Fill-56" fill="#0876F2" mask="url(#mask-2)" points="275.396666 38.9567039 316.05006 38.9567039 316.05006 36.0555263 275.396666 36.0555263"></polygon>
                    <polygon id="Fill-57" fill="#0876F2" mask="url(#mask-2)" points="275.396666 44.7590592 316.05006 44.7590592 316.05006 41.8578816 275.396666 41.8578816"></polygon>
                    <polygon id="Fill-58" fill="#0876F2" mask="url(#mask-2)" points="275.396666 50.5603553 316.05006 50.5603553 316.05006 47.6591776 275.396666 47.6591776"></polygon>
                    <polygon id="Fill-59" fill="#0876F2" mask="url(#mask-2)" points="275.396666 56.3627105 316.05006 56.3627105 316.05006 53.4615329 275.396666 53.4615329"></polygon>
                    <polygon id="Fill-60" fill="#0876F2" mask="url(#mask-2)" points="275.396666 62.5516776 316.05006 62.5516776 316.05006 59.6505 275.396666 59.6505"></polygon>
                    <polygon id="Fill-61" fill="#0876F2" mask="url(#mask-2)" points="275.396666 68.3540329 316.05006 68.3540329 316.05006 65.4528553 275.396666 65.4528553"></polygon>
                    <polygon id="Fill-62" fill="#0876F2" mask="url(#mask-2)" points="275.396666 74.1563882 316.05006 74.1563882 316.05006 71.2552105 275.396666 71.2552105"></polygon>
                    <polygon id="Fill-63" fill="#0876F2" mask="url(#mask-2)" points="275.396666 79.9587434 316.05006 79.9587434 316.05006 77.0575658 275.396666 77.0575658"></polygon>
                    <polygon id="Fill-64" fill="#0876F2" mask="url(#mask-2)" points="275.396666 85.7600395 316.05006 85.7600395 316.05006 82.8588618 275.396666 82.8588618"></polygon>
                    <polygon id="Fill-65" fill="#0876F2" mask="url(#mask-2)" points="275.396666 91.9500658 316.05006 91.9500658 316.05006 89.0488882 275.396666 89.0488882"></polygon>
                    <polygon id="Fill-66" fill="#0876F2" mask="url(#mask-2)" points="275.396666 97.7513618 316.05006 97.7513618 316.05006 94.8501842 275.396666 94.8501842"></polygon>
                    <polygon id="Fill-67" fill="#0876F2" mask="url(#mask-2)" points="275.396666 103.553717 316.05006 103.553717 316.05006 100.652539 275.396666 100.652539"></polygon>
                    <polygon id="Fill-68" fill="#0876F2" mask="url(#mask-2)" points="275.396666 109.356072 316.05006 109.356072 316.05006 106.454895 275.396666 106.454895"></polygon>
                    <polygon id="Fill-69" fill="#0876F2" mask="url(#mask-2)" points="275.396666 115.158428 316.05006 115.158428 316.05006 112.25725 275.396666 112.25725"></polygon>
                    <polygon id="Fill-70" fill="#0876F2" mask="url(#mask-2)" points="275.396666 121.346336 316.05006 121.346336 316.05006 118.445158 275.396666 118.445158"></polygon>
                    <polygon id="Fill-71" fill="#0876F2" mask="url(#mask-2)" points="275.396666 127.14975 316.05006 127.14975 316.05006 124.248572 275.396666 124.248572"></polygon>
                    <polygon id="Fill-72" fill="#0876F2" mask="url(#mask-2)" points="275.396666 132.952105 316.05006 132.952105 316.05006 130.050928 275.396666 130.050928"></polygon>
                    <polygon id="Fill-73" fill="#0876F2" mask="url(#mask-2)" points="275.396666 138.753401 316.05006 138.753401 316.05006 135.852224 275.396666 135.852224"></polygon>
                    <polygon id="Fill-74" fill="#0876F2" mask="url(#mask-2)" points="275.396666 144.555757 316.05006 144.555757 316.05006 141.654579 275.396666 141.654579"></polygon>
                    <polygon id="Fill-75" fill="#0876F2" mask="url(#mask-2)" points="275.396666 150.744724 316.05006 150.744724 316.05006 147.843546 275.396666 147.843546"></polygon>
                    <polygon id="Fill-76" fill="#0876F2" mask="url(#mask-2)" points="275.396666 156.547079 316.05006 156.547079 316.05006 153.645901 275.396666 153.645901"></polygon>
                    <polygon id="Fill-77" fill="#0876F2" mask="url(#mask-2)" points="275.396666 162.348375 316.05006 162.348375 316.05006 159.447197 275.396666 159.447197"></polygon>
                    <polygon id="Fill-78" fill="#0876F2" mask="url(#mask-2)" points="275.396666 168.15073 316.05006 168.15073 316.05006 165.249553 275.396666 165.249553"></polygon>
                    <polygon id="Fill-79" fill="#0876F2" mask="url(#mask-2)" points="275.396666 173.953086 316.05006 173.953086 316.05006 171.051908 275.396666 171.051908"></polygon>
                    <polygon id="Fill-80" fill="#0876F2" mask="url(#mask-2)" points="275.396666 180.142053 316.05006 180.142053 316.05006 177.240875 275.396666 177.240875"></polygon>
                    <polygon id="Fill-81" fill="#0876F2" mask="url(#mask-2)" points="275.396666 185.944408 316.05006 185.944408 316.05006 183.04323 275.396666 183.04323"></polygon>
                    <polygon id="Fill-82" fill="#0876F2" mask="url(#mask-2)" points="275.396666 191.746763 316.05006 191.746763 316.05006 188.845586 275.396666 188.845586"></polygon>
                    <polygon id="Fill-83" fill="#0876F2" mask="url(#mask-2)" points="275.396666 197.548059 316.05006 197.548059 316.05006 194.646882 275.396666 194.646882"></polygon>
                    <polygon id="Fill-84" fill="#0876F2" mask="url(#mask-2)" points="275.396666 203.350414 316.05006 203.350414 316.05006 200.449237 275.396666 200.449237"></polygon>
                    <polygon id="Fill-85" fill="#0876F2" mask="url(#mask-2)" points="275.396666 209.539382 316.05006 209.539382 316.05006 206.638204 275.396666 206.638204"></polygon>
                    <polygon id="Fill-86" fill="#0876F2" mask="url(#mask-2)" points="275.396666 215.341737 316.05006 215.341737 316.05006 212.440559 275.396666 212.440559"></polygon>
                    <polygon id="Fill-87" fill="#0876F2" mask="url(#mask-2)" points="275.396666 221.144092 316.05006 221.144092 316.05006 218.242914 275.396666 218.242914"></polygon>
                    <polygon id="Fill-88" fill="#0876F2" mask="url(#mask-2)" points="275.396666 226.946447 316.05006 226.946447 316.05006 224.04527 275.396666 224.04527"></polygon>
                    <polygon id="Fill-89" fill="#0876F2" mask="url(#mask-2)" points="275.396666 232.747743 316.05006 232.747743 316.05006 229.846566 275.396666 229.846566"></polygon>
                    <polygon id="Fill-90" fill="#0876F2" mask="url(#mask-2)" points="275.396666 238.93777 316.05006 238.93777 316.05006 236.036592 275.396666 236.036592"></polygon>
                    <polygon id="Fill-91" fill="#0876F2" mask="url(#mask-2)" points="275.396666 244.739066 316.05006 244.739066 316.05006 241.837888 275.396666 241.837888"></polygon>
                    <polygon id="Fill-92" fill="#0876F2" mask="url(#mask-2)" points="275.396666 250.541421 316.05006 250.541421 316.05006 247.640243 275.396666 247.640243"></polygon>
                    <polygon id="Fill-93" fill="#0876F2" mask="url(#mask-2)" points="275.396666 256.343776 316.05006 256.343776 316.05006 253.442599 275.396666 253.442599"></polygon>
                    <polygon id="Fill-94" fill="#0876F2" mask="url(#mask-2)" points="275.396666 262.146132 316.05006 262.146132 316.05006 259.244954 275.396666 259.244954"></polygon>
                    <polygon id="Fill-95" fill="#0876F2" mask="url(#mask-2)" points="275.396666 268.334039 316.05006 268.334039 316.05006 265.432862 275.396666 265.432862"></polygon>
                    <polygon id="Fill-96" fill="#0876F2" mask="url(#mask-2)" points="275.396666 274.136395 316.05006 274.136395 316.05006 271.235217 275.396666 271.235217"></polygon>
                    <polygon id="Fill-97" fill="#0876F2" mask="url(#mask-2)" points="275.396666 279.93875 316.05006 279.93875 316.05006 277.037572 275.396666 277.037572"></polygon>
                    <polygon id="Fill-98" fill="#0876F2" mask="url(#mask-2)" points="275.396666 285.741105 316.05006 285.741105 316.05006 282.839928 275.396666 282.839928"></polygon>
                    <polygon id="Fill-99" fill="#0876F2" mask="url(#mask-2)" points="275.396666 291.543461 316.05006 291.543461 316.05006 288.642283 275.396666 288.642283"></polygon>
                    <polygon id="Fill-100" fill="#0876F2" mask="url(#mask-2)" points="275.396666 297.732428 316.05006 297.732428 316.05006 294.83125 275.396666 294.83125"></polygon>
                    <polygon id="Fill-101" fill="#0876F2" mask="url(#mask-2)" points="275.396666 303.534783 316.05006 303.534783 316.05006 300.633605 275.396666 300.633605"></polygon>
                    <polygon id="Fill-102" fill="#0876F2" mask="url(#mask-2)" points="275.396666 309.336079 316.05006 309.336079 316.05006 306.434901 275.396666 306.434901"></polygon>
                    <polygon id="Fill-103" fill="#0876F2" mask="url(#mask-2)" points="275.396666 315.138434 316.05006 315.138434 316.05006 312.237257 275.396666 312.237257"></polygon>
                    <polygon id="Fill-104" fill="#0876F2" mask="url(#mask-2)" points="275.396666 320.940789 316.05006 320.940789 316.05006 318.039612 275.396666 318.039612"></polygon>
                    <polygon id="Fill-105" fill="#FFFFFF" mask="url(#mask-2)" points="194.893614 156.893864 210.157323 130.480332 225.421032 156.893864"></polygon>
                    <path d="M201.915005,152.843338 L218.400066,152.843338 L210.158066,138.581068 L201.915005,152.843338 Z M225.420714,160.94418 L194.893296,160.94418 C193.444002,160.94418 192.107089,160.170956 191.382972,158.91791 C190.657795,157.664864 190.657795,156.121594 191.382972,154.868548 L206.647741,128.455015 C207.371858,127.201969 208.708771,126.429805 210.158066,126.429805 C211.6063,126.429805 212.943213,127.201969 213.66839,128.456074 L228.931039,154.868548 C229.656216,156.121594 229.656216,157.665923 228.931039,158.91791 C228.206922,160.170956 226.870009,160.94418 225.420714,160.94418 L225.420714,160.94418 Z" id="Fill-106" fill="#FFFFFF" mask="url(#mask-2)"></path>
                    <polygon id="Fill-107" fill="#FFFFFF" mask="url(#mask-2)" points="204.506348 144.21575 216.161134 144.21575 216.161134 116.129724 204.506348 116.129724"></polygon>
                    <polygon id="Fill-108" fill="#FFFFFF" mask="url(#mask-2)" points="239.894786 310.243822 251.362977 310.243822 251.362977 259.590257 239.894786 259.590257"></polygon>
                    <path d="M251.405385,310.518899 C251.405385,313.84588 248.824856,316.543689 245.642134,316.543689 C242.459411,316.543689 239.879943,313.84588 239.879943,310.518899 C239.879943,307.191919 242.459411,304.49411 245.642134,304.49411 C248.824856,304.49411 251.405385,307.191919 251.405385,310.518899" id="Fill-109" fill="#FFFFFF" mask="url(#mask-2)"></path>
                    <polygon id="Fill-110" fill="#F2DF08" mask="url(#mask-2)" points="238.289642 274.788868 245.440696 274.788868 245.440696 273.00198 238.289642 273.00198"></polygon>
                    <polygon id="Fill-111" fill="#F2DF08" mask="url(#mask-2)" points="238.289642 280.541441 245.440696 280.541441 245.440696 278.754553 238.289642 278.754553"></polygon>
                    <polygon id="Fill-112" fill="#F2DF08" mask="url(#mask-2)" points="238.289642 286.295072 245.440696 286.295072 245.440696 284.508184 238.289642 284.508184"></polygon>
                    <polygon id="Fill-113" fill="#FC6060" mask="url(#mask-2)" points="242.29614 310.512862 248.972224 310.512862 248.972224 289.565914 242.29614 289.565914"></polygon>
                    <path d="M248.997457,310.67312 C248.997457,312.610416 247.495153,314.180166 245.641922,314.180166 C243.789751,314.180166 242.287447,312.610416 242.287447,310.67312 C242.287447,308.735824 243.789751,307.166074 245.641922,307.166074 C247.495153,307.166074 248.997457,308.735824 248.997457,310.67312" id="Fill-114" fill="#FC6060" mask="url(#mask-2)"></path>
                    <polygon id="Fill-115" fill="#FFFFFF" mask="url(#mask-2)" points="194.893614 309.320403 210.157323 282.90687 225.421032 309.320403"></polygon>
                    <path d="M201.915005,305.269982 L218.400066,305.269982 L210.158066,291.007712 L201.915005,305.269982 Z M225.420714,313.370824 L194.893296,313.370824 C193.444002,313.370824 192.107089,312.5976 191.382972,311.344554 C190.657795,310.091508 190.657795,308.548238 191.382972,307.295192 L206.647741,280.881659 C207.371858,279.628613 208.708771,278.856449 210.158066,278.856449 C211.6063,278.856449 212.943213,279.628613 213.66839,280.882718 L228.931039,307.295192 C229.656216,308.548238 229.656216,310.092567 228.931039,311.344554 C228.206922,312.5976 226.870009,313.370824 225.420714,313.370824 L225.420714,313.370824 Z" id="Fill-116" fill="#FFFFFF" mask="url(#mask-2)"></path>
                    <polygon id="Fill-117" fill="#FFFFFF" mask="url(#mask-2)" points="204.506348 296.6425 216.161134 296.6425 216.161134 265.378842 204.506348 265.378842"></polygon>
                    <polygon id="Fill-118" fill="#0876F2" mask="url(#mask-2)" points="225.841402 79.8011329 241.105111 53.3876 256.36882 79.8011329"></polygon>
                    <path d="M232.862793,75.7507118 L249.347853,75.7507118 L241.105853,61.4884421 L232.862793,75.7507118 Z M256.368502,83.8515539 L225.841084,83.8515539 C224.39179,83.8515539 223.054877,83.0783303 222.33076,81.8252842 C221.605582,80.5722382 221.605582,79.0289684 222.33076,77.7759224 L237.595529,51.3623895 C238.319646,50.1093434 239.656559,49.3371789 241.105853,49.3371789 C242.554087,49.3371789 243.891,50.1093434 244.616178,51.3634487 L259.878826,77.7759224 C260.604004,79.0289684 260.604004,80.5732974 259.878826,81.8252842 C259.154709,83.0783303 257.817796,83.8515539 256.368502,83.8515539 L256.368502,83.8515539 Z" id="Fill-119" fill="#0876F2" mask="url(#mask-2)"></path>
                    <polygon id="Fill-120" fill="#0876F2" mask="url(#mask-2)" points="235.453605 67.1232303 247.108391 67.1232303 247.108391 39.0372039 235.453605 39.0372039"></polygon>
                    <polygon id="Fill-121" fill="#FFFFFF" mask="url(#mask-2)" points="234.344211 233.090398 231.380951 231.936918 248.836094 187.176799 251.799355 188.33028"></polygon>
                    <polygon id="Fill-122" fill="#0876F2" mask="url(#mask-2)" points="225.841402 236.564291 241.105111 210.150758 256.36882 236.564291"></polygon>
                    <path d="M232.862793,232.51387 L249.347853,232.51387 L241.105853,218.2516 L232.862793,232.51387 Z M256.368502,240.613653 L225.841084,240.613653 C224.39179,240.613653 223.054877,239.841488 222.33076,238.588442 C221.605582,237.335396 221.605582,235.792126 222.33076,234.53908 L237.595529,208.125547 C238.319646,206.872501 239.656559,206.100337 241.105853,206.100337 C242.554087,206.100337 243.891,206.872501 244.616178,208.126607 L259.878826,234.53908 C260.604004,235.792126 260.604004,237.336455 259.878826,238.588442 C259.154709,239.841488 257.817796,240.613653 256.368502,240.613653 L256.368502,240.613653 Z" id="Fill-123" fill="#0876F2" mask="url(#mask-2)"></path>
                    <polygon id="Fill-124" fill="#0876F2" mask="url(#mask-2)" points="235.453605 223.886388 247.108391 223.886388 247.108391 203.214836 235.453605 203.214836"></polygon>
                    <path d="M152.236653,59.9354276 C147.759425,59.9354276 143.436987,57.4875921 141.265696,53.2390987 C139.744308,50.2574211 139.498341,46.871125 140.576566,43.7030263 L149.779107,46.8266382 C149.648703,47.2111316 149.492853,47.9822368 149.923295,48.8243092 C150.570017,50.0879474 152.124271,50.5889539 153.38591,49.9449539 C153.998706,49.6324868 154.452472,49.1007632 154.664512,48.4472303 C154.876552,47.7947566 154.821422,47.0977961 154.508663,46.4866316 C154.202265,45.885 153.680646,45.4358947 153.042405,45.2187566 L156.162576,36.0226908 C159.212773,37.0554211 161.700004,39.2035 163.166261,42.0707829 C164.659024,44.9931447 164.923014,48.3211842 163.910522,51.4416184 C162.89803,54.5620526 160.72992,57.1020395 157.804826,58.5934079 C156.020509,59.5043289 154.114268,59.9354276 152.236653,59.9354276" id="Fill-125" fill="#FC6060" mask="url(#mask-2)"></path>
                    <polygon id="Fill-126" fill="#0876F2" mask="url(#mask-2)" points="187.123298 96.3013026 264.945207 96.3013026 264.945207 87.0183816 187.123298 87.0183816"></polygon>
                    <polygon id="Fill-127" fill="#0876F2" mask="url(#mask-2)" points="187.123298 175.210368 264.945207 175.210368 264.945207 165.927447 187.123298 165.927447"></polygon>
                    <polygon id="Fill-128" fill="#0876F2" mask="url(#mask-2)" points="187.123298 254.119434 264.945207 254.119434 264.945207 244.836513 187.123298 244.836513"></polygon>
                    <polygon id="Fill-129" fill="#F2DF08" mask="url(#mask-2)" points="118.057585 246.539724 120.575562 246.539724 120.575562 233.431993 118.057585 233.431993"></polygon>
                </g>
            </g>
        </g>
    </g>
</svg>