<?xml version="1.0" encoding="UTF-8" standalone="no"?>
<svg width="225px" height="225px" viewBox="0 0 225 225" version="1.1" xmlns="http://www.w3.org/2000/svg" xmlns:xlink="http://www.w3.org/1999/xlink">
    <!-- Generator: Sketch 40 (33762) - http://www.bohemiancoding.com/sketch -->
    <title>Page 1</title>
    <desc>Created with Sketch.</desc>
    <defs></defs>
    <g id="Page-1" stroke="none" stroke-width="1" fill="none" fill-rule="evenodd">
        <g id="Artboard" transform="translate(-1312.000000, -819.000000)">
            <g id="Page-1" transform="translate(1312.000000, 819.000000)">
                <polygon id="Fill-1" fill="#00853E" points="0 224.547109 224.547109 224.547109 224.547109 0 0 0"></polygon>
                <g id="Group-30" transform="translate(33.244111, 33.273019)">
                    <path d="M93.1480728,100.370043 L64.9108137,100.370043 C62.9407388,100.370043 61.6273555,99.0566595 61.6273555,97.0865846 C61.6273555,95.1165096 62.9407388,93.8031263 64.9108137,93.8031263 L93.1480728,93.8031263 C94.7900428,93.8031263 96.431531,95.1165096 96.431531,97.0865846 C96.431531,99.0566595 95.1181478,100.370043 93.1480728,100.370043 M93.1480728,113.831981 L64.9108137,113.831981 C62.9407388,113.831981 61.6273555,112.518597 61.6273555,110.548522 C61.6273555,108.578448 62.9407388,107.265064 64.9108137,107.265064 L93.1480728,107.265064 C94.7900428,107.265064 96.431531,108.578448 96.431531,110.548522 C96.431531,112.518597 95.1181478,113.831981 93.1480728,113.831981 M154.548019,37.9578373 L146.011028,37.9578373 L146.011028,19.2423662 C146.011028,8.73529979 139.116006,0.19879015 130.579015,0.19879015 L27.4798715,0.19879015 C18.9428801,0.19879015 12.0478587,8.73529979 12.0478587,19.2423662 L12.0478587,24.1673126 L12.0478587,37.6297323 L3.51086724,37.6297323 C1.54079229,37.6297323 0.227408994,38.9431156 0.227408994,40.9127088 L0.227408994,64.2250214 C0.227408994,66.1950964 1.54079229,67.5084797 3.51086724,67.5084797 C5.48094218,67.5084797 6.79432548,66.1950964 6.79432548,64.2250214 L6.79432548,44.196167 L12.0478587,44.196167 L12.0478587,131.863779 C12.0478587,133.833854 13.3607602,135.147238 15.3308351,135.147238 L17.3009101,135.147238 L17.3009101,147.952484 C17.3009101,153.534122 21.5696467,157.802377 27.1512848,157.802377 L39.6284261,157.802377 C45.2100642,157.802377 49.4788009,153.534122 49.4788009,147.952484 L49.4788009,135.147238 L108.580086,135.147238 L108.580086,147.952484 C108.580086,153.534122 112.84834,157.802377 118.43046,157.802377 L130.907602,157.802377 C136.48924,157.802377 140.757495,153.534122 140.757495,147.952484 L140.757495,135.147238 L142.72757,135.147238 C144.697645,135.147238 146.011028,133.833854 146.011028,131.863779 L146.011028,44.5247537 L151.264561,44.5247537 L151.264561,64.5536081 C151.264561,66.5236831 152.577944,67.8370664 154.548019,67.8370664 C156.518094,67.8370664 157.831478,66.5236831 157.831478,64.5536081 L157.831478,41.2412955 C157.831478,39.2712206 156.518094,37.9578373 154.548019,37.9578373" id="Fill-2" fill="#FFFFFF"></path>
                    <path d="M93.1480728,93.8032227 L64.9108137,93.8032227 C62.9407388,93.8032227 61.6273555,95.116606 61.6273555,97.0866809 C61.6273555,99.0567559 62.9407388,100.370139 64.9108137,100.370139 L93.1480728,100.370139 C95.1181478,100.370139 96.431531,99.0567559 96.431531,97.0866809 C96.431531,95.116606 94.7900428,93.8032227 93.1480728,93.8032227" id="Fill-4" fill="#FFFFFF"></path>
                    <path d="M93.1480728,107.265209 L64.9108137,107.265209 C62.9407388,107.265209 61.6273555,108.578592 61.6273555,110.548667 C61.6273555,112.518742 62.9407388,113.832125 64.9108137,113.832125 L93.1480728,113.832125 C95.1181478,113.832125 96.431531,112.518742 96.431531,110.548667 C96.431531,108.578592 94.7900428,107.265209 93.1480728,107.265209" id="Fill-6" fill="#FFFFFF"></path>
                    <polygon id="Fill-8" fill="#000000" points="41.5934904 28.9065257 36.7995931 28.9065257 36.7995931 17.3356478 32.441242 17.3356478 32.441242 13.3482816 45.9513597 13.3482816 45.9513597 17.3356478 41.5934904 17.3356478"></polygon>
                    <path d="M55.1328051,20.146606 C55.568833,20.146606 56.1137473,20.1032441 56.5276124,19.8854711 C56.9414775,19.6672163 57.2469379,19.2967131 57.2469379,18.5995503 C57.2469379,17.6190899 56.7020236,17.0524946 54.8716702,17.0524946 L52.6274518,17.0524946 L52.6274518,20.146606 L55.1328051,20.146606 Z M56.9636403,13.3484261 C58.335803,13.3484261 59.5783619,13.7184475 60.5154604,14.459454 C61.4520771,15.1999786 62.0408351,16.3114882 62.0408351,17.7935011 C62.0408351,18.5995503 61.844743,19.4277623 61.473758,20.1249251 C61.1037366,20.8220878 60.4932976,21.4108458 59.7089293,21.6941435 C61.016531,22.1952141 61.8225803,23.6329015 61.9969914,25.5726231 C62.0186724,25.7687152 62.0186724,26.0081692 62.0408351,26.3136296 C62.0625161,26.6186081 62.084197,26.9235867 62.1280407,27.2502463 C62.1930835,27.9045289 62.2802891,28.557848 62.519743,28.9066702 L57.7263276,28.9066702 C57.4863919,28.1223019 57.3991863,27.3157709 57.3336617,26.5097216 C57.2686188,25.7903961 57.2030942,25.0277088 56.9197966,24.4394325 C56.6364989,23.8506745 56.1354283,23.4806531 55.1766488,23.4806531 L52.6274518,23.4806531 L52.6274518,28.9066702 L47.8335546,28.9066702 L47.8335546,13.3484261 L56.9636403,13.3484261 Z" id="Fill-10" fill="#000000"></path>
                    <path d="M69.8064668,24.5482227 C70.416424,25.1803426 71.2012741,25.3985974 71.8107495,25.3985974 C72.4211884,25.3985974 73.2055567,25.1803426 73.8155139,24.5482227 C74.4259529,23.9382655 74.9053426,22.8705996 74.9053426,21.12697 C74.9053426,19.3838223 74.4259529,18.3161563 73.8155139,17.6845182 C73.2055567,17.0740792 72.4211884,16.8563062 71.8107495,16.8563062 C71.2012741,16.8563062 70.416424,17.0740792 69.8064668,17.6845182 C69.1960278,18.3161563 68.7166381,19.3838223 68.7166381,21.12697 C68.7166381,22.8705996 69.1960278,23.9382655 69.8064668,24.5482227 M66.1023983,15.2654069 C67.474561,13.8277195 69.4576445,12.9778266 71.8107495,12.9778266 C74.1643362,12.9778266 76.1474197,13.8277195 77.542227,15.2654069 C78.9143897,16.7040578 79.698758,18.7521842 79.698758,21.12697 C79.698758,23.5027195 78.9143897,25.5291649 77.542227,26.967334 C76.1474197,28.4055032 74.1643362,29.2765953 71.8107495,29.2765953 C69.4576445,29.2765953 67.474561,28.4055032 66.1023983,26.967334 C64.707591,25.5291649 63.9227409,23.5027195 63.9227409,21.12697 C63.9227409,18.7521842 64.707591,16.7040578 66.1023983,15.2654069" id="Fill-12" fill="#000000"></path>
                    <polygon id="Fill-14" fill="#000000" points="82.138924 13.3482816 86.9328212 13.3482816 86.9328212 24.9191595 93.8182066 24.9191595 93.8182066 28.9065257 82.138924 28.9065257"></polygon>
                    <path d="M106.784518,23.306531 C106.784518,25.4640257 106.30561,26.9455567 105.346831,27.9043362 C104.365889,28.8626338 102.884358,29.2769807 100.945118,29.2769807 C98.9620343,29.2769807 97.545546,28.7320664 96.6089293,27.751606 C95.6718308,26.7706638 95.235803,25.3985011 95.235803,23.6770343 L95.235803,22.3694325 L99.5503105,22.3694325 L99.5503105,23.2626874 C99.5503105,23.8731263 99.5503105,24.4397216 99.7247216,24.8535867 C99.87697,25.2891328 100.204111,25.5724304 100.835749,25.5724304 C101.446188,25.5724304 101.751167,25.1807281 101.881734,24.7225375 C102.012784,24.2869914 101.991103,23.7203961 101.991103,23.3720557 L101.991103,13.3482334 L106.784518,13.3482334 L106.784518,23.306531 Z" id="Fill-16" fill="#000000"></path>
                    <path d="M115.029202,24.5482227 C115.63916,25.1803426 116.42401,25.3985974 117.033485,25.3985974 C117.643924,25.3985974 118.428292,25.1803426 119.038249,24.5482227 C119.648688,23.9382655 120.128078,22.8705996 120.128078,21.12697 C120.128078,19.3838223 119.648688,18.3161563 119.038249,17.6845182 C118.428292,17.0740792 117.643924,16.8563062 117.033485,16.8563062 C116.42401,16.8563062 115.63916,17.0740792 115.029202,17.6845182 C114.418763,18.3161563 113.939374,19.3838223 113.939374,21.12697 C113.939374,22.8705996 114.418763,23.9382655 115.029202,24.5482227 M111.324652,15.2654069 C112.697297,13.8277195 114.68038,12.9778266 117.033485,12.9778266 C119.387072,12.9778266 121.370155,13.8277195 122.764963,15.2654069 C124.137125,16.7040578 124.921975,18.7521842 124.921975,21.12697 C124.921975,23.5027195 124.137125,25.5291649 122.764963,26.967334 C121.370155,28.4055032 119.387072,29.2765953 117.033485,29.2765953 C114.68038,29.2765953 112.697297,28.4055032 111.324652,26.967334 C109.929845,25.5291649 109.145476,23.5027195 109.145476,21.12697 C109.145476,18.7521842 109.929845,16.7040578 111.324652,15.2654069" id="Fill-18" fill="#000000"></path>
                    <path d="M134.190819,147.952388 C134.190819,149.922463 132.877436,151.235846 130.907361,151.235846 L118.430219,151.235846 C116.460145,151.235846 115.147243,149.922463 115.147243,147.952388 L115.147243,135.147141 L134.190819,135.147141 L134.190819,147.952388 Z M42.9116435,147.952388 C42.9116435,149.922463 41.5982602,151.235846 39.6281852,151.235846 L27.1515257,151.235846 C25.1814507,151.235846 23.8680675,149.922463 23.8680675,147.952388 L23.8680675,135.147141 L42.9116435,135.147141 L42.9116435,147.952388 Z M27.4796306,6.76561028 L130.250669,6.76561028 C135.175616,6.76561028 139.115766,12.6753533 139.115766,19.2422698 L139.115766,35.2938758 L18.6145343,35.2938758 L18.6145343,19.2422698 C18.6145343,12.6753533 22.8827891,6.76561028 27.4796306,6.76561028 L27.4796306,6.76561028 Z M82.3126606,72.8163597 L139.444352,72.8163597 L139.444352,42.1888972 L82.3126606,42.1888972 L82.3126606,72.8163597 Z M18.6145343,92.3258351 L39.3000803,92.3258351 C42.9116435,92.3258351 45.8669968,95.2807066 45.8669968,98.8922698 L45.8669968,108.742645 C45.8669968,112.35469 42.9116435,115.309561 39.3000803,115.309561 L18.6145343,115.309561 L18.6145343,92.3258351 Z M18.6145343,72.8163597 L75.7462259,72.8163597 L75.7462259,42.1888972 L18.6145343,42.1888972 L18.6145343,72.8163597 Z M139.444352,92.3258351 L139.444352,115.309561 L118.758806,115.309561 C115.147243,115.309561 112.19189,112.35469 112.19189,108.742645 L112.19189,98.8922698 C112.19189,95.2807066 115.147243,92.3258351 118.758806,92.3258351 L139.444352,92.3258351 Z M118.758806,85.7589186 C111.535198,85.7589186 105.624973,91.6691435 105.624973,98.8922698 L105.624973,108.742645 C105.624973,115.966253 111.535198,121.876478 118.758806,121.876478 L139.444352,121.876478 L139.444352,128.580225 L18.6145343,128.580225 L18.6145343,121.876478 L39.3000803,121.876478 C46.5236884,121.876478 52.4339133,115.966253 52.4339133,108.742645 L52.4339133,98.8922698 C52.4339133,91.6691435 46.5236884,85.7589186 39.3000803,85.7589186 L18.6145343,85.7589186 L18.6145343,79.0551713 L139.444352,79.0551713 L139.444352,85.7589186 L118.758806,85.7589186 Z M146.011269,37.9577409 L146.011269,19.2422698 C146.011269,8.73568522 139.115766,0.19869379 130.579256,0.19869379 L27.4796306,0.19869379 C18.9426392,0.19869379 12.0476178,8.73568522 12.0476178,19.2422698 L12.0476178,24.1676981 L12.0476178,37.629636 L3.51062634,37.629636 C1.54055139,37.629636 0.227168094,38.9430193 0.227168094,40.9130942 L0.227168094,64.2254069 C0.227168094,66.1954818 1.54055139,67.5088651 3.51062634,67.5088651 C5.48070128,67.5088651 6.79408458,66.1954818 6.79408458,64.2254069 L6.79408458,44.1965525 L12.0476178,44.1965525 L12.0476178,131.863683 C12.0476178,133.833758 13.3610011,135.147141 15.331076,135.147141 L17.301151,135.147141 L17.301151,147.952388 C17.301151,153.534026 21.5694058,157.802762 27.1515257,157.802762 L39.6281852,157.802762 C45.2103051,157.802762 49.47856,153.534026 49.47856,147.952388 L49.47856,135.147141 L108.580327,135.147141 L108.580327,147.952388 C108.580327,153.534026 112.848581,157.802762 118.430219,157.802762 L130.907361,157.802762 C136.488999,157.802762 140.757736,153.534026 140.757736,147.952388 L140.757736,135.147141 L142.72781,135.147141 C144.697885,135.147141 146.011269,133.833758 146.011269,131.863683 L146.011269,44.5246574 L151.264802,44.5246574 L151.264802,64.5535118 C151.264802,66.5235867 152.578185,67.83697 154.54826,67.83697 C156.517853,67.83697 157.831237,66.5235867 157.831237,64.5535118 L157.831237,41.2411991 C157.831237,39.2711242 156.517853,37.9577409 154.54826,37.9577409 L146.011269,37.9577409 Z" id="Fill-20" fill="#000000"></path>
                    <path d="M93.1480728,93.8031745 L64.9108137,93.8031745 C62.9407388,93.8031745 61.6273555,95.1165578 61.6273555,97.0866328 C61.6273555,99.0567077 62.9407388,100.370091 64.9108137,100.370091 L93.1480728,100.370091 C95.1181478,100.370091 96.431531,99.0567077 96.431531,97.0866328 C96.431531,95.1165578 94.789561,93.8031745 93.1480728,93.8031745" id="Fill-22" fill="#000000"></path>
                    <path d="M93.1480728,107.265209 L64.9108137,107.265209 C62.9407388,107.265209 61.6273555,108.578592 61.6273555,110.548667 C61.6273555,112.518742 62.9407388,113.832125 64.9108137,113.832125 L93.1480728,113.832125 C95.1181478,113.832125 96.431531,112.518742 96.431531,110.548667 C96.431531,108.578592 94.789561,107.265209 93.1480728,107.265209" id="Fill-24" fill="#000000"></path>
                    <path d="M27.1701713,109.44901 C27.1701713,110.203506 27.7815739,110.814909 28.5360707,110.814909 L39.6381585,110.814909 C40.3921734,110.814909 41.003576,110.203506 41.003576,109.44901 L41.003576,98.3469218 C41.003576,97.5924251 40.3921734,96.9810225 39.6381585,96.9810225 L28.5360707,96.9810225 C27.7815739,96.9810225 27.1701713,97.5924251 27.1701713,98.3469218 L27.1701713,109.44901 Z" id="Fill-26" fill="#000000"></path>
                    <path d="M117.003806,109.44901 C117.003806,110.203506 117.615209,110.814909 118.369706,110.814909 L129.471793,110.814909 C130.225808,110.814909 130.837211,110.203506 130.837211,109.44901 L130.837211,98.3469218 C130.837211,97.5924251 130.225808,96.9810225 129.471793,96.9810225 L118.369706,96.9810225 C117.615209,96.9810225 117.003806,97.5924251 117.003806,98.3469218 L117.003806,109.44901 Z" id="Fill-28" fill="#000000"></path>
                </g>
            </g>
        </g>
    </g>
</svg>