<?xml version="1.0" encoding="UTF-8" standalone="no"?>
<svg width="486px" height="315px" viewBox="0 0 486 315" version="1.1" xmlns="http://www.w3.org/2000/svg" xmlns:xlink="http://www.w3.org/1999/xlink">
    <!-- Generator: Sketch 40 (33762) - http://www.bohemiancoding.com/sketch -->
    <title>Page 1</title>
    <desc>Created with Sketch.</desc>
    <defs>
        <polygon id="path-1" points="0 314.741036 485.917778 314.741036 485.917778 0.501067729 0 0.501067729"></polygon>
    </defs>
    <g id="Page-1" stroke="none" stroke-width="1" fill="none" fill-rule="evenodd">
        <g id="Artboard" transform="translate(-113.000000, -562.000000)">
            <g id="Page-1" transform="translate(113.000000, 561.000000)">
                <polygon id="Fill-1" fill="#F2DF08" points="17.2538941 300.110614 469.018752 300.110614 469.018752 259.823761 17.2538941 259.823761"></polygon>
                <g id="Group-129" transform="translate(0.000000, 0.757896)">
                    <path d="M53.8739031,208.010588 L48.9258824,207.082731 C49.4405672,204.340708 49.6255517,202.33266 49.6268101,202.312516 L54.6402674,202.764484 C54.6327171,202.853871 54.4351486,205.015512 53.8739031,208.010588 L53.8739031,208.010588 Z M52.3147481,214.417457 L47.5038928,212.93062 C47.9481072,211.495401 48.3470194,209.92799 48.6918204,208.272453 L53.6197067,209.297249 C53.2434457,211.10764 52.8042649,212.831162 52.3147481,214.417457 L52.3147481,214.417457 Z M25.0238721,216.934126 C24.6891382,216.506078 24.3493708,216.061664 24.0058282,215.602142 L28.0339599,212.583146 C28.3561098,213.013712 28.6732261,213.42917 28.9865672,213.82952 L25.0238721,216.934126 L25.0238721,216.934126 Z M49.7086059,220.718572 L45.3117636,218.26611 C45.9711641,217.083943 46.5852623,215.667608 47.137699,214.054875 L51.8994767,215.68901 C51.2501434,217.583751 50.5127222,219.275799 49.7086059,220.718572 L49.7086059,220.718572 Z M29.4081305,221.895704 C28.2516628,220.765154 27.0524096,219.440724 25.8405724,217.956405 L29.7403475,214.772484 C30.8313786,216.110763 31.9035336,217.295449 32.9253527,218.293807 L29.4081305,221.895704 L29.4081305,221.895704 Z M35.0130349,226.119528 C33.5230917,225.354078 31.9702287,224.24619 30.3959729,222.826078 L33.7672209,219.086955 C35.0180685,220.214986 36.2097713,221.0736 37.3108695,221.638875 L35.0130349,226.119528 L35.0130349,226.119528 Z M44.6020271,226.300819 L42.1141744,221.922142 C43.0290297,221.403449 43.9162003,220.486923 44.7517765,219.200261 L48.9711848,221.943544 C47.6939109,223.912564 46.2228437,225.379257 44.6020271,226.300819 L44.6020271,226.300819 Z M40.1762416,227.482986 C38.9543372,227.482986 37.6871305,227.234971 36.4098566,226.745233 L38.2093656,222.043002 C39.4086189,222.502524 40.4505724,222.571767 41.404438,222.244437 L43.0340633,227.009616 C42.1166912,227.321839 41.1565336,227.481727 40.1762416,227.482986 L40.1762416,227.482986 Z" id="Fill-2" fill="#000000"></path>
                    <path d="M101.888454,208.160027 C101.42788,205.157398 101.29449,202.989461 101.289456,202.898816 L106.314239,202.599182 C106.315498,202.619326 106.440079,204.639963 106.862901,207.395836 L101.888454,208.160027 Z M103.23494,214.613477 C102.803309,213.024665 102.420756,211.288553 102.101123,209.455501 L107.060469,208.590593 C107.352418,210.270051 107.699735,211.85131 108.092356,213.287788 L103.23494,214.613477 Z M130.074051,216.602641 L126.081154,213.538322 L126.643658,212.794274 L130.674306,215.812011 L130.074051,216.602641 Z M105.640996,221.007756 C104.883441,219.552394 104.198872,217.833908 103.607425,215.900139 L108.419539,214.425892 C108.922898,216.066322 109.489177,217.497764 110.104534,218.679931 L105.640996,221.007756 Z M125.789206,221.608282 L122.191446,218.088218 C123.196906,217.059645 124.25396,215.84978 125.334924,214.492617 L129.272451,217.631214 C128.084524,219.120569 126.914213,220.458848 125.789206,221.608282 L125.789206,221.608282 Z M120.38942,225.986959 L117.86004,221.632202 C118.944779,221.001461 120.121381,220.086194 121.358387,218.909063 L124.82779,222.557541 C123.306387,224.00535 121.812668,225.158561 120.38942,225.986959 L120.38942,225.986959 Z M110.794136,226.712123 C109.114175,225.820776 107.619198,224.323868 106.350733,222.261684 L110.636836,219.621637 C111.429627,220.909557 112.27527,221.798386 113.151115,222.262943 L110.794136,226.712123 Z M114.712787,227.692856 C113.940131,227.692856 113.173766,227.587103 112.438862,227.376856 L113.819325,222.533621 C114.108756,222.616712 114.401963,222.656999 114.715304,222.656999 L114.720337,222.656999 C115.39358,222.656999 116.149878,222.468155 116.969095,222.095501 L119.051743,226.680649 C117.573126,227.352935 116.117159,227.692856 114.722854,227.692856 L114.712787,227.692856 Z" id="Fill-4" fill="#000000"></path>
                    <path d="M102.180654,210.510513 C99.9847494,198.814736 89.7388734,186.18229 77.4103488,186.18229 C64.5797235,186.18229 54.0091809,199.553748 52.4198243,211.957063 C68.0768114,208.16884 86.8495917,207.418497 102.588375,212.090513 C103.286786,212.298242 102.628643,213.034736 102.180654,210.510513" id="Fill-6" fill="#FC6060"></path>
                    <path d="M52.4199501,211.957567 C52.2840432,213.018873 52.1896633,214.09277 52.1896633,215.190586 C52.1896633,229.126061 63.481268,229.963272 77.4104747,229.963272 C91.3396814,229.963272 102.631286,229.126061 102.631286,215.190586 C102.631286,213.589184 102.465178,213.215272 102.18078,211.696961 C85.7939217,206.092053 68.7715729,208.000642 52.4199501,211.957567" id="Fill-8" fill="#FFFFFF"></path>
                    <path d="M99.4036212,214.133938 L96.8868253,214.133938 C96.8868253,203.6304 88.3322362,191.419707 77.3036367,191.419707 L77.3036367,188.901778 C87.7357556,188.901778 99.4036212,199.69236 99.4036212,214.133938" id="Fill-10" fill="#FFFFFF"></path>
                    <mask id="mask-2" fill="white">
                        <use xlink:href="#path-1"></use>
                    </mask>
                    <g id="Clip-13"></g>
                    <polygon id="Fill-12" fill="#F2DF08" mask="url(#mask-2)" points="284.955403 148.114614 302.572974 148.114614 302.572974 110.030948 284.955403 110.030948"></polygon>
                    <path d="M297.017651,132.685001 C297.017651,163.475487 270.942387,180.79128 238.776478,180.79128 C206.610568,180.79128 180.535304,163.475487 180.535304,132.685001 C180.535304,101.894515 206.610568,76.9342916 238.776478,76.9342916 C270.942387,76.9342916 297.017651,101.894515 297.017651,132.685001" id="Fill-14" fill="#F2DF08" mask="url(#mask-2)"></path>
                    <path d="M294.079291,130.882416 L290.933297,130.882416 C290.933297,105.132822 268.777943,83.3791809 242.551671,83.3791809 L242.551671,80.2317705 C270.481813,80.2317705 294.079291,103.426926 294.079291,130.882416" id="Fill-15" fill="#FFFFFF" mask="url(#mask-2)"></path>
                    <polygon id="Fill-16" fill="#F2DF08" mask="url(#mask-2)" points="175.474783 148.114614 193.092354 148.114614 193.092354 110.030948 175.474783 110.030948"></polygon>
                    <polygon id="Fill-17" fill="#FC6060" mask="url(#mask-2)" points="120.467818 179.680747 36.5163171 179.680747 46.7546426 73.1660861 110.229493 73.1660861"></polygon>
                    <polygon id="Fill-18" fill="#FFFFFF" mask="url(#mask-2)" points="113.819828 169.323879 105.121781 79.8153052 81.0951897 79.8153052 81.0951897 77.2973769 107.404515 77.2973769 116.32404 169.080899"></polygon>
                    <path d="M385.072284,204.018539 L380.124264,203.090682 C380.638948,200.348658 380.823933,198.34061 380.825191,198.320467 L385.838649,198.772435 C385.831098,198.861822 385.63353,201.023463 385.072284,204.018539 L385.072284,204.018539 Z M383.510612,210.426666 L378.702274,208.936053 C379.146488,207.50461 379.545401,205.9372 379.890202,204.280403 L384.818088,205.303941 C384.441827,207.118108 384.001388,208.84163 383.510612,210.426666 L383.510612,210.426666 Z M356.223512,212.942076 C355.887519,212.515288 355.547752,212.070873 355.204209,211.610092 L359.232341,208.591096 C359.554491,209.021662 359.871607,209.434602 360.18369,209.834953 L356.223512,212.942076 Z M380.903212,216.725264 L376.508886,214.271543 C377.16577,213.093152 377.781127,211.676818 378.334822,210.061567 L383.096599,211.69822 C382.443491,213.59422 381.70607,215.286268 380.903212,216.725264 L380.903212,216.725264 Z M360.605253,217.902395 C359.451302,216.773104 358.252049,215.448674 357.040212,213.964355 L360.93747,210.779176 C362.031018,212.118714 363.103173,213.303399 364.124992,214.301758 L360.605253,217.902395 Z M366.211416,222.127479 C364.722731,221.363288 363.171127,220.255399 361.595612,218.835288 L364.964344,215.094905 C366.217708,216.222937 367.409411,217.081551 368.509251,217.646825 L366.211416,222.127479 Z M375.797891,222.307511 L373.312556,217.928833 C374.227411,217.408881 375.114581,216.493614 375.950158,215.206953 L380.169566,217.950236 C378.891034,219.920515 377.419966,221.385949 375.797891,222.307511 L375.797891,222.307511 Z M371.370848,223.490937 C370.15146,223.490937 368.884253,223.242921 367.606979,222.753184 L369.406488,218.050953 C370.604483,218.509216 371.642661,218.580977 372.601561,218.252387 L374.231186,223.017567 C373.311297,223.331049 372.349881,223.490937 371.370848,223.490937 L371.370848,223.490937 Z" id="Fill-19" fill="#000000" mask="url(#mask-2)"></path>
                    <path d="M432.892538,203.957731 C432.431965,200.955101 432.298574,198.787165 432.293541,198.69652 L437.318324,198.396886 C437.319582,198.417029 437.444164,200.437667 437.866985,203.193539 L432.892538,203.957731 Z M434.239024,210.411181 C433.807394,208.822368 433.424841,207.086257 433.105207,205.253205 L438.064554,204.388296 C438.356502,206.067755 438.70382,207.649014 439.09644,209.085492 L434.239024,210.411181 Z M461.078135,212.400344 L457.085239,209.336025 L457.646484,208.591978 L461.677133,211.609715 L461.078135,212.400344 Z M436.645081,216.80546 C435.887525,215.350097 435.202957,213.631611 434.61151,211.697842 L439.423624,210.223595 C439.926983,211.864025 440.493262,213.295468 441.108618,214.477635 L436.645081,216.80546 Z M456.792032,217.405986 L453.194272,213.885922 C454.199732,212.857348 455.256786,211.647484 456.33775,210.29032 L460.275277,213.428918 C459.08735,214.918273 457.91704,216.256551 456.792032,217.405986 L456.792032,217.405986 Z M451.393505,221.784663 L448.864125,217.429906 C449.948864,216.799165 451.125466,215.883898 452.362471,214.706767 L455.831874,218.355245 C454.310471,219.803053 452.816753,220.956265 451.393505,221.784663 L451.393505,221.784663 Z M441.794445,222.509826 C440.114484,221.61848 438.620766,220.120312 437.352301,218.059388 L441.638404,215.41934 C442.431195,216.707261 443.276838,217.596089 444.153941,218.061906 L441.794445,222.509826 Z M445.72568,223.490559 C444.94799,223.490559 444.180368,223.384806 443.444205,223.175818 L444.820892,218.331324 C445.733231,218.590671 446.766375,218.442113 447.970662,217.893205 L450.055828,222.478352 C448.57721,223.150639 447.121244,223.490559 445.72568,223.490559 L445.72568,223.490559 Z" id="Fill-20" fill="#000000" mask="url(#mask-2)"></path>
                    <path d="M433.828912,212.247632 C433.828912,226.183106 422.537307,227.020317 408.608101,227.020317 C394.678894,227.020317 383.387289,226.183106 383.387289,212.247632 C383.387289,198.312158 394.678894,183.23858 408.608101,183.23858 C422.537307,183.23858 433.828912,198.312158 433.828912,212.247632" id="Fill-21" fill="#FFFFFF" mask="url(#mask-2)"></path>
                    <polygon id="Fill-22" fill="#FC6060" mask="url(#mask-2)" points="476.509743 85.1242311 408.028986 177.354685 339.548229 85.1242311"></polygon>
                    <polygon id="Fill-23" fill="#FFFFFF" mask="url(#mask-2)" points="431.937666 140.176593 429.905353 138.692274 464.384198 91.4219474 416.280679 91.4219474 416.280679 88.9040191 469.337252 88.9040191"></polygon>
                    <path d="M239.925143,170.003845 C226.05634,170.003845 225.104991,163.93312 225.040812,163.24069 L229.216177,162.860483 C229.216177,162.860483 229.219952,162.803829 229.194784,162.708148 C229.423812,163.570539 231.802184,165.810236 239.925143,165.810236 C249.28259,165.810236 250.191153,163.102204 250.198704,163.073248 C250.198704,163.074507 250.183603,163.133678 250.183603,163.270905 L254.376585,163.270905 C254.376585,164.39516 253.680691,170.003845 239.925143,170.003845" id="Fill-24" fill="#000000" mask="url(#mask-2)"></path>
                    <path d="M101.266428,278.7611 C101.266428,281.465355 90.8166912,283.657211 77.9256628,283.657211 C65.0346344,283.657211 54.5848979,281.465355 54.5848979,278.7611 C54.5848979,276.056845 65.0346344,273.864988 77.9256628,273.864988 C90.8166912,273.864988 101.266428,276.056845 101.266428,278.7611" id="Fill-25" fill="#000000" mask="url(#mask-2)"></path>
                    <path d="M264.746036,278.7611 C264.746036,281.465355 254.296299,283.657211 241.405271,283.657211 C228.514242,283.657211 218.064506,281.465355 218.064506,278.7611 C218.064506,276.056845 228.514242,273.864988 241.405271,273.864988 C254.296299,273.864988 264.746036,276.056845 264.746036,278.7611" id="Fill-26" fill="#000000" mask="url(#mask-2)"></path>
                    <path d="M432.417493,278.7611 C432.417493,281.465355 421.967757,283.657211 409.076728,283.657211 C396.1857,283.657211 385.735963,281.465355 385.735963,278.7611 C385.735963,276.056845 396.1857,273.864988 409.076728,273.864988 C421.967757,273.864988 432.417493,276.056845 432.417493,278.7611" id="Fill-27" fill="#000000" mask="url(#mask-2)"></path>
                    <path d="M177.059483,148.124308 C177.059483,136.515399 189.245809,127.103383 204.278631,127.103383 C219.311452,127.103383 231.497778,136.515399 231.497778,148.124308" id="Fill-28" fill="#F2DF08" mask="url(#mask-2)"></path>
                    <path d="M233.635544,148.124433 L229.359508,148.124433 C229.359508,137.7128 218.106914,129.243748 204.278379,129.243748 C190.449844,129.243748 179.19725,137.7128 179.19725,148.124433 L174.921214,148.124433 C174.921214,135.353501 188.090348,124.964529 204.278379,124.964529 C220.46641,124.964529 233.635544,135.353501 233.635544,148.124433" id="Fill-29" fill="#000000" mask="url(#mask-2)"></path>
                    <path d="M247.90024,148.124308 C247.90024,136.079798 259.06978,126.316531 274.665106,126.316531 C290.260431,126.316531 302.903555,136.079798 302.903555,148.124308" id="Fill-30" fill="#F2DF08" mask="url(#mask-2)"></path>
                    <path d="M305.042328,148.124433 L300.766292,148.124433 C300.766292,137.279716 289.056899,128.455637 274.664602,128.455637 C260.625915,128.455637 250.039013,136.912099 250.039013,148.124433 L245.762977,148.124433 C245.762977,134.472226 258.188398,124.176418 274.664602,124.176418 C291.415137,124.176418 305.042328,134.919159 305.042328,148.124433" id="Fill-31" fill="#000000" mask="url(#mask-2)"></path>
                    <path d="M245.500098,154.543514 C245.500098,142.934606 257.686423,133.52259 272.719245,133.52259 C287.752067,133.52259 296.729478,142.934606 296.729478,154.543514" id="Fill-32" fill="#F2DF08" mask="url(#mask-2)"></path>
                    <path d="M298.333683,154.543388 L295.126027,154.543388 C295.126027,143.111994 285.912037,135.127643 272.718993,135.127643 C258.594735,135.127643 247.104303,143.837157 247.104303,154.543388 L243.896647,154.543388 C243.896647,142.067053 256.826686,131.917284 272.718993,131.917284 C287.800893,131.917284 298.333683,141.221029 298.333683,154.543388" id="Fill-33" fill="#000000" mask="url(#mask-2)"></path>
                    <path d="M182.406416,154.543514 C182.406416,142.934606 191.385086,133.52259 206.416649,133.52259 C221.449471,133.52259 233.635796,142.934606 233.635796,154.543514" id="Fill-34" fill="#F2DF08" mask="url(#mask-2)"></path>
                    <path d="M235.239247,154.543388 L232.03159,154.543388 C232.03159,143.837157 220.539901,135.127643 206.416901,135.127643 C193.223857,135.127643 184.009867,143.111994 184.009867,154.543388 L180.802211,154.543388 C180.802211,141.221029 191.335001,131.917284 206.416901,131.917284 C222.310466,131.917284 235.239247,142.067053 235.239247,154.543388" id="Fill-35" fill="#000000" mask="url(#mask-2)"></path>
                    <path d="M30.7362437,125.017909 C30.7362437,115.944555 40.2597992,108.589686 52.0082023,108.589686 C63.7566054,108.589686 73.2814194,115.944555 73.2814194,125.017909" id="Fill-36" fill="#FFFFFF" mask="url(#mask-2)"></path>
                    <path d="M74.9520685,125.017909 L71.6097636,125.017909 C71.6097636,116.881224 62.8160788,110.26159 52.0089574,110.26159 C41.2005775,110.26159 32.4068928,116.881224 32.4068928,125.017909 L29.0645879,125.017909 C29.0645879,115.036841 39.3570245,106.917782 52.0089574,106.917782 C64.6596318,106.917782 74.9520685,115.036841 74.9520685,125.017909" id="Fill-37" fill="#000000" mask="url(#mask-2)"></path>
                    <path d="M86.1004674,125.017909 C86.1004674,115.604634 94.8299739,107.974053 107.018816,107.974053 C119.2064,107.974053 129.087341,115.604634 129.087341,125.017909" id="Fill-38" fill="#FFFFFF" mask="url(#mask-2)"></path>
                    <path d="M130.759122,125.017909 L127.416818,125.017909 C127.416818,116.542563 118.265748,109.647216 107.018187,109.647216 C96.0462155,109.647216 87.7722491,116.255519 87.7722491,125.017909 L84.4299442,125.017909 C84.4299442,114.348188 94.1397426,106.302148 107.018187,106.302148 C120.109301,106.302148 130.759122,114.69818 130.759122,125.017909" id="Fill-39" fill="#000000" mask="url(#mask-2)"></path>
                    <path d="M34.9150057,130.034629 C34.9150057,120.961275 41.9318326,113.606406 53.6802357,113.606406 C65.4286388,113.606406 74.9521943,120.961275 74.9521943,130.034629" id="Fill-40" fill="#FC6060" mask="url(#mask-2)"></path>
                    <path d="M76.2055587,130.034755 L73.69883,130.034755 C73.69883,121.66768 64.7176439,114.860461 53.6802357,114.860461 C43.368923,114.860461 36.1696284,121.101146 36.1696284,130.034755 L33.6616413,130.034755 C33.6616413,119.623122 41.8928222,112.352604 53.6802357,112.352604 C66.1006233,112.352604 76.2055587,120.284078 76.2055587,130.034755" id="Fill-41" fill="#000000" mask="url(#mask-2)"></path>
                    <path d="M84.2246995,130.034629 C84.2246995,120.961275 93.748255,113.606406 105.496658,113.606406 C117.245061,113.606406 124.261888,120.961275 124.261888,130.034629" id="Fill-42" fill="#FC6060" mask="url(#mask-2)"></path>
                    <path d="M125.515378,130.034755 L123.00865,130.034755 C123.00865,121.101146 115.808097,114.860461 105.498042,114.860461 C94.4581173,114.860461 85.4781897,121.66768 85.4781897,130.034755 L82.9702026,130.034755 C82.9702026,120.284078 93.0763964,112.352604 105.498042,112.352604 C117.284197,112.352604 125.515378,119.623122 125.515378,130.034755" id="Fill-43" fill="#000000" mask="url(#mask-2)"></path>
                    <path d="M216.444444,208.297128 L211.447346,207.694084 C211.780822,204.92814 211.843742,202.897431 211.845,202.877288 L216.876075,203.024586 C216.873558,203.115232 216.806863,205.286945 216.444444,208.297128 L216.444444,208.297128 Z M215.318178,214.787088 L210.420494,213.627582 C210.761519,212.183551 211.054726,210.593479 211.291305,208.900172 L216.275819,209.596379 C216.017848,211.444539 215.695698,213.191981 215.318178,214.787088 L215.318178,214.787088 Z M188.943416,216.273925 L188.754656,216.023391 L192.771463,212.988029 L192.924987,213.19324 L188.943416,216.273925 Z M213.127307,221.266977 L208.594558,219.078897 C209.167129,217.889176 209.684331,216.442626 210.129804,214.779535 L214.992253,216.083822 C214.464984,218.051582 213.837044,219.795248 213.127307,221.266977 L213.127307,221.266977 Z M193.151499,221.326148 C192.050401,220.154053 190.902742,218.804443 189.74124,217.313829 L193.714003,214.219296 C194.778607,215.58779 195.823078,216.817798 196.81847,217.876586 L193.151499,221.326148 Z M198.361266,225.829463 C196.992129,224.946929 195.552522,223.75469 194.082713,222.286738 L197.640204,218.72261 C198.858333,219.940029 200.018576,220.906913 201.089473,221.598084 L198.361266,225.829463 Z M207.923832,227.103535 L205.720377,222.5763 C206.553437,222.169654 207.352519,221.3123 208.094974,220.026897 L212.452806,222.548602 C211.199442,224.716539 209.675522,226.249957 207.923832,227.103535 L207.923832,227.103535 Z M204.488406,227.895423 L204.475822,227.895423 C202.933026,227.895423 201.304659,227.452268 199.641057,226.579806 L201.97916,222.120555 C202.91415,222.610292 203.75476,222.859567 204.479597,222.859567 C204.682199,222.859567 204.903677,222.838164 205.102504,222.792841 L206.193535,227.709096 C205.638581,227.832475 205.064752,227.895423 204.488406,227.895423 L204.488406,227.895423 Z" id="Fill-44" fill="#000000" mask="url(#mask-2)"></path>
                    <path d="M265.202457,208.297128 C264.840038,205.286945 264.773343,203.115232 264.770826,203.024586 L269.801901,202.877288 C269.803159,202.897431 269.866079,204.92814 270.199555,207.694084 L265.202457,208.297128 Z M266.328723,214.787088 C265.951203,213.191981 265.629053,211.444539 265.371082,209.596379 L270.355596,208.900172 C270.592175,210.593479 270.885382,212.183551 271.226407,213.627582 L266.328723,214.787088 Z M292.757596,216.200905 L290.687532,214.768204 L288.721914,213.19324 L288.875439,212.988029 L292.892245,216.023391 L292.757596,216.200905 Z M268.519594,221.266977 C267.809857,219.795248 267.181917,218.051582 266.654648,216.083822 L271.517097,214.779535 C271.96257,216.442626 272.479772,217.889176 273.052343,219.078897 L268.519594,221.266977 Z M288.495402,221.326148 L284.828431,217.876586 C285.823824,216.817798 286.868294,215.58779 287.932898,214.219296 L291.905661,217.313829 C290.744159,218.804443 289.596501,220.154053 288.495402,221.326148 L288.495402,221.326148 Z M283.285635,225.829463 L280.557428,221.598084 C281.628325,220.906913 282.788568,219.940029 284.006697,218.72261 L287.564188,222.286738 C286.094379,223.75469 284.654772,224.946929 283.285635,225.829463 L283.285635,225.829463 Z M273.723069,227.103535 C271.971379,226.249957 270.447459,224.716539 269.194095,222.548602 L273.551927,220.026897 C274.294382,221.3123 275.093464,222.169654 275.926524,222.5763 L273.723069,227.103535 Z M277.15472,227.895423 C276.582149,227.895423 276.00832,227.832475 275.453366,227.709096 L276.544397,222.792841 C276.743224,222.838164 276.910591,222.872156 277.163529,222.859567 C277.892141,222.859567 278.732751,222.610292 279.667741,222.120555 L282.005844,226.579806 C280.342242,227.452268 278.713875,227.895423 277.167304,227.895423 L277.15472,227.895423 Z" id="Fill-45" fill="#000000" mask="url(#mask-2)"></path>
                    <path d="M266.11555,214.134064 C266.11555,228.069538 254.823945,228.906749 240.894739,228.906749 C226.965532,228.906749 215.673927,228.069538 215.673927,214.134064 C215.673927,200.19859 226.965532,185.125012 240.894739,185.125012 C254.823945,185.125012 266.11555,200.19859 266.11555,214.134064" id="Fill-46" fill="#F2DF08" mask="url(#mask-2)"></path>
                    <path d="M252.697127,253.080623 C251.117838,253.080623 249.552391,252.700416 248.116559,251.952591 L251.024716,246.370344 C251.87036,246.812241 252.841843,246.902886 253.754181,246.628432 C255.677013,246.051826 256.77182,244.016081 256.194215,242.092384 C255.61661,240.168687 253.578006,239.073388 251.660207,239.651253 C250.710117,239.937037 249.934944,240.579109 249.475628,241.460384 L243.894634,238.553436 C245.144223,236.152591 247.25959,234.400113 249.850631,233.622073 C255.095634,232.049627 260.645168,235.034631 262.220683,240.281994 C263.794939,245.530615 260.80876,251.081388 255.562499,252.657611 C254.619959,252.940878 253.657285,253.080623 252.697127,253.080623" id="Fill-47" fill="#0876F2" mask="url(#mask-2)"></path>
                    <path d="M230.605071,252.44749 C229.692732,252.44749 228.776618,252.315299 227.880639,252.04588 C222.894866,250.547713 220.055921,245.271394 221.552156,240.283378 C223.049649,235.294104 228.326112,232.457657 233.309368,233.952048 C235.773311,234.69106 237.785489,236.356669 238.9709,238.64043 L233.389905,241.544861 C232.99351,240.783187 232.322784,240.226725 231.50105,239.981227 C229.847515,239.485195 228.078207,240.428159 227.578624,242.09251 C227.07904,243.756861 228.026613,245.516892 229.688957,246.016701 C230.479231,246.254645 231.317324,246.17659 232.05097,245.792606 L234.959127,251.374853 C233.593766,252.086167 232.105081,252.44749 230.605071,252.44749" id="Fill-48" fill="#0876F2" mask="url(#mask-2)"></path>
                    <path d="M234.635971,241.586532 C223.075069,238.921305 214.480211,236.754628 209.087976,235.145672 C202.889108,233.297512 200.220046,232.222357 200.674327,229.699393 C201.068206,227.507536 201.41049,225.615313 234.359123,229.914676 L233.789069,234.28454 C227.327196,233.441034 220.438725,232.679361 214.882898,232.20599 C219.497444,233.449847 226.119134,235.101608 235.623813,237.292206 L234.635971,241.586532 Z" id="Fill-49" fill="#000000" mask="url(#mask-2)"></path>
                    <path d="M249.607634,241.586532 L248.619792,237.292206 C258.124472,235.101608 264.746161,233.449847 269.360707,232.207249 C263.80488,232.679361 256.917668,233.441034 250.455795,234.28454 L249.88574,229.914676 C282.838149,225.615313 283.175399,227.507536 283.569278,229.699393 C284.024818,232.222357 281.355756,233.297512 275.156888,235.145672 C269.764652,236.754628 261.168536,238.921305 249.607634,241.586532" id="Fill-50" fill="#000000" mask="url(#mask-2)"></path>
                    <path d="M412.191641,159.32015 C412.191641,161.6165 410.33047,163.478508 408.035152,163.478508 C405.738576,163.478508 403.878664,161.6165 403.878664,159.32015 C403.878664,157.023799 405.738576,155.161791 408.035152,155.161791 C410.33047,155.161791 412.191641,157.023799 412.191641,159.32015" id="Fill-51" fill="#000000" mask="url(#mask-2)"></path>
                    <path d="M232.809658,199.417402 C232.809658,200.502629 231.930038,201.382645 230.845299,201.382645 C229.759301,201.382645 228.879681,200.502629 228.879681,199.417402 C228.879681,198.332175 229.759301,197.452159 230.845299,197.452159 C231.930038,197.452159 232.809658,198.332175 232.809658,199.417402" id="Fill-52" fill="#000000" mask="url(#mask-2)"></path>
                    <path d="M418.130901,203.671316 C418.130901,204.756543 417.251281,205.636559 416.166542,205.636559 C415.080545,205.636559 414.200925,204.756543 414.200925,203.671316 C414.200925,202.586089 415.080545,201.706073 416.166542,201.706073 C417.251281,201.706073 418.130901,202.586089 418.130901,203.671316" id="Fill-53" fill="#000000" mask="url(#mask-2)"></path>
                    <path d="M418.130901,211.225101 C418.130901,212.310328 417.251281,213.190344 416.166542,213.190344 C415.080545,213.190344 414.200925,212.310328 414.200925,211.225101 C414.200925,210.139874 415.080545,209.259858 416.166542,209.259858 C417.251281,209.259858 418.130901,210.139874 418.130901,211.225101" id="Fill-54" fill="#000000" mask="url(#mask-2)"></path>
                    <path d="M252.105177,199.417402 C252.105177,200.502629 251.225557,201.382645 250.140818,201.382645 C249.05482,201.382645 248.1752,200.502629 248.1752,199.417402 C248.1752,198.332175 249.05482,197.452159 250.140818,197.452159 C251.225557,197.452159 252.105177,198.332175 252.105177,199.417402" id="Fill-55" fill="#000000" mask="url(#mask-2)"></path>
                    <polygon id="Fill-56" fill="#000000" mask="url(#mask-2)" points="237.947948 138.588032 241.091426 138.588032 241.091426 98.1148526 237.947948 98.1148526"></polygon>
                    <polygon id="Fill-57" fill="#000000" mask="url(#mask-2)" points="407.412623 223.814869 410.556101 223.814869 410.556101 191.278199 407.412623 191.278199"></polygon>
                    <polygon id="Fill-58" fill="#000000" mask="url(#mask-2)" points="76.5433127 217.645944 79.6867907 217.645944 79.6867907 198.575155 76.5433127 198.575155"></polygon>
                    <polygon id="Fill-59" fill="#FFFFFF" mask="url(#mask-2)" points="237.571687 47.8607809 241.346881 47.8607809 241.346881 21.9034582 237.571687 21.9034582"></polygon>
                    <polygon id="Fill-60" fill="#FFFFFF" mask="url(#mask-2)" points="196.316244 61.6062773 179.880308 45.1629466 182.550629 42.4926837 198.985306 58.9360143"></polygon>
                    <polygon id="Fill-61" fill="#FFFFFF" mask="url(#mask-2)" points="282.990792 61.6062773 280.32173 58.9360143 296.756407 42.4926837 299.426728 45.1629466"></polygon>
                    <polygon id="Fill-62" fill="#FFFFFF" mask="url(#mask-2)" points="404.938612 28.9763187 408.713806 28.9763187 408.713806 3.01899602 404.938612 3.01899602"></polygon>
                    <polygon id="Fill-63" fill="#FFFFFF" mask="url(#mask-2)" points="363.683169 42.7218151 347.247233 26.2784845 349.917554 23.6082215 366.352231 40.0515522"></polygon>
                    <polygon id="Fill-64" fill="#FFFFFF" mask="url(#mask-2)" points="450.357717 42.7218151 447.688655 40.0515522 464.123332 23.6082215 466.793653 26.2784845"></polygon>
                    <polygon id="Fill-65" fill="#FFFFFF" mask="url(#mask-2)" points="75.238354 26.4583904 79.0135478 26.4583904 79.0135478 0.501067729 75.238354 0.501067729"></polygon>
                    <polygon id="Fill-66" fill="#FFFFFF" mask="url(#mask-2)" points="33.9829103 40.2038869 17.5469749 23.7605562 20.2172953 21.0902932 36.6519724 37.5336239"></polygon>
                    <polygon id="Fill-67" fill="#FFFFFF" mask="url(#mask-2)" points="120.657459 40.2038869 117.988397 37.5336239 134.423074 21.0902932 137.093394 23.7605562"></polygon>
                    <polygon id="Fill-68" fill="#000000" mask="url(#mask-2)" points="46.3040103 114.726884 58.3858889 114.726884 58.3858889 107.928478 46.3040103 107.928478"></polygon>
                    <polygon id="Fill-69" fill="#000000" mask="url(#mask-2)" points="98.2783618 114.726884 110.36024 114.726884 110.36024 107.928478 98.2783618 107.928478"></polygon>
                    <path d="M375.523687,140.421084 C375.523687,126.987936 389.625294,116.097896 407.01887,116.097896 C424.413705,116.097896 438.515312,126.987936 438.515312,140.421084" id="Fill-70" fill="#FFFFFF" mask="url(#mask-2)"></path>
                    <path d="M440.178788,140.42121 L436.850326,140.42121 C436.850326,127.927249 423.468522,117.762373 407.018744,117.762373 C390.570225,117.762373 377.187163,127.927249 377.187163,140.42121 L373.859959,140.42121 C373.859959,126.09168 388.735481,114.432413 407.018744,114.432413 C425.303266,114.432413 440.178788,126.09168 440.178788,140.42121" id="Fill-71" fill="#000000" mask="url(#mask-2)"></path>
                    <path d="M377.717578,147.848972 C377.717578,134.415825 388.106911,123.525785 405.500487,123.525785 C422.895322,123.525785 436.996929,134.415825 436.996929,147.848972" id="Fill-72" fill="#FC6060" mask="url(#mask-2)"></path>
                    <path d="M438.661034,147.848972 L435.332572,147.848972 C435.332572,135.355012 421.950768,125.190135 405.50099,125.190135 C390.122109,125.190135 379.381683,134.507729 379.381683,147.848972 L376.05322,147.848972 C376.05322,132.547522 388.162784,121.860175 405.50099,121.860175 C423.785512,121.860175 438.661034,133.519442 438.661034,147.848972" id="Fill-73" fill="#000000" mask="url(#mask-2)"></path>
                    <polygon id="Fill-74" fill="#000000" mask="url(#mask-2)" points="403.897917 109.714948 407.223863 109.714948 407.223863 89.5362709 403.897917 89.5362709"></polygon>
                    <polygon id="Fill-75" fill="#000000" mask="url(#mask-2)" points="373.91256 119.937233 361.932611 107.951895 364.285816 105.60015 376.264505 117.585488"></polygon>
                    <polygon id="Fill-76" fill="#000000" mask="url(#mask-2)" points="437.494877 119.937233 435.142931 117.585488 447.121621 105.60015 449.474825 107.951895"></polygon>
                    <polygon id="Fill-77" fill="#000000" mask="url(#mask-2)" points="398.052659 125.341211 414.898832 125.341211 414.898832 116.928813 398.052659 116.928813"></polygon>
                    <path d="M291.536698,221.968094 C289.818985,221.968094 288.115114,221.555154 286.547151,220.739345 C284.024063,219.427504 282.142758,217.219281 281.251812,214.517544 L287.226686,212.544747 C287.60043,213.676556 288.389445,214.603154 289.449016,215.15458 C290.52998,215.717337 291.765727,215.82309 292.922195,215.456731 C294.079921,215.090373 295.027494,214.293449 295.58874,213.213257 C296.747724,210.984891 295.876913,208.227759 293.649549,207.070771 C292.550967,206.497943 291.293828,206.397225 290.115967,206.788763 L288.135249,200.81372 C290.936443,199.883345 293.926396,200.121289 296.550156,201.484747 C301.85682,204.244397 303.93066,210.808636 301.170993,216.116429 C299.837091,218.688492 297.579525,220.584492 294.816083,221.458214 C293.740153,221.799393 292.63528,221.968094 291.536698,221.968094" id="Fill-78" fill="#0876F2" mask="url(#mask-2)"></path>
                    <path d="M189.183644,220.70913 C188.085063,220.70913 186.981448,220.540429 185.904259,220.199249 C183.140817,219.325528 180.883251,217.429528 179.548091,214.857465 C176.789683,209.549672 178.863523,202.985433 184.168928,200.225783 C186.79143,198.862325 189.780125,198.623122 192.585094,199.554755 L190.604375,205.529799 C189.427773,205.138261 188.171892,205.238978 187.069536,205.811807 C184.84343,206.968795 183.972618,209.725927 185.130344,211.954293 C185.692848,213.034484 186.640422,213.831409 187.798148,214.197767 C188.958391,214.565385 190.192879,214.457114 191.270068,213.895616 C192.330897,213.34419 193.119913,212.417592 193.493657,211.285783 L199.46853,213.25858 C198.577585,215.960317 196.69628,218.16854 194.171934,219.480381 C192.605228,220.29619 190.900099,220.70913 189.183644,220.70913" id="Fill-79" fill="#0876F2" mask="url(#mask-2)"></path>
                    <path d="M53.1230171,215.573689 L51.2580713,212.290311 C52.3340016,211.678454 77.9121979,197.486151 103.573449,212.295347 L101.688368,215.567394 C77.8731876,201.824542 53.3671463,215.435203 53.1230171,215.573689" id="Fill-80" fill="#000000" mask="url(#mask-2)"></path>
                    <path d="M264.531479,223.121305 C240.800611,209.427552 217.488789,222.968971 217.257244,223.107457 L215.323086,219.864365 C216.347422,219.251249 240.726365,205.023696 266.416559,219.849257 L264.531479,223.121305 Z" id="Fill-81" fill="#000000" mask="url(#mask-2)"></path>
                    <polygon id="Fill-82" fill="#0876F2" mask="url(#mask-2)" points="181.634515 117.727877 179.383241 116.601104 185.256184 104.851192 187.507458 105.977965"></polygon>
                    <path d="M80.3507214,153.669289 C38.3063881,153.669289 35.5681142,140.014564 35.3944553,138.457225 L39.9045535,137.95364 L37.6495044,138.205433 L39.8944863,137.869289 C39.9146207,137.982596 42.5018868,149.129465 80.3507214,149.129465 C117.830845,149.129465 119.304429,138.803441 119.314497,138.698947 L123.849763,138.8047 C123.849763,140.326787 122.629117,153.669289 80.3507214,153.669289" id="Fill-83" fill="#000000" mask="url(#mask-2)"></path>
                    <polygon id="Fill-84" fill="#000000" mask="url(#mask-2)" points="78.5642997 158.375171 81.0219509 158.375171 81.0219509 151.399251 78.5642997 151.399251"></polygon>
                    <polygon id="Fill-85" fill="#000000" mask="url(#mask-2)" points="57.096031 157.145163 59.5536822 157.145163 59.5536822 150.380749 57.096031 150.380749"></polygon>
                    <polygon id="Fill-86" fill="#000000" mask="url(#mask-2)" points="100.124432 157.145163 102.582083 157.145163 102.582083 151.610757 100.124432 151.610757"></polygon>
                    <polygon id="Fill-87" fill="#000000" mask="url(#mask-2)" points="50.3346589 85.1021992 105.244853 85.1021992 105.244853 81.8351873 50.3346589 81.8351873"></polygon>
                    <path d="M263.296361,212.874974 L260.176793,212.874974 C260.176793,202.511181 251.754335,190.462894 240.894361,190.462894 L240.894361,187.341922 C251.469937,187.341922 263.296361,198.260918 263.296361,212.874974" id="Fill-88" fill="#FFFFFF" mask="url(#mask-2)"></path>
                    <path d="M192.769575,221.884499 C191.306058,221.884499 189.855125,221.533248 188.518707,220.8383 C186.326578,219.700196 184.710795,217.77524 183.965823,215.419718 C183.205751,213.017614 183.444846,210.471989 184.636549,208.252435 L190.178534,211.231144 C189.798497,211.9412 189.721735,212.754491 189.964606,213.5212 C190.202443,214.27532 190.718386,214.888435 191.419314,215.252276 C192.117725,215.616116 192.918066,215.685359 193.670588,215.447415 C194.421851,215.209471 195.037208,214.693296 195.400885,213.993312 C195.764562,213.292069 195.833774,212.492626 195.594678,211.741025 C195.361875,211.002013 194.857257,210.393933 194.175205,210.027575 L197.151317,204.481837 C199.286818,205.627495 200.864849,207.532308 201.59472,209.842507 C202.338433,212.19677 202.123247,214.702108 200.983138,216.895224 C199.845547,219.08708 197.922714,220.704849 195.568252,221.450156 C194.648363,221.740977 193.707081,221.884499 192.769575,221.884499" id="Fill-89" fill="#F2DF08" mask="url(#mask-2)"></path>
                    <path d="M24.6259667,218.157965 C20.7010235,218.157965 17.0504111,215.63626 15.8045972,211.69822 C15.0457832,209.293598 15.2836204,206.747973 16.4778401,204.52716 L22.0185661,207.509646 C21.6372716,208.218443 21.5605093,209.031734 21.8046385,209.798443 C22.2954137,211.352005 23.962791,212.214395 25.509362,211.724658 C27.0634835,211.233662 27.925486,209.570571 27.4347109,208.017009 C27.2019072,207.279256 26.6972897,206.671176 26.015238,206.304818 L28.9900907,200.757822 C31.125592,201.903479 32.703623,203.808292 33.4347522,206.118491 C34.9712561,210.983128 32.2669589,216.190204 27.4070261,217.727399 C26.483362,218.019479 25.5458556,218.157965 24.6259667,218.157965" id="Fill-90" fill="#FC6060" mask="url(#mask-2)"></path>
                    <path d="M291.371974,220.625535 C290.434468,220.625535 289.493186,220.482013 288.573297,220.191192 C286.218835,219.445885 284.296003,217.828116 283.158411,215.63626 C282.018302,213.443144 281.803116,210.937806 282.546829,208.582284 C283.277959,206.272084 284.85599,204.367272 286.991491,203.221614 L289.965085,208.769869 C289.284292,209.134969 288.779674,209.743049 288.546871,210.480802 C288.307775,211.233662 288.376987,212.033104 288.740664,212.734347 C289.104341,213.434331 289.719698,213.950507 290.470961,214.188451 C291.224742,214.426395 292.023824,214.357152 292.722235,213.993312 C293.423163,213.629471 293.939106,213.016355 294.176943,212.263495 C294.419814,211.495527 294.343052,210.682236 293.963016,209.97218 L299.505,206.993471 C300.696703,209.213025 300.935798,211.75865 300.175726,214.160754 C299.430755,216.516276 297.814972,218.441232 295.622842,219.579335 C294.286424,220.274284 292.835491,220.625535 291.371974,220.625535" id="Fill-91" fill="#F2DF08" mask="url(#mask-2)"></path>
                    <path d="M130.926238,220.625535 C129.988731,220.625535 129.04745,220.482013 128.127561,220.191192 C125.773098,219.445885 123.850266,217.828116 122.712674,215.63626 C121.572566,213.443144 121.35738,210.937806 122.101093,208.582284 C122.832222,206.272084 124.410253,204.367272 126.545755,203.221614 L129.519349,208.769869 C128.838556,209.134969 128.333938,209.743049 128.101134,210.480802 C127.862039,211.233662 127.931251,212.033104 128.294928,212.734347 C128.658605,213.434331 129.273961,213.950507 130.025225,214.188451 C130.779005,214.426395 131.578088,214.357152 132.276499,213.993312 C132.977426,213.629471 133.49337,213.016355 133.731207,212.263495 C133.974078,211.495527 133.897315,210.682236 133.517279,209.97218 L139.059264,206.993471 C140.250966,209.213025 140.490062,211.75865 139.72999,214.160754 C138.985018,216.516276 137.369235,218.441232 135.177106,219.579335 C133.840687,220.274284 132.389755,220.625535 130.926238,220.625535" id="Fill-92" fill="#FC6060" mask="url(#mask-2)"></path>
                    <path d="M241.226578,232.779826 C238.971529,232.779826 237.136785,234.615396 237.136785,236.87146 C237.136785,239.127524 238.971529,240.963093 241.226578,240.963093 C243.481627,240.963093 245.316372,239.127524 245.316372,236.87146 C245.316372,234.615396 243.481627,232.779826 241.226578,232.779826 M241.226578,247.257914 C235.502126,247.257914 230.844795,242.598488 230.844795,236.87146 C230.844795,231.144432 235.502126,226.485006 241.226578,226.485006 C246.95103,226.485006 251.608361,231.144432 251.608361,236.87146 C251.608361,242.598488 246.95103,247.257914 241.226578,247.257914" id="Fill-93" fill="#F2DF08" mask="url(#mask-2)"></path>
                    <path d="M89.1053959,253.080623 C87.5261065,253.080623 85.9606594,252.700416 84.5248274,251.952591 L87.432985,246.370344 C88.2786284,246.812241 89.2501116,246.902886 90.1624501,246.628432 C92.0852822,246.051826 93.1800884,244.016081 92.6024837,242.092384 C92.0248791,240.168687 89.985016,239.073388 88.068476,239.651253 C87.1183855,239.937037 86.3432124,240.579109 85.8838972,241.460384 L80.3029023,238.553436 C81.5524915,236.152591 83.6678584,234.400113 86.2588997,233.622073 C91.5026439,232.049627 97.0534372,235.034631 98.6289514,240.281994 C100.203207,245.530615 97.2170289,251.081388 91.970768,252.657611 C91.0282279,252.940878 90.0655535,253.080623 89.1053959,253.080623" id="Fill-94" fill="#0876F2" mask="url(#mask-2)"></path>
                    <path d="M67.0133393,252.44749 C66.1010008,252.44749 65.1848871,252.315299 64.2889078,252.04588 C59.3031351,250.547713 56.4641894,245.271394 57.9604245,240.283378 C59.4579181,235.294104 64.7331222,232.457657 69.7176364,233.952048 C72.1815796,234.69106 74.1937579,236.356669 75.3791687,238.64043 L69.7981739,241.544861 C69.4017786,240.783187 68.7310525,240.226725 67.9093186,239.981227 C66.2545253,239.485195 64.4864762,240.428159 63.9868922,242.09251 C63.4873083,243.756861 64.4348819,245.516892 66.0972256,246.016701 C66.8874995,246.254645 67.7255925,246.17659 68.4592385,245.792606 L71.3673961,251.374853 C70.0020344,252.086167 68.5133496,252.44749 67.0133393,252.44749" id="Fill-95" fill="#0876F2" mask="url(#mask-2)"></path>
                    <path d="M71.0442395,241.586532 C59.4833377,238.921305 50.8884798,236.754628 45.4962447,235.145672 C39.2973765,233.297512 36.6283145,232.222357 37.0825961,229.699393 C37.4777331,227.507536 37.8187589,225.615313 70.767392,229.914676 L70.1973377,234.28454 C63.7354643,233.441034 56.8469941,232.679361 51.2911672,232.20599 C55.9057124,233.449847 62.5274023,235.101608 72.0320819,237.292206 L71.0442395,241.586532 Z" id="Fill-96" fill="#000000" mask="url(#mask-2)"></path>
                    <path d="M86.0159031,241.586532 L85.0280607,237.292206 C94.7856783,235.043696 101.472805,233.364237 106.05589,232.115345 C100.176655,232.576126 92.6451434,233.381863 85.6006318,234.285799 L85.0406447,229.914676 C118.905391,225.571249 119.250193,227.501241 119.650363,229.737162 C120.103386,232.273975 117.4532,233.34913 111.300893,235.19603 C105.96151,236.799951 97.4547403,238.950261 86.0159031,241.586532" id="Fill-97" fill="#000000" mask="url(#mask-2)"></path>
                    <path d="M77.634847,232.779826 C75.3797979,232.779826 73.5450537,234.615396 73.5450537,236.87146 C73.5450537,239.127524 75.3797979,240.963093 77.634847,240.963093 C79.8898961,240.963093 81.7246403,239.127524 81.7246403,236.87146 C81.7246403,234.615396 79.8898961,232.779826 77.634847,232.779826 M77.634847,247.257914 C71.9103948,247.257914 67.2530641,242.598488 67.2530641,236.87146 C67.2530641,231.144432 71.9103948,226.485006 77.634847,226.485006 C83.3592992,226.485006 88.01663,231.144432 88.01663,236.87146 C88.01663,242.598488 83.3592992,247.257914 77.634847,247.257914" id="Fill-98" fill="#FC6060" mask="url(#mask-2)"></path>
                    <path d="M356.843021,215.640037 C352.918078,215.640037 349.267465,213.118331 348.021651,209.180292 C347.262837,206.77567 347.500675,204.230045 348.694894,202.009232 L354.23562,204.991718 C353.854326,205.700515 353.777564,206.513806 354.021693,207.280515 C354.512468,208.835335 356.179845,209.697726 357.726416,209.20673 C359.280538,208.715734 360.14254,207.052642 359.651765,205.49908 C359.418961,204.761327 358.914344,204.153248 358.232292,203.786889 L361.207145,198.239893 C363.342646,199.385551 364.920677,201.290363 365.651806,203.600563 C367.18831,208.4652 364.484013,213.672276 359.62408,215.209471 C358.700416,215.501551 357.76291,215.640037 356.843021,215.640037" id="Fill-99" fill="#FC6060" mask="url(#mask-2)"></path>
                    <path d="M461.884894,216.848642 C460.947388,216.848642 460.006106,216.70512 459.086217,216.4143 C456.731755,215.668993 454.808922,214.051224 453.671331,211.859367 C452.531222,209.666252 452.316036,207.160913 453.059749,204.805391 C453.790879,202.495192 455.36891,200.590379 457.504411,199.444722 L460.478005,204.992977 C459.797212,205.358076 459.292594,205.966156 459.059791,206.703909 C458.820695,207.45677 458.889907,208.256212 459.253584,208.957455 C459.617261,209.657439 460.232618,210.173614 460.983881,210.411559 C461.737661,210.649503 462.536744,210.58026 463.235155,210.216419 C463.936083,209.852578 464.452026,209.239463 464.689863,208.486602 C464.932734,207.718634 464.855972,206.905343 464.475935,206.195288 L470.01792,203.216578 C471.209623,205.436132 471.448718,207.981758 470.688646,210.383861 C469.943674,212.739383 468.327891,214.664339 466.135762,215.802443 C464.799344,216.497391 463.348411,216.848642 461.884894,216.848642" id="Fill-100" fill="#FC6060" mask="url(#mask-2)"></path>
                    <path d="M402.002896,237.80964 C390.441994,235.144413 381.847136,232.977735 376.454901,231.368779 C370.256033,229.52062 367.586971,228.445465 368.041252,225.9225 C368.436389,223.730644 368.777415,221.838421 401.726048,226.137783 L401.155994,230.507648 C394.694121,229.664142 387.80565,228.902469 382.249824,228.429098 C386.864369,229.672955 393.486059,231.324716 402.990738,233.515313 L402.002896,237.80964 Z" id="Fill-101" fill="#000000" mask="url(#mask-2)"></path>
                    <path d="M416.974559,237.80964 L415.986717,233.515313 C425.491397,231.324716 432.113087,229.672955 436.727632,228.430357 C431.171805,228.902469 424.284593,229.664142 417.82272,230.507648 L417.252665,226.137783 C450.203815,221.838421 450.543583,223.730644 450.936203,225.9225 C451.391743,228.445465 448.722681,229.52062 442.523813,231.368779 C437.131578,232.977735 428.535461,235.144413 416.974559,237.80964" id="Fill-102" fill="#000000" mask="url(#mask-2)"></path>
                    <path d="M408.593503,229.002934 C406.338454,229.002934 404.50371,230.838504 404.50371,233.094567 C404.50371,235.350631 406.338454,237.186201 408.593503,237.186201 C410.848552,237.186201 412.683297,235.350631 412.683297,233.094567 C412.683297,230.838504 410.848552,229.002934 408.593503,229.002934 M408.593503,243.481022 C402.869051,243.481022 398.21172,238.821595 398.21172,233.094567 C398.21172,227.367539 402.869051,222.708113 408.593503,222.708113 C414.317956,222.708113 418.975286,227.367539 418.975286,233.094567 C418.975286,238.821595 414.317956,243.481022 408.593503,243.481022" id="Fill-103" fill="#FC6060" mask="url(#mask-2)"></path>
                    <polygon id="Fill-104" fill="#0876F2" mask="url(#mask-2)" points="240.701323 248.517004 241.959721 248.517004 241.959721 228.907378 240.701323 228.907378"></polygon>
                    <polygon id="Fill-105" fill="#0876F2" mask="url(#mask-2)" points="408.068248 245.159347 409.326646 245.159347 409.326646 223.031793 408.068248 223.031793"></polygon>
                    <polygon id="Fill-106" fill="#0876F2" mask="url(#mask-2)" points="77.1095917 248.517004 78.3679897 248.517004 78.3679897 226.38945 77.1095917 226.38945"></polygon>
                    <polygon id="Fill-107" fill="#0876F2" mask="url(#mask-2)" points="0 263.963235 39.1865116 263.963235 39.1865116 261.723538 0 261.723538"></polygon>
                    <polygon id="Fill-108" fill="#0876F2" mask="url(#mask-2)" points="0 269.563108 39.1865116 269.563108 39.1865116 267.32341 0 267.32341"></polygon>
                    <polygon id="Fill-109" fill="#0876F2" mask="url(#mask-2)" points="0 275.16298 39.1865116 275.16298 39.1865116 272.923283 0 272.923283"></polygon>
                    <polygon id="Fill-110" fill="#0876F2" mask="url(#mask-2)" points="0 280.764112 39.1865116 280.764112 39.1865116 278.524414 0 278.524414"></polygon>
                    <polygon id="Fill-111" fill="#0876F2" mask="url(#mask-2)" points="0 286.363984 39.1865116 286.363984 39.1865116 284.124287 0 284.124287"></polygon>
                    <polygon id="Fill-112" fill="#0876F2" mask="url(#mask-2)" points="0 292.339028 39.1865116 292.339028 39.1865116 290.099331 0 290.099331"></polygon>
                    <polygon id="Fill-113" fill="#0876F2" mask="url(#mask-2)" points="0 297.9389 39.1865116 297.9389 39.1865116 295.699203 0 295.699203"></polygon>
                    <polygon id="Fill-114" fill="#0876F2" mask="url(#mask-2)" points="0 303.540032 39.1865116 303.540032 39.1865116 301.300335 0 301.300335"></polygon>
                    <polygon id="Fill-115" fill="#0876F2" mask="url(#mask-2)" points="0 309.139904 39.1865116 309.139904 39.1865116 306.900207 0 306.900207"></polygon>
                    <polygon id="Fill-116" fill="#0876F2" mask="url(#mask-2)" points="0 314.741036 39.1865116 314.741036 39.1865116 312.501339 0 312.501339"></polygon>
                    <polygon id="Fill-117" fill="#0876F2" mask="url(#mask-2)" points="446.731266 263.963235 485.917778 263.963235 485.917778 261.723538 446.731266 261.723538"></polygon>
                    <polygon id="Fill-118" fill="#0876F2" mask="url(#mask-2)" points="446.731266 269.563108 485.917778 269.563108 485.917778 267.32341 446.731266 267.32341"></polygon>
                    <polygon id="Fill-119" fill="#0876F2" mask="url(#mask-2)" points="446.731266 275.16298 485.917778 275.16298 485.917778 272.923283 446.731266 272.923283"></polygon>
                    <polygon id="Fill-120" fill="#0876F2" mask="url(#mask-2)" points="446.731266 280.764112 485.917778 280.764112 485.917778 278.524414 446.731266 278.524414"></polygon>
                    <polygon id="Fill-121" fill="#0876F2" mask="url(#mask-2)" points="446.731266 286.363984 485.917778 286.363984 485.917778 284.124287 446.731266 284.124287"></polygon>
                    <polygon id="Fill-122" fill="#0876F2" mask="url(#mask-2)" points="446.731266 292.339028 485.917778 292.339028 485.917778 290.099331 446.731266 290.099331"></polygon>
                    <polygon id="Fill-123" fill="#0876F2" mask="url(#mask-2)" points="446.731266 297.9389 485.917778 297.9389 485.917778 295.699203 446.731266 295.699203"></polygon>
                    <polygon id="Fill-124" fill="#0876F2" mask="url(#mask-2)" points="446.731266 303.540032 485.917778 303.540032 485.917778 301.300335 446.731266 301.300335"></polygon>
                    <polygon id="Fill-125" fill="#0876F2" mask="url(#mask-2)" points="446.731266 309.139904 485.917778 309.139904 485.917778 306.900207 446.731266 306.900207"></polygon>
                    <polygon id="Fill-126" fill="#0876F2" mask="url(#mask-2)" points="446.731266 314.741036 485.917778 314.741036 485.917778 312.501339 446.731266 312.501339"></polygon>
                    <polygon id="Fill-127" fill="#FFFFFF" mask="url(#mask-2)" points="405.469656 121.58698 407.734773 121.58698 407.734773 119.320845 405.469656 119.320845"></polygon>
                    <polygon id="Fill-128" fill="#FFFFFF" mask="url(#mask-2)" points="51.0859225 112.334853 53.3510388 112.334853 53.3510388 110.068717 51.0859225 110.068717"></polygon>
                </g>
            </g>
        </g>
    </g>
</svg>