<?xml version="1.0" encoding="UTF-8"?>
<svg width="225px" height="225px" viewBox="0 0 225 225" version="1.1" xmlns="http://www.w3.org/2000/svg" xmlns:xlink="http://www.w3.org/1999/xlink">
    <!-- Generator: Sketch 41.2 (35397) - http://www.bohemiancoding.com/sketch -->
    <title>foodie</title>
    <desc>Created with Sketch.</desc>
    <defs></defs>
    <g id="Page-2" stroke="none" stroke-width="1" fill="none" fill-rule="evenodd">
        <g id="foodie">
            <g id="Group-57">
                <rect id="bg" x="0" y="0" width="225" height="225"></rect>
                <g id="Page-1" transform="translate(52.000000, 28.000000)">
                    <polygon id="Fill-4" fill="#231F1F" points="2.18543353 129.431908 119.532601 129.431908 119.532601 41.9644509 2.18543353 41.9644509"></polygon>
                    <path d="M3.80190751,127.815434 L117.916127,127.815434 L117.916127,43.5809249 L3.80190751,43.5809249 L3.80190751,127.815434 Z M0.568959538,131.048382 L121.149075,131.048382 L121.149075,40.3479769 L0.568959538,40.3479769 L0.568959538,131.048382 Z" id="Fill-5" fill="#231F1F"></path>
                    <g id="Group-22">
                        <path d="M116.889642,43.8029075 C116.889642,65.2808844 91.8416647,82.6926185 60.9429364,82.6926185 C30.0442081,82.6926185 4.99623121,65.2808844 4.99623121,43.8029075 C4.99623121,22.3249306 30.0442081,4.91319653 60.9429364,4.91319653 C91.8416647,4.91319653 116.889642,22.3249306 116.889642,43.8029075" id="Fill-6" fill="#FFFFFF"></path>
                        <path d="M60.9426416,9.23787861 C32.4779595,9.23787861 9.3206185,24.744237 9.3206185,43.8029075 C9.3206185,62.8625607 32.4779595,78.3679364 60.9426416,78.3679364 C89.4073237,78.3679364 112.564665,62.8625607 112.564665,43.8029075 C112.564665,24.744237 89.4073237,9.23787861 60.9426416,9.23787861 M60.9426416,87.0173006 C27.7091156,87.0173006 0.671254335,67.6314046 0.671254335,43.8029075 C0.671254335,19.9744104 27.7091156,0.588514451 60.9426416,0.588514451 C94.1761676,0.588514451 121.214029,19.9744104 121.214029,43.8029075 C121.214029,67.6314046 94.1761676,87.0173006 60.9426416,87.0173006" id="Fill-8" fill="#231F1F"></path>
                        <path d="M116.889642,125.97059 C116.889642,147.448566 91.8416647,164.860301 60.9429364,164.860301 C30.0442081,164.860301 4.99623121,147.448566 4.99623121,125.97059 C4.99623121,104.492613 30.0442081,87.0808786 60.9429364,87.0808786 C91.8416647,87.0808786 116.889642,104.492613 116.889642,125.97059" id="Fill-10" fill="#231F1F"></path>
                        <path d="M60.9426416,91.4055607 C32.4779595,91.4055607 9.3206185,106.910936 9.3206185,125.97059 C9.3206185,145.02926 32.4779595,160.535618 60.9426416,160.535618 C89.4073237,160.535618 112.564665,145.02926 112.564665,125.97059 C112.564665,106.910936 89.4073237,91.4055607 60.9426416,91.4055607 M60.9426416,169.184983 C27.7091156,169.184983 0.671254335,149.799087 0.671254335,125.97059 C0.671254335,102.142092 27.7091156,82.7561965 60.9426416,82.7561965 C94.1761676,82.7561965 121.214029,102.142092 121.214029,125.97059 C121.214029,149.799087 94.1761676,169.184983 60.9426416,169.184983" id="Fill-12" fill="#231F1F"></path>
                        <path d="M59.9358092,142.374017 C52.6945954,142.374017 46.8055202,137.436156 46.8055202,131.366272 C46.8055202,130.116329 47.817659,129.104191 49.0676012,129.104191 C50.3175434,129.104191 51.3296821,130.116329 51.3296821,131.366272 C51.3296821,134.941185 55.1915318,137.849855 59.9358092,137.849855 C64.6800867,137.849855 68.5409538,134.941185 68.5409538,131.366272 C68.5409538,130.116329 69.5530925,129.104191 70.8030347,129.104191 C72.0529769,129.104191 73.0651156,130.116329 73.0651156,131.366272 C73.0651156,137.436156 67.1750578,142.374017 59.9358092,142.374017" id="Fill-14" fill="#FFFFFF"></path>
                        <path d="M40.4751329,120.390561 C33.2339191,120.390561 27.3448439,115.452699 27.3448439,109.382815 C27.3448439,108.132873 28.3569827,107.120734 29.6069249,107.120734 C30.8568671,107.120734 31.8690058,108.132873 31.8690058,109.382815 C31.8690058,112.957728 35.7308555,115.866399 40.4751329,115.866399 C45.2194104,115.866399 49.0802775,112.957728 49.0802775,109.382815 C49.0802775,108.132873 50.0924162,107.120734 51.3423584,107.120734 C52.5923006,107.120734 53.6044393,108.132873 53.6044393,109.382815 C53.6044393,115.452699 47.7143815,120.390561 40.4751329,120.390561" id="Fill-16" fill="#FFFFFF"></path>
                        <path d="M80.8380462,120.390561 C73.5968324,120.390561 67.7077572,115.452699 67.7077572,109.382815 C67.7077572,108.132873 68.719896,107.120734 69.9698382,107.120734 C71.2197803,107.120734 72.2319191,108.132873 72.2319191,109.382815 C72.2319191,112.957728 76.0937688,115.866399 80.8380462,115.866399 C85.5823237,115.866399 89.4431908,112.957728 89.4431908,109.382815 C89.4431908,108.132873 90.4553295,107.120734 91.7052717,107.120734 C92.9552139,107.120734 93.9673526,108.132873 93.9673526,109.382815 C93.9673526,115.452699 88.0772948,120.390561 80.8380462,120.390561" id="Fill-18" fill="#FFFFFF"></path>
                        <path d="M63.7282832,69.4274104 C63.5612312,69.4421503 63.3931965,69.4559075 63.2261445,69.4706474 C63.0325607,69.3763121 62.8448728,69.2711676 62.6434277,69.1886243 C57.387185,67.054289 52.2989769,64.6831329 47.5576474,61.833422 C41.8444682,58.3990289 36.7375896,54.4664277 33.1430231,49.3153295 C31.7712312,47.3500116 30.734526,45.2589133 30.227474,42.9899538 C30.0987457,42.4111676 29.9552775,41.8363121 29.8177052,41.2594913 C29.7823295,40.839896 29.7459711,40.4203006 29.7096127,39.9997225 C29.7528497,39.4435376 29.7823295,38.8853873 29.841289,38.3292023 C30.2805376,34.1784509 32.3431387,30.6841156 36.2295549,27.9778728 C39.8182254,25.4789711 43.9237746,24.3155029 48.5285145,24.5287399 C52.8492659,24.7292023 56.4792081,26.0361387 59.1608844,28.8996069 C59.4566647,29.2160231 59.721,29.5540578 60.0000751,29.8822659 C60.5523295,29.0872948 61.0141792,28.3031329 61.6037746,27.5936532 C64.2353353,24.4294913 68.010711,22.8994913 72.3648728,22.298104 C75.7776474,21.8264277 79.0538324,22.2420925 82.1128497,23.4831908 C87.5400751,25.6833642 90.6501908,29.3752139 91.513948,34.3789133 C92.1949306,38.3174104 91.1493815,42.1006474 89.2105954,45.7502428 C86.8453353,50.2007052 83.4571272,54.0890867 79.5422139,57.6797225 C74.9581098,61.8835376 69.8050462,65.5468902 64.3699595,68.9400116 C64.1400173,69.0834798 63.9415202,69.264289 63.7282832,69.4274104" id="Fill-20" fill="#F0643E"></path>
                    </g>
                </g>
            </g>
        </g>
    </g>
</svg>