<?xml version="1.0" encoding="UTF-8"?>
<svg width="225px" height="225px" viewBox="0 0 225 225" version="1.1" xmlns="http://www.w3.org/2000/svg" xmlns:xlink="http://www.w3.org/1999/xlink">
    <!-- Generator: Sketch 41.2 (35397) - http://www.bohemiancoding.com/sketch -->
    <title>gizzmo</title>
    <desc>Created with Sketch.</desc>
    <defs>
        <circle id="path-1" cx="85" cy="85" r="85"></circle>
    </defs>
    <g id="Page-2" stroke="none" stroke-width="1" fill="none" fill-rule="evenodd">
        <g id="gizzmo">
            <g id="Group-68">
                <rect id="bg" x="0" y="0" width="225" height="225"></rect>
                <g id="Group" transform="translate(28.000000, 28.000000)">
                    <mask id="mask-2" fill="white">
                        <use xlink:href="#path-1"></use>
                    </mask>
                    <use id="Mask" fill="#000000" xlink:href="#path-1"></use>
                    <g mask="url(#mask-2)" stroke-linecap="round" stroke="#23D8D8" stroke-width="2.5">
                        <g transform="translate(34.772727, 14.488636)">
                            <path d="M19.400974,79.5863095 C18.8766234,79.6520833 18.4178166,79.6520833 17.8934659,79.6520833 C8.1929789,79.6520833 0.327719156,71.7592262 0.327719156,62.0247024 C0.327719156,52.2901786 8.1929789,44.3973214 17.8934659,44.3973214 C26.6107955,44.3973214 33.8206169,50.777381 35.1970373,59.1306548" id="XMLID_25_"></path>
                            <path d="M45.2252435,60.0514881 C47.7159091,53.3425595 54.1392045,48.5410714 61.6767451,48.5410714 C71.3772321,48.5410714 79.2424919,56.4339286 79.2424919,66.1684524 C79.2424919,69.0625 78.5870536,71.7592262 77.3417208,74.1270833" id="XMLID_24_"></path>
                            <path d="M44.4387175,69.5886905 C45.0941558,73.0089286 46.7327516,76.0345238 49.0923295,78.402381" id="XMLID_23_"></path>
                            <path d="M31.1988636,63.8005952 C31.1988636,63.8005952 40.6371753,60.2488095 47.9780844,66.628869" id="XMLID_22_"></path>
                            <path d="M50.075487,83.7958333 C50.075487,83.7958333 59.5137987,70.3779762 81.143263,79.6520833" id="XMLID_21_"></path>
                            <path d="M76.6207386,44.3973214 C79.963474,44.7919643 83.1095779,41.4375 87.6976461,41.3717262 C98.6434659,41.1744048 103.231534,52.8821429 100.347606,64.3267857" id="XMLID_19_"></path>
                            <path d="M92.2201705,68.733631 C93.7276786,68.0758929 95.3662744,67.7470238 97.1359578,67.7470238 C104.083604,67.7470238 109.720373,73.4035714 109.720373,80.3755952 C109.720373,87.347619 104.083604,93.0041667 97.1359578,93.0041667 C92.4168019,93.0041667 88.2875406,90.3732143 86.1245942,86.4925595" id="XMLID_18_"></path>
                            <path d="M8.58624188,83.5327381 C2.42512175,88.8604167 1.11424513,98.06875 6.48883929,106.88244 L11.1424513,104.580357 C11.1424513,104.580357 7.73417208,119.31369 17.0413961,126.154167 L19.6631494,121.681548 C19.6631494,121.681548 24.7100244,130.758333 33.4928977,134.047024 L35.5903003,130.495238 L46.9949269,137.993452 L57.2853084,129.8375 L60.2347808,133.257738 C60.2347808,133.257738 70.3940747,125.825298 73.6057224,119.31369 L77.9971591,124.575595 C77.9971591,124.575595 89.5984172,115.367262 87.6321023,101.883631 L94.7763799,104.975 C94.7763799,104.975 95.0385552,101.554762 94.4486607,97.2136905" id="XMLID_17_"></path>
                            <path d="M13.2398539,49.8565476 C13.2398539,49.8565476 13.1743101,54.0002976 15.533888,56.960119 L11.3390828,57.8809524" id="XMLID_15_"></path>
                            <path d="M91.5647321,37.9514881 C91.5647321,24.7309524 76.0308442,19.7321429 61.8733766,19.7321429 C47.6503653,19.7321429 53.7459416,5.06458333 53.7459416,5.06458333 C40.5060877,5.06458333 39.5229302,17.627381 39.5229302,17.627381 C32.6408279,13.0232143 33.8861607,0.526190476 33.8861607,0.526190476 C20.8429383,8.55059524 26.020901,19.2717262 26.020901,19.2717262 C19.7286932,17.7589286 19.1387987,9.66875 19.1387987,9.66875 C2.29403409,22.3630952 19.2698864,34.6627976 19.2698864,34.6627976 C19.2698864,34.6627976 16.2548701,36.4386905 16.9758523,39.0696429 C16.9758523,39.0696429 27.5284091,37.8857143 33.0340909,44.3973214" id="XMLID_14_"></path>
                            <path d="M60.8902192,36.1755952 C60.8902192,36.1755952 74.7855114,32.6238095 76.6862825,44.3973214" id="XMLID_13_"></path>
                            <path d="M32.2475649,67.7470238 C30.7400568,69.1940476 19.9908685,79.7178571 25.8898133,88.5973214 C28.6426542,92.7410714 37.4255276,95.3720238 46.208401,87.5449405" id="XMLID_12_"></path>
                            <path d="M12.7155032,63.9321429 C12.7155032,63.9321429 8.45515422,67.2208333 8.12743506,70.9699405" id="XMLID_11_"></path>
                            <path d="M52.1728896,36.8333333 C52.1728896,36.8333333 56.4332386,43.4107143 67.1824269,43.4107143" id="XMLID_10_"></path>
                            <path d="M18.5489042,58.8675595 C18.5489042,58.8675595 24.447849,60.446131 26.1519886,63.7348214 C26.1519886,63.7348214 20.974026,63.3401786 17.4346591,64.7214286" id="XMLID_9_"></path>
                            <path d="M67.7067776,61.7616071 C67.7067776,61.7616071 58.2029221,58.4071429 53.7459416,66.3 C53.7459416,66.3 61.9389205,63.6032738 69.869724,68.010119" id="XMLID_6_"></path>
                            <path d="M15.533888,90.110119 C15.533888,90.110119 33.1651786,114.249107 72.2948458,90.9651786" id="XMLID_5_"></path>
                            <path d="M63.7086039,86.4925595 C63.7086039,86.4925595 76.489651,82.2172619 78.2593344,92.6095238" id="XMLID_4_"></path>
                            <path d="M101.658482,76.8895833 C101.527394,76.6922619 101.330763,76.4949405 101.134131,76.3633929 C100.08543,75.4425595 98.7090097,74.8505952 97.2670455,74.8505952 C94.0553977,74.8505952 91.4991883,77.4815476 91.4991883,80.6386905 C91.4991883,83.8616071 94.1209416,86.4267857 97.2670455,86.4267857 L97.8569399,86.4267857" id="XMLID_3_"></path>
                        </g>
                    </g>
                </g>
            </g>
        </g>
    </g>
</svg>