<?xml version="1.0" encoding="UTF-8"?>
<svg width="131px" height="22px" viewBox="0 0 131 22" version="1.1" xmlns="http://www.w3.org/2000/svg" xmlns:xlink="http://www.w3.org/1999/xlink">
    <!-- Generator: Sketch 41.2 (35397) - http://www.bohemiancoding.com/sketch -->
    <title>logo-wave</title>
    <desc>Created with Sketch.</desc>
    <defs></defs>
    <g id="Page-2" stroke="none" stroke-width="1" fill="none" fill-rule="evenodd">
        <g id="logo-wave">
            <rect id="bg" x="0" y="0" width="131" height="22"></rect>
            <path d="M95.7183372,12.5124664 C93.1573115,10.724975 90.9164139,9.1666491 86.2059559,9.1666491 C81.4954978,9.1666491 79.3003329,10.724975 76.6935745,12.5124664 C73.995351,14.3916241 70.9312666,16.4999473 65.1232261,16.4999473 C59.269453,16.4999473 56.2053686,14.3916241 53.5528776,12.5124664 C50.9918519,10.724975 48.7509544,9.1666491 44.0404963,9.1666491 C39.3300382,9.1666491 37.1348733,10.724975 34.528115,12.5124664 C31.8298914,14.3916241 28.765807,16.4999473 22.9577665,16.4999473 C17.1039934,16.4999473 14.0856416,14.3916241 11.387418,12.5124664 C8.7806597,10.724975 6.53976217,9.1666491 1.8293041,9.1666491 C0.823186847,9.1666491 0,8.34165306 0,7.33332455 C0,6.32499605 0.823186847,5.5 1.8293041,5.5 C7.68307723,5.5 10.701429,7.60832323 13.3996526,9.4874809 C15.9606783,11.2749723 18.2015758,12.8332982 22.9120339,12.8332982 C27.622492,12.8332982 29.8176569,11.2749723 32.4244152,9.4874809 C35.1226388,7.60832323 38.1867232,5.5 44.0404963,5.5 C49.8942694,5.5 52.9583538,7.60832323 55.6108447,9.4874809 C58.1718705,11.2749723 60.412768,12.8332982 65.1232261,12.8332982 C69.8336841,12.8332982 72.0288491,11.2749723 74.6356074,9.4874809 C77.333831,7.60832323 80.3979153,5.5 86.2059559,5.5 C92.059729,5.5 95.1238134,7.60832323 97.7763043,9.4874809 C100.33733,11.2749723 102.578228,12.8332982 107.288686,12.8332982 C111.999144,12.8332982 114.194309,11.2749723 116.801067,9.4874809 C119.499291,7.60832323 122.563375,5.5 128.371415,5.5 C129.377533,5.5 130.20072,6.32499605 130.20072,7.33332455 C130.20072,8.34165306 129.377533,9.1666491 128.371415,9.1666491 C123.660957,9.1666491 121.465792,10.724975 118.859034,12.5124664 C116.160811,14.345791 113.142459,16.4999473 107.288686,16.4999473 C101.434913,16.4999473 98.3708282,14.3916241 95.7183372,12.5124664 Z" id="logo" fill="#FFFFFF"></path>
        </g>
    </g>
</svg>