<?xml version="1.0" encoding="UTF-8"?>
<svg width="65px" height="22px" viewBox="0 0 65 22" version="1.1" xmlns="http://www.w3.org/2000/svg" xmlns:xlink="http://www.w3.org/1999/xlink">
    <!-- Generator: Sketch 41.2 (35397) - http://www.bohemiancoding.com/sketch -->
    <title>logo-people</title>
    <desc>Created with Sketch.</desc>
    <defs></defs>
    <g id="Page-2" stroke="none" stroke-width="1" fill="none" fill-rule="evenodd">
        <g id="logo-people">
            <rect id="bg" x="0" y="0" width="65" height="22"></rect>
            <path d="M4.21103734,11.038701 C4.21103734,14.1807717 6.6605485,17.9362294 11.0236088,17.9362294 C15.0816528,17.9362294 17.3024826,15.1782544 19.5986769,11.038701 C17.3775237,6.74628667 15.2343227,4.06279902 11.0236088,4.06279902 C7.27349233,4.06279902 4.21103734,7.20616508 4.21103734,11.038701 Z M32.3825181,17.9362294 C36.2115572,17.9362294 38.4320635,15.254361 40.4989295,11.038701 C38.4320635,6.82206945 36.3642271,4.06279902 32.3825181,4.06279902 C28.249433,4.06279902 26.106232,6.82206945 24.0387191,11.038701 C26.0295736,15.254361 28.0961162,17.9362294 32.3825181,17.9362294 Z M53.6657393,17.9362294 C57.3401678,17.9362294 60.4789577,14.8709131 60.4789577,11.038701 C60.4789577,7.05233251 57.2641563,4.06279902 53.6657393,4.06279902 C49.5310369,4.06279902 47.3118245,6.82206945 44.9383248,11.038701 C47.2354895,15.3307915 49.4553489,17.9362294 53.6657393,17.9362294 Z M42.7957707,15.1782544 C40.8045928,18.781175 37.6661263,22 32.3825181,22 C26.7948639,22 23.6567209,18.6270186 21.7409075,15.1782544 C19.5986769,18.6270186 16.4602104,22 11.0236088,22 C4.97697454,22 0,16.9406898 0,11.038701 C0,4.98320354 4.97697454,0 11.0236088,0 C16.6122334,0 19.6750119,3.37330527 21.8185363,6.89914766 C23.8090673,3.29655091 26.8715223,0 32.3825181,0 C37.8191197,0 40.8802808,3.37330527 42.7957707,6.89914766 C45.0149832,3.45005962 48.1540966,0 53.6657393,0 C59.7136674,0 64.6903185,4.98320354 64.6903185,11.038701 C64.6903185,17.0174442 59.7136674,22 53.6657393,22 C48.0014267,22 44.9383248,18.7040968 42.7957707,15.1782544 Z" id="logo" fill="#FFFFFF"></path>
        </g>
    </g>
</svg>