<?xml version="1.0" encoding="UTF-8"?>
<svg width="225px" height="225px" viewBox="0 0 225 225" version="1.1" xmlns="http://www.w3.org/2000/svg" xmlns:xlink="http://www.w3.org/1999/xlink">
    <!-- Generator: Sketch 41.2 (35397) - http://www.bohemiancoding.com/sketch -->
    <title>troljo</title>
    <desc>Created with Sketch.</desc>
    <defs></defs>
    <g id="Page-2" stroke="none" stroke-width="1" fill="none" fill-rule="evenodd">
        <g id="troljo">
            <g id="Group-69">
                <rect id="bg" x="0" y="0" width="225" height="225"></rect>
                <g id="Page-1" transform="translate(33.000000, 33.000000)">
                    <g id="Group-30" transform="translate(0.245647, 0.274736)">
                        <path d="M93.7339097,101.001301 L65.3190578,101.001301 C63.3365925,101.001301 62.0149489,99.6796574 62.0149489,97.697192 C62.0149489,95.7147267 63.3365925,94.3930831 65.3190578,94.3930831 L93.7339097,94.3930831 C95.3862066,94.3930831 97.0380187,95.7147267 97.0380187,97.697192 C97.0380187,99.6796574 95.7163751,101.001301 93.7339097,101.001301 M93.7339097,114.547905 L65.3190578,114.547905 C63.3365925,114.547905 62.0149489,113.226262 62.0149489,111.243796 C62.0149489,109.261331 63.3365925,107.939687 65.3190578,107.939687 L93.7339097,107.939687 C95.3862066,107.939687 97.0380187,109.261331 97.0380187,111.243796 C97.0380187,113.226262 95.7163751,114.547905 93.7339097,114.547905 M155.520019,38.1965658 L146.929336,38.1965658 L146.929336,19.3633873 C146.929336,8.79023878 139.99095,0.200040402 131.400267,0.200040402 L27.6527009,0.200040402 C19.0620177,0.200040402 12.1236314,8.79023878 12.1236314,19.3633873 L12.1236314,24.3193083 L12.1236314,37.8663973 L3.53294816,37.8663973 C1.55048281,37.8663973 0.228839239,39.1880409 0.228839239,41.1700214 L0.228839239,64.6289524 C0.228839239,66.6114177 1.55048281,67.9330613 3.53294816,67.9330613 C5.51541352,67.9330613 6.83705709,66.6114177 6.83705709,64.6289524 L6.83705709,44.4741303 L12.1236314,44.4741303 L12.1236314,132.693111 C12.1236314,134.675577 13.4447901,135.99722 15.4272555,135.99722 L17.4097208,135.99722 L17.4097208,148.883003 C17.4097208,154.499745 21.7053048,158.794845 27.3220476,158.794845 L39.8776615,158.794845 C45.4944043,158.794845 49.7899883,154.499745 49.7899883,148.883003 L49.7899883,135.99722 L109.262979,135.99722 L109.262979,148.883003 C109.262979,154.499745 113.558078,158.794845 119.175306,158.794845 L131.73092,158.794845 C137.347663,158.794845 141.642762,154.499745 141.642762,148.883003 L141.642762,135.99722 L143.625227,135.99722 C145.607693,135.99722 146.929336,134.675577 146.929336,132.693111 L146.929336,44.8047836 L152.21591,44.8047836 L152.21591,64.9596057 C152.21591,66.942071 153.537554,68.2637146 155.520019,68.2637146 C157.502485,68.2637146 158.824128,66.942071 158.824128,64.9596057 L158.824128,41.5006747 C158.824128,39.5182094 157.502485,38.1965658 155.520019,38.1965658" id="Fill-2" fill="#FFFFFF"></path>
                        <path d="M93.7339097,94.3931801 L65.3190578,94.3931801 C63.3365925,94.3931801 62.0149489,95.7148236 62.0149489,97.697289 C62.0149489,99.6797544 63.3365925,101.001398 65.3190578,101.001398 L93.7339097,101.001398 C95.7163751,101.001398 97.0380187,99.6797544 97.0380187,97.697289 C97.0380187,95.7148236 95.3862066,94.3931801 93.7339097,94.3931801" id="Fill-4" fill="#FFFFFF"></path>
                        <path d="M93.7339097,107.939833 L65.3190578,107.939833 C63.3365925,107.939833 62.0149489,109.261476 62.0149489,111.243942 C62.0149489,113.226407 63.3365925,114.548051 65.3190578,114.548051 L93.7339097,114.548051 C95.7163751,114.548051 97.0380187,113.226407 97.0380187,111.243942 C97.0380187,109.261476 95.3862066,107.939833 93.7339097,107.939833" id="Fill-6" fill="#FFFFFF"></path>
                        <polygon id="Fill-8" fill="#000000" points="41.8550846 29.0883277 37.0310371 29.0883277 37.0310371 17.444677 32.6452749 17.444677 32.6452749 13.432233 46.240362 13.432233 46.240362 17.444677 41.8550846 17.444677"></polygon>
                        <path d="M55.4795523,20.2733142 C55.9183225,20.2733142 56.466664,20.2296796 56.883132,20.0105369 C57.2996,19.7909095 57.6069815,19.418076 57.6069815,18.7165286 C57.6069815,17.7299018 57.0586401,17.159743 55.2167751,17.159743 L52.9584421,17.159743 L52.9584421,20.2733142 L55.4795523,20.2733142 Z M57.3219021,13.4323785 C58.7026948,13.4323785 59.9530686,13.8047271 60.8960608,14.5503939 C61.8385681,15.2955759 62.431029,16.4140762 62.431029,17.9054099 C62.431029,18.7165286 62.2337037,19.5499495 61.8603854,20.2514969 C61.4880368,20.9530443 60.8737586,21.5455052 60.0844572,21.8305846 C61.4002828,22.3348067 62.2114016,23.7815361 62.3869096,25.7334572 C62.4087269,25.9307826 62.4087269,26.1717426 62.431029,26.4791241 C62.4528463,26.7860208 62.4746636,27.0929175 62.5187831,27.4216314 C62.584235,28.0800291 62.671989,28.7374571 62.912949,29.0884732 L58.0893863,29.0884732 C57.8479415,28.2991718 57.7601875,27.4875682 57.6942507,26.6764494 C57.6287988,25.9525999 57.5628621,25.1851158 57.2777827,24.5931397 C56.9927033,24.0006788 56.4884813,23.6283302 55.5236718,23.6283302 L52.9584421,23.6283302 L52.9584421,29.0884732 L48.1343946,29.0884732 L48.1343946,13.4323785 L57.3219021,13.4323785 Z" id="Fill-10" fill="#000000"></path>
                        <path d="M70.2455012,24.702614 C70.8592946,25.3387095 71.6490808,25.558337 72.2623894,25.558337 C72.8766676,25.558337 73.6659691,25.3387095 74.2797624,24.702614 C74.8940406,24.0888207 75.3764454,23.0144398 75.3764454,21.259844 C75.3764454,19.5057331 74.8940406,18.4313523 74.2797624,17.7957416 C73.6659691,17.1814634 72.8766676,16.9623207 72.2623894,16.9623207 C71.6490808,16.9623207 70.8592946,17.1814634 70.2455012,17.7957416 C69.631223,18.4313523 69.1488182,19.5057331 69.1488182,21.259844 C69.1488182,23.0144398 69.631223,24.0888207 70.2455012,24.702614 M66.5181366,15.3614157 C67.8989293,13.9146863 69.8944851,13.0594481 72.2623894,13.0594481 C74.6307786,13.0594481 76.6263343,13.9146863 78.0299139,15.3614157 C79.4107066,16.8091148 80.2000081,18.8701224 80.2000081,21.259844 C80.2000081,23.6505353 79.4107066,25.6897257 78.0299139,27.1369399 C76.6263343,28.5841542 74.6307786,29.4607248 72.2623894,29.4607248 C69.8944851,29.4607248 67.8989293,28.5841542 66.5181366,27.1369399 C65.114557,25.6897257 64.3247707,23.6505353 64.3247707,21.259844 C64.3247707,18.8701224 65.114557,16.8091148 66.5181366,15.3614157" id="Fill-12" fill="#000000"></path>
                        <polygon id="Fill-14" fill="#000000" points="82.655521 13.432233 87.4795685 13.432233 87.4795685 25.0758838 94.4082583 25.0758838 94.4082583 29.0883277 82.655521 29.0883277"></polygon>
                        <path d="M107.456119,23.453113 C107.456119,25.6241768 106.974199,27.1150257 106.00939,28.0798352 C105.022278,29.0441598 103.531429,29.4611127 101.579993,29.4611127 C99.584437,29.4611127 98.15904,28.9127712 97.2165327,27.9261444 C96.2735405,26.9390328 95.8347703,25.5582401 95.8347703,23.8259464 L95.8347703,22.5101208 L100.176413,22.5101208 L100.176413,23.4089936 C100.176413,24.0232718 100.176413,24.5934306 100.351921,25.0098986 C100.505127,25.4481839 100.834326,25.7332633 101.469937,25.7332633 C102.084215,25.7332633 102.391111,25.3390974 102.5225,24.8780251 C102.654374,24.4397398 102.632556,23.869581 102.632556,23.5190497 L102.632556,13.4321846 L107.456119,13.4321846 L107.456119,23.453113 Z" id="Fill-16" fill="#000000"></path>
                        <path d="M115.752656,24.702614 C116.36645,25.3387095 117.156236,25.558337 117.769545,25.558337 C118.383823,25.558337 119.173124,25.3387095 119.786918,24.702614 C120.401196,24.0888207 120.883601,23.0144398 120.883601,21.259844 C120.883601,19.5057331 120.401196,18.4313523 119.786918,17.7957416 C119.173124,17.1814634 118.383823,16.9623207 117.769545,16.9623207 C117.156236,16.9623207 116.36645,17.1814634 115.752656,17.7957416 C115.138378,18.4313523 114.655973,19.5057331 114.655973,21.259844 C114.655973,23.0144398 115.138378,24.0888207 115.752656,24.702614 M112.024807,15.3614157 C113.406085,13.9146863 115.40164,13.0594481 117.769545,13.0594481 C120.137934,13.0594481 122.13349,13.9146863 123.537069,15.3614157 C124.917862,16.8091148 125.707648,18.8701224 125.707648,21.259844 C125.707648,23.6505353 124.917862,25.6897257 123.537069,27.1369399 C122.13349,28.5841542 120.137934,29.4607248 117.769545,29.4607248 C115.40164,29.4607248 113.406085,28.5841542 112.024807,27.1369399 C110.621227,25.6897257 109.831926,23.6505353 109.831926,21.259844 C109.831926,18.8701224 110.621227,16.8091148 112.024807,15.3614157" id="Fill-18" fill="#000000"></path>
                        <path d="M135.034786,148.882906 C135.034786,150.865371 133.713143,152.187015 131.730678,152.187015 L119.175064,152.187015 C117.192598,152.187015 115.87144,150.865371 115.87144,148.882906 L115.87144,135.997123 L135.034786,135.997123 L135.034786,148.882906 Z M43.181528,148.882906 C43.181528,150.865371 41.8598844,152.187015 39.8774191,152.187015 L27.32229,152.187015 C25.3398247,152.187015 24.0181811,150.865371 24.0181811,148.882906 L24.0181811,135.997123 L43.181528,135.997123 L43.181528,148.882906 Z M27.6524585,6.80816129 L131.069856,6.80816129 C136.025777,6.80816129 139.990707,12.7550725 139.990707,19.3632904 L139.990707,35.5158499 L18.7316068,35.5158499 L18.7316068,19.3632904 C18.7316068,12.7550725 23.026706,6.80816129 27.6524585,6.80816129 L27.6524585,6.80816129 Z M82.8303503,73.2743243 L140.321361,73.2743243 L140.321361,42.4542362 L82.8303503,42.4542362 L82.8303503,73.2743243 Z M18.7316068,92.9065007 L39.5472506,92.9065007 C43.181528,92.9065007 46.1554685,95.8799564 46.1554685,99.5142338 L46.1554685,109.426561 C46.1554685,113.061323 43.181528,116.034778 39.5472506,116.034778 L18.7316068,116.034778 L18.7316068,92.9065007 Z M18.7316068,73.2743243 L76.2226173,73.2743243 L76.2226173,42.4542362 L18.7316068,42.4542362 L18.7316068,73.2743243 Z M140.321361,92.9065007 L140.321361,116.034778 L119.505717,116.034778 C115.87144,116.034778 112.897499,113.061323 112.897499,109.426561 L112.897499,99.5142338 C112.897499,95.8799564 115.87144,92.9065007 119.505717,92.9065007 L140.321361,92.9065007 Z M119.505717,86.2982829 C112.236677,86.2982829 106.289281,92.245679 106.289281,99.5142338 L106.289281,109.426561 C106.289281,116.6956 112.236677,122.642996 119.505717,122.642996 L140.321361,122.642996 L140.321361,129.388905 L18.7316068,129.388905 L18.7316068,122.642996 L39.5472506,122.642996 C46.8162903,122.642996 52.7636863,116.6956 52.7636863,109.426561 L52.7636863,99.5142338 C52.7636863,92.245679 46.8162903,86.2982829 39.5472506,86.2982829 L18.7316068,86.2982829 L18.7316068,79.5523736 L140.321361,79.5523736 L140.321361,86.2982829 L119.505717,86.2982829 Z M155.520262,38.1964688 L146.929579,38.1964688 L146.929579,19.3632904 C146.929579,8.79062664 139.990707,0.199943437 131.400509,0.199943437 L27.6524585,0.199943437 C19.0617753,0.199943437 12.123389,8.79062664 12.123389,19.3632904 L12.123389,24.3196962 L12.123389,37.8663004 L3.53270575,37.8663004 C1.55024039,37.8663004 0.228596824,39.1879439 0.228596824,41.1704093 L0.228596824,64.6293402 C0.228596824,66.6118056 1.55024039,67.9334492 3.53270575,67.9334492 C5.5151711,67.9334492 6.83681467,66.6118056 6.83681467,64.6293402 L6.83681467,44.4745182 L12.123389,44.4745182 L12.123389,132.693014 C12.123389,134.67548 13.4450325,135.997123 15.4274979,135.997123 L17.4099632,135.997123 L17.4099632,148.882906 C17.4099632,154.499648 21.7050624,158.795233 27.32229,158.795233 L39.8774191,158.795233 C45.4946467,158.795233 49.7897459,154.499648 49.7897459,148.882906 L49.7897459,135.997123 L109.263222,135.997123 L109.263222,148.882906 C109.263222,154.499648 113.558321,158.795233 119.175064,158.795233 L131.730678,158.795233 C137.34742,158.795233 141.643004,154.499648 141.643004,148.882906 L141.643004,135.997123 L143.62547,135.997123 C145.607935,135.997123 146.929579,134.67548 146.929579,132.693014 L146.929579,44.8046867 L152.216153,44.8046867 L152.216153,64.9595087 C152.216153,66.9419741 153.537796,68.2636176 155.520262,68.2636176 C157.502242,68.2636176 158.823886,66.9419741 158.823886,64.9595087 L158.823886,41.5005778 C158.823886,39.5181124 157.502242,38.1964688 155.520262,38.1964688 L155.520262,38.1964688 Z" id="Fill-20" fill="#000000"></path>
                        <path d="M93.7339097,94.3931316 L65.3190578,94.3931316 C63.3365925,94.3931316 62.0149489,95.7147752 62.0149489,97.6972405 C62.0149489,99.6797059 63.3365925,101.001349 65.3190578,101.001349 L93.7339097,101.001349 C95.7163751,101.001349 97.0380187,99.6797059 97.0380187,97.6972405 C97.0380187,95.7147752 95.3857218,94.3931316 93.7339097,94.3931316" id="Fill-22" fill="#000000"></path>
                        <path d="M93.7339097,107.939833 L65.3190578,107.939833 C63.3365925,107.939833 62.0149489,109.261476 62.0149489,111.243942 C62.0149489,113.226407 63.3365925,114.548051 65.3190578,114.548051 L93.7339097,114.548051 C95.7163751,114.548051 97.0380187,113.226407 97.0380187,111.243942 C97.0380187,109.261476 95.3857218,107.939833 93.7339097,107.939833" id="Fill-24" fill="#000000"></path>
                        <path d="M27.3410529,110.137368 C27.3410529,110.89661 27.9563008,111.511858 28.7155428,111.511858 L39.8874551,111.511858 C40.6462123,111.511858 41.2614601,110.89661 41.2614601,110.137368 L41.2614601,98.9654559 C41.2614601,98.2062139 40.6462123,97.590966 39.8874551,97.590966 L28.7155428,97.590966 C27.9563008,97.590966 27.3410529,98.2062139 27.3410529,98.9654559 L27.3410529,110.137368 Z" id="Fill-26" fill="#000000"></path>
                        <path d="M117.739679,110.137368 C117.739679,110.89661 118.354927,111.511858 119.114169,111.511858 L130.286081,111.511858 C131.044839,111.511858 131.660086,110.89661 131.660086,110.137368 L131.660086,98.9654559 C131.660086,98.2062139 131.044839,97.590966 130.286081,97.590966 L119.114169,97.590966 C118.354927,97.590966 117.739679,98.2062139 117.739679,98.9654559 L117.739679,110.137368 Z" id="Fill-28" fill="#000000"></path>
                    </g>
                </g>
            </g>
        </g>
    </g>
</svg>